M48
;GenerationSoftware,Autodesk,EAGLE,9.6.2*%
;CreationDate,2022-12-03T01:06:30Z*%
FMAT,2
ICI,OFF
METRIC,TZ,000.000
T5C1.016
T4C1.500
T3C2.000
T2C2.997
T1C3.302
%
G90
M71
T1
X2540Y66040
X2540Y2540
X111760Y2540
X111760Y66040
T2
X13970Y57420
X13970Y63420
X9270Y60420
T3
X93980Y5080
X81280Y5080
T4
X94150Y48020
X12150Y48020
X12150Y43020
X12150Y38020
X12150Y33020
X12150Y28020
X12150Y23020
X12150Y18020
X94150Y45020
X94150Y27020
X94150Y24020
T5
X11430Y2540
X13970Y2540
X16510Y2540
X29210Y2540
X31750Y2540
X41910Y2540
X44450Y2540
M30