G04 EAGLE Gerber RS-274X export*
G75*
%MOMM*%
%FSLAX34Y34*%
%LPD*%
%INSilkscreen Top*%
%IPPOS*%
%AMOC8*
5,1,8,0,0,1.08239X$1,22.5*%
G01*
%ADD10C,0.152400*%
%ADD11C,0.203200*%

G36*
X339283Y416983D02*
X339283Y416983D01*
X339284Y416981D01*
X340484Y417081D01*
X340528Y417121D01*
X340524Y417126D01*
X340529Y417130D01*
X340529Y442930D01*
X340525Y442935D01*
X340528Y442939D01*
X340328Y444039D01*
X340285Y444079D01*
X340282Y444076D01*
X340280Y444079D01*
X132980Y444079D01*
X132965Y444068D01*
X132946Y444065D01*
X132947Y444054D01*
X132943Y444051D01*
X132904Y444073D01*
X132887Y444070D01*
X132880Y444079D01*
X127180Y444079D01*
X127172Y444073D01*
X127166Y444077D01*
X126166Y443777D01*
X126141Y443743D01*
X126133Y443737D01*
X126135Y443734D01*
X126132Y443731D01*
X126131Y443730D01*
X126131Y417930D01*
X126140Y417918D01*
X126135Y417910D01*
X126535Y417010D01*
X126574Y416988D01*
X126580Y416981D01*
X339280Y416981D01*
X339283Y416983D01*
G37*
G36*
X323388Y367457D02*
X323388Y367457D01*
X323394Y367453D01*
X324394Y367753D01*
X324428Y367799D01*
X324429Y367800D01*
X324429Y393600D01*
X324420Y393612D01*
X324425Y393620D01*
X324025Y394520D01*
X323986Y394542D01*
X323980Y394549D01*
X132980Y394549D01*
X132966Y394539D01*
X132949Y394538D01*
X132949Y394526D01*
X132940Y394519D01*
X132908Y394541D01*
X132887Y394540D01*
X132880Y394549D01*
X126680Y394549D01*
X126653Y394529D01*
X126640Y394529D01*
X126140Y393829D01*
X126140Y393819D01*
X126133Y393813D01*
X126138Y393806D01*
X126131Y393800D01*
X126131Y368000D01*
X126153Y367971D01*
X126154Y367958D01*
X126954Y367458D01*
X126973Y367460D01*
X126980Y367451D01*
X323380Y367451D01*
X323388Y367457D01*
G37*
G36*
X266727Y467817D02*
X266727Y467817D01*
X266725Y467820D01*
X266728Y467821D01*
X266928Y468921D01*
X266925Y468927D01*
X266929Y468930D01*
X266929Y494730D01*
X266893Y494777D01*
X266888Y494773D01*
X266884Y494779D01*
X265684Y494879D01*
X265681Y494877D01*
X265680Y494879D01*
X132980Y494879D01*
X132965Y494868D01*
X132947Y494867D01*
X132948Y494855D01*
X132941Y494850D01*
X132906Y494872D01*
X132887Y494870D01*
X132880Y494879D01*
X126580Y494879D01*
X126544Y494852D01*
X126535Y494850D01*
X126135Y493950D01*
X126136Y493947D01*
X126134Y493946D01*
X126137Y493942D01*
X126138Y493936D01*
X126131Y493930D01*
X126131Y468130D01*
X126165Y468085D01*
X126166Y468083D01*
X127166Y467783D01*
X127176Y467786D01*
X127180Y467781D01*
X266680Y467781D01*
X266727Y467817D01*
G37*
G36*
X264507Y316671D02*
X264507Y316671D01*
X264520Y316671D01*
X265020Y317371D01*
X265019Y317393D01*
X265029Y317400D01*
X265029Y343200D01*
X265009Y343227D01*
X265009Y343240D01*
X264309Y343740D01*
X264287Y343739D01*
X264280Y343749D01*
X132980Y343749D01*
X132964Y343737D01*
X132944Y343734D01*
X132946Y343723D01*
X132944Y343722D01*
X132903Y343744D01*
X132886Y343741D01*
X132880Y343749D01*
X127280Y343749D01*
X127275Y343745D01*
X127271Y343748D01*
X126171Y343548D01*
X126131Y343505D01*
X126134Y343502D01*
X126131Y343500D01*
X126131Y317800D01*
X126135Y317795D01*
X126132Y317791D01*
X126332Y316691D01*
X126375Y316651D01*
X126378Y316654D01*
X126380Y316651D01*
X264480Y316651D01*
X264507Y316671D01*
G37*
G36*
X256427Y267157D02*
X256427Y267157D01*
X256422Y267164D01*
X256429Y267170D01*
X256429Y292870D01*
X256427Y292872D01*
X256429Y292874D01*
X256329Y294174D01*
X256290Y294218D01*
X256284Y294214D01*
X256280Y294219D01*
X132980Y294219D01*
X132965Y294208D01*
X132947Y294207D01*
X132948Y294195D01*
X132941Y294190D01*
X132906Y294212D01*
X132887Y294210D01*
X132880Y294219D01*
X126180Y294219D01*
X126133Y294183D01*
X126138Y294176D01*
X126133Y294172D01*
X126131Y294170D01*
X126131Y268370D01*
X126133Y268367D01*
X126131Y268366D01*
X126231Y267166D01*
X126271Y267122D01*
X126276Y267126D01*
X126280Y267121D01*
X256380Y267121D01*
X256427Y267157D01*
G37*
G36*
X237816Y216348D02*
X237816Y216348D01*
X237825Y216350D01*
X238225Y217250D01*
X238222Y217264D01*
X238229Y217270D01*
X238229Y243070D01*
X238195Y243115D01*
X238194Y243117D01*
X237194Y243417D01*
X237184Y243414D01*
X237180Y243419D01*
X132980Y243419D01*
X132970Y243412D01*
X132958Y243414D01*
X132956Y243401D01*
X132934Y243384D01*
X132916Y243403D01*
X132890Y243408D01*
X132889Y243408D01*
X132888Y243408D01*
X132880Y243419D01*
X126880Y243419D01*
X126861Y243405D01*
X126848Y243407D01*
X126148Y242807D01*
X126144Y242790D01*
X126133Y242781D01*
X126137Y242775D01*
X126131Y242770D01*
X126131Y217070D01*
X126145Y217051D01*
X126143Y217038D01*
X126743Y216338D01*
X126772Y216332D01*
X126780Y216321D01*
X237780Y216321D01*
X237816Y216348D01*
G37*
G36*
X864147Y-813D02*
X864147Y-813D01*
X864143Y-808D01*
X864149Y-804D01*
X864249Y396D01*
X864247Y399D01*
X864249Y400D01*
X864249Y26200D01*
X864213Y26247D01*
X864206Y26242D01*
X864200Y26249D01*
X761500Y26249D01*
X761453Y26213D01*
X761457Y26208D01*
X761451Y26204D01*
X761351Y25004D01*
X761353Y25001D01*
X761351Y25000D01*
X761351Y-700D01*
X761387Y-747D01*
X761392Y-743D01*
X761396Y-749D01*
X762596Y-849D01*
X762599Y-847D01*
X762600Y-849D01*
X864100Y-849D01*
X864147Y-813D01*
G37*
G36*
X989619Y-835D02*
X989619Y-835D01*
X989632Y-837D01*
X990332Y-237D01*
X990335Y-224D01*
X990337Y-222D01*
X990336Y-221D01*
X990338Y-208D01*
X990349Y-200D01*
X990349Y25600D01*
X990331Y25624D01*
X990332Y25637D01*
X989632Y26237D01*
X989608Y26239D01*
X989600Y26249D01*
X889300Y26249D01*
X889253Y26213D01*
X889258Y26206D01*
X889253Y26202D01*
X889251Y26200D01*
X889251Y-800D01*
X889287Y-847D01*
X889294Y-842D01*
X889300Y-849D01*
X989600Y-849D01*
X989619Y-835D01*
G37*
G36*
X208627Y166827D02*
X208627Y166827D01*
X208623Y166832D01*
X208629Y166836D01*
X208729Y168136D01*
X208728Y168139D01*
X208729Y168140D01*
X208729Y193840D01*
X208693Y193887D01*
X208686Y193882D01*
X208680Y193889D01*
X132980Y193889D01*
X132968Y193880D01*
X132953Y193881D01*
X132952Y193868D01*
X132936Y193856D01*
X132912Y193877D01*
X132888Y193879D01*
X132880Y193889D01*
X126180Y193889D01*
X126133Y193853D01*
X126138Y193846D01*
X126133Y193842D01*
X126131Y193840D01*
X126131Y166840D01*
X126167Y166793D01*
X126174Y166798D01*
X126180Y166791D01*
X208580Y166791D01*
X208627Y166827D01*
G37*
G36*
X534801Y314453D02*
X534801Y314453D01*
X534803Y314451D01*
X538303Y314651D01*
X538307Y314655D01*
X538311Y314652D01*
X541511Y315352D01*
X541514Y315356D01*
X541518Y315354D01*
X544618Y316554D01*
X544620Y316558D01*
X544624Y316557D01*
X547524Y318157D01*
X547526Y318162D01*
X547530Y318161D01*
X550230Y320261D01*
X550232Y320266D01*
X550236Y320266D01*
X552636Y322766D01*
X552636Y322770D01*
X552639Y322770D01*
X554739Y325470D01*
X554739Y325475D01*
X554743Y325476D01*
X556443Y328476D01*
X556442Y328482D01*
X556446Y328483D01*
X557546Y331483D01*
X557545Y331488D01*
X557548Y331490D01*
X558248Y334790D01*
X558246Y334794D01*
X558249Y334796D01*
X558549Y338196D01*
X558546Y338200D01*
X558549Y338202D01*
X558449Y340402D01*
X558446Y340406D01*
X558448Y340409D01*
X557848Y343709D01*
X557845Y343712D01*
X557847Y343715D01*
X556847Y346815D01*
X556842Y346818D01*
X556844Y346822D01*
X555344Y349822D01*
X555340Y349824D01*
X555341Y349828D01*
X553441Y352628D01*
X553436Y352629D01*
X553436Y352633D01*
X551136Y355133D01*
X551132Y355134D01*
X551132Y355138D01*
X548632Y357238D01*
X548625Y357238D01*
X548624Y357243D01*
X545624Y358943D01*
X545620Y358942D01*
X545619Y358945D01*
X542519Y360245D01*
X542513Y360244D01*
X542512Y360248D01*
X539212Y361048D01*
X539209Y361047D01*
X539207Y361049D01*
X535907Y361549D01*
X535902Y361546D01*
X535900Y361549D01*
X532400Y361549D01*
X532396Y361547D01*
X532394Y361549D01*
X528994Y361149D01*
X528990Y361145D01*
X528987Y361147D01*
X525787Y360247D01*
X525784Y360243D01*
X525780Y360245D01*
X522780Y358945D01*
X522778Y358941D01*
X522775Y358943D01*
X519875Y357243D01*
X519873Y357237D01*
X519869Y357238D01*
X517169Y355038D01*
X517168Y355033D01*
X517164Y355033D01*
X514764Y352433D01*
X514763Y352428D01*
X514760Y352428D01*
X512860Y349728D01*
X512860Y349723D01*
X512856Y349722D01*
X511356Y346722D01*
X511357Y346716D01*
X511353Y346715D01*
X510353Y343615D01*
X510355Y343610D01*
X510352Y343609D01*
X509752Y340309D01*
X509754Y340304D01*
X509751Y340301D01*
X509651Y336801D01*
X509654Y336797D01*
X509651Y336794D01*
X510051Y333394D01*
X510054Y333391D01*
X510052Y333388D01*
X510852Y330188D01*
X510858Y330184D01*
X510855Y330179D01*
X512255Y327179D01*
X512260Y327177D01*
X512259Y327173D01*
X514059Y324373D01*
X514064Y324371D01*
X514063Y324367D01*
X516363Y321767D01*
X516368Y321766D01*
X516367Y321763D01*
X518967Y319463D01*
X518973Y319463D01*
X518973Y319459D01*
X521773Y317659D01*
X521777Y317659D01*
X521778Y317656D01*
X524778Y316156D01*
X524784Y316157D01*
X524785Y316153D01*
X527885Y315153D01*
X527890Y315155D01*
X527891Y315152D01*
X531291Y314552D01*
X531296Y314554D01*
X531299Y314551D01*
X534799Y314451D01*
X534801Y314453D01*
G37*
G36*
X470098Y441977D02*
X470098Y441977D01*
X470228Y441982D01*
X470321Y442003D01*
X470416Y442014D01*
X470541Y442051D01*
X470668Y442080D01*
X470756Y442116D01*
X470847Y442144D01*
X470963Y442203D01*
X471083Y442253D01*
X471164Y442305D01*
X471249Y442348D01*
X471352Y442427D01*
X471461Y442498D01*
X471559Y442584D01*
X471607Y442620D01*
X471638Y442653D01*
X471696Y442704D01*
X497096Y468104D01*
X497180Y468206D01*
X497262Y468290D01*
X497280Y468316D01*
X497313Y468352D01*
X497345Y468403D01*
X497384Y468450D01*
X497462Y468586D01*
X497514Y468663D01*
X497522Y468681D01*
X497554Y468731D01*
X497578Y468788D01*
X497608Y468841D01*
X497663Y468996D01*
X497680Y469038D01*
X497696Y469075D01*
X497698Y469082D01*
X497725Y469148D01*
X497738Y469208D01*
X497759Y469265D01*
X497785Y469427D01*
X497820Y469588D01*
X497825Y469665D01*
X497832Y469709D01*
X497831Y469770D01*
X497839Y469900D01*
X497839Y520700D01*
X497837Y520725D01*
X497838Y520747D01*
X497828Y520838D01*
X497826Y520960D01*
X497808Y521053D01*
X497799Y521149D01*
X497765Y521274D01*
X497740Y521402D01*
X497706Y521491D01*
X497681Y521583D01*
X497625Y521700D01*
X497578Y521822D01*
X497528Y521903D01*
X497487Y521990D01*
X497412Y522095D01*
X497344Y522206D01*
X497281Y522278D01*
X497225Y522356D01*
X497132Y522446D01*
X497046Y522544D01*
X496971Y522603D01*
X496903Y522670D01*
X496795Y522743D01*
X496693Y522823D01*
X496609Y522868D01*
X496530Y522922D01*
X496411Y522974D01*
X496296Y523036D01*
X496205Y523065D01*
X496118Y523104D01*
X495991Y523135D01*
X495868Y523175D01*
X495773Y523188D01*
X495680Y523211D01*
X495551Y523219D01*
X495422Y523236D01*
X495326Y523232D01*
X495231Y523238D01*
X495102Y523223D01*
X494972Y523218D01*
X494879Y523197D01*
X494784Y523186D01*
X494659Y523149D01*
X494532Y523120D01*
X494444Y523084D01*
X494353Y523056D01*
X494237Y522997D01*
X494117Y522947D01*
X494036Y522895D01*
X493951Y522852D01*
X493848Y522773D01*
X493739Y522702D01*
X493643Y522618D01*
X493622Y522603D01*
X493618Y522599D01*
X493593Y522580D01*
X493562Y522547D01*
X493504Y522496D01*
X468104Y497096D01*
X467999Y496969D01*
X467888Y496848D01*
X467855Y496797D01*
X467816Y496750D01*
X467734Y496607D01*
X467646Y496469D01*
X467622Y496412D01*
X467592Y496359D01*
X467537Y496204D01*
X467475Y496052D01*
X467462Y495992D01*
X467441Y495935D01*
X467415Y495773D01*
X467407Y495737D01*
X467389Y495665D01*
X467389Y495652D01*
X467380Y495612D01*
X467375Y495535D01*
X467368Y495491D01*
X467369Y495430D01*
X467361Y495300D01*
X467361Y444500D01*
X467372Y444371D01*
X467374Y444240D01*
X467392Y444147D01*
X467401Y444052D01*
X467435Y443926D01*
X467460Y443798D01*
X467494Y443709D01*
X467519Y443617D01*
X467575Y443500D01*
X467622Y443378D01*
X467672Y443297D01*
X467713Y443211D01*
X467788Y443105D01*
X467856Y442994D01*
X467919Y442922D01*
X467975Y442844D01*
X468068Y442754D01*
X468154Y442656D01*
X468229Y442597D01*
X468297Y442530D01*
X468405Y442457D01*
X468507Y442377D01*
X468591Y442332D01*
X468670Y442278D01*
X468789Y442226D01*
X468904Y442164D01*
X468995Y442135D01*
X469082Y442096D01*
X469209Y442065D01*
X469332Y442025D01*
X469427Y442012D01*
X469520Y441989D01*
X469649Y441981D01*
X469778Y441964D01*
X469874Y441968D01*
X469969Y441962D01*
X470098Y441977D01*
G37*
G36*
X470098Y530877D02*
X470098Y530877D01*
X470228Y530882D01*
X470321Y530903D01*
X470416Y530914D01*
X470541Y530951D01*
X470668Y530980D01*
X470756Y531016D01*
X470847Y531044D01*
X470963Y531103D01*
X471083Y531153D01*
X471164Y531205D01*
X471249Y531248D01*
X471352Y531327D01*
X471461Y531398D01*
X471559Y531484D01*
X471607Y531520D01*
X471638Y531553D01*
X471696Y531604D01*
X497096Y557004D01*
X497180Y557106D01*
X497262Y557190D01*
X497280Y557216D01*
X497313Y557252D01*
X497345Y557303D01*
X497384Y557350D01*
X497462Y557486D01*
X497514Y557563D01*
X497522Y557581D01*
X497554Y557631D01*
X497578Y557688D01*
X497608Y557741D01*
X497663Y557896D01*
X497680Y557938D01*
X497696Y557975D01*
X497698Y557982D01*
X497725Y558048D01*
X497738Y558108D01*
X497759Y558165D01*
X497785Y558327D01*
X497820Y558488D01*
X497825Y558565D01*
X497832Y558609D01*
X497831Y558670D01*
X497839Y558800D01*
X497839Y609600D01*
X497837Y609625D01*
X497838Y609647D01*
X497828Y609738D01*
X497826Y609860D01*
X497808Y609953D01*
X497799Y610049D01*
X497765Y610174D01*
X497740Y610302D01*
X497706Y610391D01*
X497681Y610483D01*
X497625Y610600D01*
X497578Y610722D01*
X497528Y610803D01*
X497487Y610890D01*
X497412Y610995D01*
X497344Y611106D01*
X497281Y611178D01*
X497225Y611256D01*
X497132Y611346D01*
X497046Y611444D01*
X496971Y611503D01*
X496903Y611570D01*
X496795Y611643D01*
X496693Y611723D01*
X496609Y611768D01*
X496530Y611822D01*
X496411Y611874D01*
X496296Y611936D01*
X496205Y611965D01*
X496118Y612004D01*
X495991Y612035D01*
X495868Y612075D01*
X495773Y612088D01*
X495680Y612111D01*
X495551Y612119D01*
X495422Y612136D01*
X495326Y612132D01*
X495231Y612138D01*
X495102Y612123D01*
X494972Y612118D01*
X494879Y612097D01*
X494784Y612086D01*
X494659Y612049D01*
X494532Y612020D01*
X494444Y611984D01*
X494353Y611956D01*
X494237Y611897D01*
X494117Y611847D01*
X494036Y611795D01*
X493951Y611752D01*
X493848Y611673D01*
X493739Y611602D01*
X493643Y611518D01*
X493622Y611503D01*
X493618Y611499D01*
X493593Y611480D01*
X493562Y611447D01*
X493504Y611396D01*
X468104Y585996D01*
X467999Y585869D01*
X467888Y585748D01*
X467855Y585697D01*
X467816Y585650D01*
X467734Y585507D01*
X467646Y585369D01*
X467622Y585312D01*
X467592Y585259D01*
X467537Y585104D01*
X467475Y584952D01*
X467462Y584892D01*
X467441Y584835D01*
X467415Y584673D01*
X467407Y584637D01*
X467389Y584565D01*
X467389Y584552D01*
X467380Y584512D01*
X467375Y584435D01*
X467368Y584391D01*
X467369Y584330D01*
X467361Y584200D01*
X467361Y533400D01*
X467372Y533271D01*
X467374Y533140D01*
X467392Y533047D01*
X467401Y532952D01*
X467435Y532826D01*
X467460Y532698D01*
X467494Y532609D01*
X467519Y532517D01*
X467575Y532400D01*
X467622Y532278D01*
X467672Y532197D01*
X467713Y532111D01*
X467788Y532005D01*
X467856Y531894D01*
X467919Y531822D01*
X467975Y531744D01*
X468068Y531654D01*
X468154Y531556D01*
X468229Y531497D01*
X468297Y531430D01*
X468405Y531357D01*
X468507Y531277D01*
X468591Y531232D01*
X468670Y531178D01*
X468789Y531126D01*
X468904Y531064D01*
X468995Y531035D01*
X469082Y530996D01*
X469209Y530965D01*
X469332Y530925D01*
X469427Y530912D01*
X469520Y530889D01*
X469649Y530881D01*
X469778Y530864D01*
X469874Y530868D01*
X469969Y530862D01*
X470098Y530877D01*
G37*
G36*
X571698Y73677D02*
X571698Y73677D01*
X571828Y73682D01*
X571921Y73703D01*
X572016Y73714D01*
X572141Y73751D01*
X572268Y73780D01*
X572356Y73816D01*
X572447Y73844D01*
X572563Y73903D01*
X572683Y73953D01*
X572764Y74005D01*
X572849Y74048D01*
X572952Y74127D01*
X573061Y74198D01*
X573159Y74284D01*
X573207Y74320D01*
X573238Y74353D01*
X573296Y74404D01*
X598696Y99804D01*
X598780Y99906D01*
X598862Y99990D01*
X598880Y100016D01*
X598913Y100052D01*
X598945Y100103D01*
X598984Y100150D01*
X599062Y100286D01*
X599114Y100363D01*
X599122Y100381D01*
X599154Y100431D01*
X599178Y100488D01*
X599208Y100541D01*
X599263Y100696D01*
X599280Y100738D01*
X599296Y100775D01*
X599298Y100782D01*
X599325Y100848D01*
X599338Y100908D01*
X599359Y100965D01*
X599385Y101127D01*
X599420Y101288D01*
X599425Y101365D01*
X599432Y101409D01*
X599431Y101470D01*
X599439Y101600D01*
X599439Y152400D01*
X599437Y152425D01*
X599438Y152447D01*
X599428Y152538D01*
X599426Y152660D01*
X599408Y152753D01*
X599399Y152849D01*
X599365Y152974D01*
X599340Y153102D01*
X599306Y153191D01*
X599281Y153283D01*
X599225Y153400D01*
X599178Y153522D01*
X599128Y153603D01*
X599087Y153690D01*
X599012Y153795D01*
X598944Y153906D01*
X598881Y153978D01*
X598825Y154056D01*
X598732Y154146D01*
X598646Y154244D01*
X598571Y154303D01*
X598503Y154370D01*
X598395Y154443D01*
X598293Y154523D01*
X598209Y154568D01*
X598130Y154622D01*
X598011Y154674D01*
X597896Y154736D01*
X597805Y154765D01*
X597718Y154804D01*
X597591Y154835D01*
X597468Y154875D01*
X597373Y154888D01*
X597280Y154911D01*
X597151Y154919D01*
X597022Y154936D01*
X596926Y154932D01*
X596831Y154938D01*
X596702Y154923D01*
X596572Y154918D01*
X596479Y154897D01*
X596384Y154886D01*
X596259Y154849D01*
X596132Y154820D01*
X596044Y154784D01*
X595953Y154756D01*
X595837Y154697D01*
X595717Y154647D01*
X595636Y154595D01*
X595551Y154552D01*
X595448Y154473D01*
X595339Y154402D01*
X595243Y154318D01*
X595222Y154303D01*
X595218Y154299D01*
X595193Y154280D01*
X595162Y154247D01*
X595104Y154196D01*
X569704Y128796D01*
X569599Y128669D01*
X569488Y128548D01*
X569455Y128497D01*
X569416Y128450D01*
X569334Y128307D01*
X569246Y128169D01*
X569222Y128112D01*
X569192Y128059D01*
X569137Y127904D01*
X569075Y127752D01*
X569062Y127692D01*
X569041Y127635D01*
X569015Y127473D01*
X569007Y127437D01*
X568989Y127365D01*
X568989Y127352D01*
X568980Y127312D01*
X568975Y127235D01*
X568968Y127191D01*
X568969Y127130D01*
X568961Y127000D01*
X568961Y76200D01*
X568972Y76071D01*
X568974Y75940D01*
X568992Y75847D01*
X569001Y75752D01*
X569035Y75626D01*
X569060Y75498D01*
X569094Y75409D01*
X569119Y75317D01*
X569175Y75200D01*
X569222Y75078D01*
X569272Y74997D01*
X569313Y74911D01*
X569388Y74805D01*
X569456Y74694D01*
X569519Y74622D01*
X569575Y74544D01*
X569668Y74454D01*
X569754Y74356D01*
X569829Y74297D01*
X569897Y74230D01*
X570005Y74157D01*
X570107Y74077D01*
X570191Y74032D01*
X570270Y73978D01*
X570389Y73926D01*
X570504Y73864D01*
X570595Y73835D01*
X570682Y73796D01*
X570809Y73765D01*
X570932Y73725D01*
X571027Y73712D01*
X571120Y73689D01*
X571249Y73681D01*
X571378Y73664D01*
X571474Y73668D01*
X571569Y73662D01*
X571698Y73677D01*
G37*
G36*
X571698Y518177D02*
X571698Y518177D01*
X571828Y518182D01*
X571921Y518203D01*
X572016Y518214D01*
X572141Y518251D01*
X572268Y518280D01*
X572356Y518316D01*
X572447Y518344D01*
X572563Y518403D01*
X572683Y518453D01*
X572764Y518505D01*
X572849Y518548D01*
X572952Y518627D01*
X573061Y518698D01*
X573159Y518784D01*
X573207Y518820D01*
X573238Y518853D01*
X573296Y518904D01*
X598696Y544304D01*
X598780Y544406D01*
X598862Y544490D01*
X598880Y544516D01*
X598913Y544552D01*
X598945Y544603D01*
X598984Y544650D01*
X599062Y544786D01*
X599114Y544863D01*
X599122Y544881D01*
X599154Y544931D01*
X599178Y544988D01*
X599208Y545041D01*
X599263Y545196D01*
X599280Y545238D01*
X599296Y545275D01*
X599298Y545282D01*
X599325Y545348D01*
X599338Y545408D01*
X599359Y545465D01*
X599385Y545627D01*
X599420Y545788D01*
X599425Y545865D01*
X599432Y545909D01*
X599431Y545970D01*
X599439Y546100D01*
X599439Y596900D01*
X599437Y596925D01*
X599438Y596947D01*
X599428Y597038D01*
X599426Y597160D01*
X599408Y597253D01*
X599399Y597349D01*
X599365Y597474D01*
X599340Y597602D01*
X599306Y597691D01*
X599281Y597783D01*
X599225Y597900D01*
X599178Y598022D01*
X599128Y598103D01*
X599087Y598190D01*
X599012Y598295D01*
X598944Y598406D01*
X598881Y598478D01*
X598825Y598556D01*
X598732Y598646D01*
X598646Y598744D01*
X598571Y598803D01*
X598503Y598870D01*
X598395Y598943D01*
X598293Y599023D01*
X598209Y599068D01*
X598130Y599122D01*
X598011Y599174D01*
X597896Y599236D01*
X597805Y599265D01*
X597718Y599304D01*
X597591Y599335D01*
X597468Y599375D01*
X597373Y599388D01*
X597280Y599411D01*
X597151Y599419D01*
X597022Y599436D01*
X596926Y599432D01*
X596831Y599438D01*
X596702Y599423D01*
X596572Y599418D01*
X596479Y599397D01*
X596384Y599386D01*
X596259Y599349D01*
X596132Y599320D01*
X596044Y599284D01*
X595953Y599256D01*
X595837Y599197D01*
X595717Y599147D01*
X595636Y599095D01*
X595551Y599052D01*
X595448Y598973D01*
X595339Y598902D01*
X595243Y598818D01*
X595222Y598803D01*
X595218Y598799D01*
X595193Y598780D01*
X595162Y598747D01*
X595104Y598696D01*
X569704Y573296D01*
X569599Y573169D01*
X569488Y573048D01*
X569455Y572997D01*
X569416Y572950D01*
X569334Y572807D01*
X569246Y572669D01*
X569222Y572612D01*
X569192Y572559D01*
X569137Y572404D01*
X569075Y572252D01*
X569062Y572192D01*
X569041Y572135D01*
X569015Y571973D01*
X569007Y571937D01*
X568989Y571865D01*
X568989Y571852D01*
X568980Y571812D01*
X568975Y571735D01*
X568968Y571691D01*
X568969Y571630D01*
X568961Y571500D01*
X568961Y520700D01*
X568972Y520571D01*
X568974Y520440D01*
X568992Y520347D01*
X569001Y520252D01*
X569035Y520126D01*
X569060Y519998D01*
X569094Y519909D01*
X569119Y519817D01*
X569175Y519700D01*
X569222Y519578D01*
X569272Y519497D01*
X569313Y519411D01*
X569388Y519305D01*
X569456Y519194D01*
X569519Y519122D01*
X569575Y519044D01*
X569668Y518954D01*
X569754Y518856D01*
X569829Y518797D01*
X569897Y518730D01*
X570005Y518657D01*
X570107Y518577D01*
X570191Y518532D01*
X570270Y518478D01*
X570389Y518426D01*
X570504Y518364D01*
X570595Y518335D01*
X570682Y518296D01*
X570809Y518265D01*
X570932Y518225D01*
X571027Y518212D01*
X571120Y518189D01*
X571249Y518181D01*
X571378Y518164D01*
X571474Y518168D01*
X571569Y518162D01*
X571698Y518177D01*
G37*
G36*
X470098Y86377D02*
X470098Y86377D01*
X470228Y86382D01*
X470321Y86403D01*
X470416Y86414D01*
X470541Y86451D01*
X470668Y86480D01*
X470756Y86516D01*
X470847Y86544D01*
X470963Y86603D01*
X471083Y86653D01*
X471164Y86705D01*
X471249Y86748D01*
X471352Y86827D01*
X471461Y86898D01*
X471559Y86984D01*
X471607Y87020D01*
X471638Y87053D01*
X471696Y87104D01*
X497096Y112504D01*
X497180Y112606D01*
X497262Y112690D01*
X497280Y112716D01*
X497313Y112752D01*
X497345Y112803D01*
X497384Y112850D01*
X497462Y112986D01*
X497514Y113063D01*
X497522Y113081D01*
X497554Y113131D01*
X497578Y113188D01*
X497608Y113241D01*
X497663Y113396D01*
X497680Y113438D01*
X497696Y113475D01*
X497698Y113482D01*
X497725Y113548D01*
X497738Y113608D01*
X497759Y113665D01*
X497785Y113827D01*
X497820Y113988D01*
X497825Y114065D01*
X497832Y114109D01*
X497831Y114170D01*
X497839Y114300D01*
X497839Y165100D01*
X497837Y165125D01*
X497838Y165147D01*
X497828Y165238D01*
X497826Y165360D01*
X497808Y165453D01*
X497799Y165549D01*
X497765Y165674D01*
X497740Y165802D01*
X497706Y165891D01*
X497681Y165983D01*
X497625Y166100D01*
X497578Y166222D01*
X497528Y166303D01*
X497487Y166390D01*
X497412Y166495D01*
X497344Y166606D01*
X497281Y166678D01*
X497225Y166756D01*
X497132Y166846D01*
X497046Y166944D01*
X496971Y167003D01*
X496903Y167070D01*
X496795Y167143D01*
X496693Y167223D01*
X496609Y167268D01*
X496530Y167322D01*
X496411Y167374D01*
X496296Y167436D01*
X496205Y167465D01*
X496118Y167504D01*
X495991Y167535D01*
X495868Y167575D01*
X495773Y167588D01*
X495680Y167611D01*
X495551Y167619D01*
X495422Y167636D01*
X495326Y167632D01*
X495231Y167638D01*
X495102Y167623D01*
X494972Y167618D01*
X494879Y167597D01*
X494784Y167586D01*
X494659Y167549D01*
X494532Y167520D01*
X494444Y167484D01*
X494353Y167456D01*
X494237Y167397D01*
X494117Y167347D01*
X494036Y167295D01*
X493951Y167252D01*
X493848Y167173D01*
X493739Y167102D01*
X493643Y167018D01*
X493622Y167003D01*
X493618Y166999D01*
X493593Y166980D01*
X493562Y166947D01*
X493504Y166896D01*
X468104Y141496D01*
X467999Y141369D01*
X467888Y141248D01*
X467855Y141197D01*
X467816Y141150D01*
X467734Y141007D01*
X467646Y140869D01*
X467622Y140812D01*
X467592Y140759D01*
X467537Y140604D01*
X467475Y140452D01*
X467462Y140392D01*
X467441Y140335D01*
X467415Y140173D01*
X467407Y140137D01*
X467389Y140065D01*
X467389Y140052D01*
X467380Y140012D01*
X467375Y139935D01*
X467368Y139891D01*
X467369Y139830D01*
X467361Y139700D01*
X467361Y88900D01*
X467372Y88771D01*
X467374Y88640D01*
X467392Y88547D01*
X467401Y88452D01*
X467435Y88326D01*
X467460Y88198D01*
X467494Y88109D01*
X467519Y88017D01*
X467575Y87900D01*
X467622Y87778D01*
X467672Y87697D01*
X467713Y87611D01*
X467788Y87505D01*
X467856Y87394D01*
X467919Y87322D01*
X467975Y87244D01*
X468068Y87154D01*
X468154Y87056D01*
X468229Y86997D01*
X468297Y86930D01*
X468405Y86857D01*
X468507Y86777D01*
X468591Y86732D01*
X468670Y86678D01*
X468789Y86626D01*
X468904Y86564D01*
X468995Y86535D01*
X469082Y86496D01*
X469209Y86465D01*
X469332Y86425D01*
X469427Y86412D01*
X469520Y86389D01*
X469649Y86381D01*
X469778Y86364D01*
X469874Y86368D01*
X469969Y86362D01*
X470098Y86377D01*
G37*
G36*
X571698Y429277D02*
X571698Y429277D01*
X571828Y429282D01*
X571921Y429303D01*
X572016Y429314D01*
X572141Y429351D01*
X572268Y429380D01*
X572356Y429416D01*
X572447Y429444D01*
X572563Y429503D01*
X572683Y429553D01*
X572764Y429605D01*
X572849Y429648D01*
X572952Y429727D01*
X573061Y429798D01*
X573159Y429884D01*
X573207Y429920D01*
X573238Y429953D01*
X573296Y430004D01*
X598696Y455404D01*
X598780Y455506D01*
X598862Y455590D01*
X598880Y455616D01*
X598913Y455652D01*
X598945Y455703D01*
X598984Y455750D01*
X599062Y455886D01*
X599114Y455963D01*
X599122Y455981D01*
X599154Y456031D01*
X599178Y456088D01*
X599208Y456141D01*
X599263Y456296D01*
X599280Y456338D01*
X599296Y456375D01*
X599298Y456382D01*
X599325Y456448D01*
X599338Y456508D01*
X599359Y456565D01*
X599385Y456727D01*
X599420Y456888D01*
X599425Y456965D01*
X599432Y457009D01*
X599431Y457070D01*
X599439Y457200D01*
X599439Y508000D01*
X599437Y508025D01*
X599438Y508047D01*
X599428Y508138D01*
X599426Y508260D01*
X599408Y508353D01*
X599399Y508449D01*
X599365Y508574D01*
X599340Y508702D01*
X599306Y508791D01*
X599281Y508883D01*
X599225Y509000D01*
X599178Y509122D01*
X599128Y509203D01*
X599087Y509290D01*
X599012Y509395D01*
X598944Y509506D01*
X598881Y509578D01*
X598825Y509656D01*
X598732Y509746D01*
X598646Y509844D01*
X598571Y509903D01*
X598503Y509970D01*
X598395Y510043D01*
X598293Y510123D01*
X598209Y510168D01*
X598130Y510222D01*
X598011Y510274D01*
X597896Y510336D01*
X597805Y510365D01*
X597718Y510404D01*
X597591Y510435D01*
X597468Y510475D01*
X597373Y510488D01*
X597280Y510511D01*
X597151Y510519D01*
X597022Y510536D01*
X596926Y510532D01*
X596831Y510538D01*
X596702Y510523D01*
X596572Y510518D01*
X596479Y510497D01*
X596384Y510486D01*
X596259Y510449D01*
X596132Y510420D01*
X596044Y510384D01*
X595953Y510356D01*
X595837Y510297D01*
X595717Y510247D01*
X595636Y510195D01*
X595551Y510152D01*
X595448Y510073D01*
X595339Y510002D01*
X595243Y509918D01*
X595222Y509903D01*
X595218Y509899D01*
X595193Y509880D01*
X595162Y509847D01*
X595104Y509796D01*
X569704Y484396D01*
X569599Y484269D01*
X569488Y484148D01*
X569455Y484097D01*
X569416Y484050D01*
X569334Y483907D01*
X569246Y483769D01*
X569222Y483712D01*
X569192Y483659D01*
X569137Y483504D01*
X569075Y483352D01*
X569062Y483292D01*
X569041Y483235D01*
X569015Y483073D01*
X569007Y483037D01*
X568989Y482965D01*
X568989Y482952D01*
X568980Y482912D01*
X568975Y482835D01*
X568968Y482791D01*
X568969Y482730D01*
X568961Y482600D01*
X568961Y431800D01*
X568972Y431671D01*
X568974Y431540D01*
X568992Y431447D01*
X569001Y431352D01*
X569035Y431226D01*
X569060Y431098D01*
X569094Y431009D01*
X569119Y430917D01*
X569175Y430800D01*
X569222Y430678D01*
X569272Y430597D01*
X569313Y430511D01*
X569388Y430405D01*
X569456Y430294D01*
X569519Y430222D01*
X569575Y430144D01*
X569668Y430054D01*
X569754Y429956D01*
X569829Y429897D01*
X569897Y429830D01*
X570005Y429757D01*
X570107Y429677D01*
X570191Y429632D01*
X570270Y429578D01*
X570389Y429526D01*
X570504Y429464D01*
X570595Y429435D01*
X570682Y429396D01*
X570809Y429365D01*
X570932Y429325D01*
X571027Y429312D01*
X571120Y429289D01*
X571249Y429281D01*
X571378Y429264D01*
X571474Y429268D01*
X571569Y429262D01*
X571698Y429277D01*
G37*
G36*
X571698Y340377D02*
X571698Y340377D01*
X571828Y340382D01*
X571921Y340403D01*
X572016Y340414D01*
X572141Y340451D01*
X572268Y340480D01*
X572356Y340516D01*
X572447Y340544D01*
X572563Y340603D01*
X572683Y340653D01*
X572764Y340705D01*
X572849Y340748D01*
X572952Y340827D01*
X573061Y340898D01*
X573159Y340984D01*
X573207Y341020D01*
X573238Y341053D01*
X573296Y341104D01*
X598696Y366504D01*
X598780Y366606D01*
X598862Y366690D01*
X598880Y366716D01*
X598913Y366752D01*
X598945Y366803D01*
X598984Y366850D01*
X599062Y366986D01*
X599114Y367063D01*
X599122Y367081D01*
X599154Y367131D01*
X599178Y367188D01*
X599208Y367241D01*
X599263Y367396D01*
X599280Y367438D01*
X599296Y367475D01*
X599298Y367482D01*
X599325Y367548D01*
X599338Y367608D01*
X599359Y367665D01*
X599385Y367827D01*
X599420Y367988D01*
X599425Y368065D01*
X599432Y368109D01*
X599431Y368170D01*
X599439Y368300D01*
X599439Y419100D01*
X599437Y419125D01*
X599438Y419147D01*
X599428Y419238D01*
X599426Y419360D01*
X599408Y419453D01*
X599399Y419549D01*
X599365Y419674D01*
X599340Y419802D01*
X599306Y419891D01*
X599281Y419983D01*
X599225Y420100D01*
X599178Y420222D01*
X599128Y420303D01*
X599087Y420390D01*
X599012Y420495D01*
X598944Y420606D01*
X598881Y420678D01*
X598825Y420756D01*
X598732Y420846D01*
X598646Y420944D01*
X598571Y421003D01*
X598503Y421070D01*
X598395Y421143D01*
X598293Y421223D01*
X598209Y421268D01*
X598130Y421322D01*
X598011Y421374D01*
X597896Y421436D01*
X597805Y421465D01*
X597718Y421504D01*
X597591Y421535D01*
X597468Y421575D01*
X597373Y421588D01*
X597280Y421611D01*
X597151Y421619D01*
X597022Y421636D01*
X596926Y421632D01*
X596831Y421638D01*
X596702Y421623D01*
X596572Y421618D01*
X596479Y421597D01*
X596384Y421586D01*
X596259Y421549D01*
X596132Y421520D01*
X596044Y421484D01*
X595953Y421456D01*
X595837Y421397D01*
X595717Y421347D01*
X595636Y421295D01*
X595551Y421252D01*
X595448Y421173D01*
X595339Y421102D01*
X595243Y421018D01*
X595222Y421003D01*
X595218Y420999D01*
X595193Y420980D01*
X595162Y420947D01*
X595104Y420896D01*
X569704Y395496D01*
X569599Y395369D01*
X569488Y395248D01*
X569455Y395197D01*
X569416Y395150D01*
X569334Y395007D01*
X569246Y394869D01*
X569222Y394812D01*
X569192Y394759D01*
X569137Y394604D01*
X569075Y394452D01*
X569062Y394392D01*
X569041Y394335D01*
X569015Y394173D01*
X569007Y394137D01*
X568989Y394065D01*
X568989Y394052D01*
X568980Y394012D01*
X568975Y393935D01*
X568968Y393891D01*
X568969Y393830D01*
X568961Y393700D01*
X568961Y342900D01*
X568972Y342771D01*
X568974Y342640D01*
X568992Y342547D01*
X569001Y342452D01*
X569035Y342326D01*
X569060Y342198D01*
X569094Y342109D01*
X569119Y342017D01*
X569175Y341900D01*
X569222Y341778D01*
X569272Y341697D01*
X569313Y341611D01*
X569388Y341505D01*
X569456Y341394D01*
X569519Y341322D01*
X569575Y341244D01*
X569668Y341154D01*
X569754Y341056D01*
X569829Y340997D01*
X569897Y340930D01*
X570005Y340857D01*
X570107Y340777D01*
X570191Y340732D01*
X570270Y340678D01*
X570389Y340626D01*
X570504Y340564D01*
X570595Y340535D01*
X570682Y340496D01*
X570809Y340465D01*
X570932Y340425D01*
X571027Y340412D01*
X571120Y340389D01*
X571249Y340381D01*
X571378Y340364D01*
X571474Y340368D01*
X571569Y340362D01*
X571698Y340377D01*
G37*
G36*
X571698Y162577D02*
X571698Y162577D01*
X571828Y162582D01*
X571921Y162603D01*
X572016Y162614D01*
X572141Y162651D01*
X572268Y162680D01*
X572356Y162716D01*
X572447Y162744D01*
X572563Y162803D01*
X572683Y162853D01*
X572764Y162905D01*
X572849Y162948D01*
X572952Y163027D01*
X573061Y163098D01*
X573159Y163184D01*
X573207Y163220D01*
X573238Y163253D01*
X573296Y163304D01*
X598696Y188704D01*
X598780Y188806D01*
X598862Y188890D01*
X598880Y188916D01*
X598913Y188952D01*
X598945Y189003D01*
X598984Y189050D01*
X599062Y189186D01*
X599114Y189263D01*
X599122Y189281D01*
X599154Y189331D01*
X599178Y189388D01*
X599208Y189441D01*
X599263Y189596D01*
X599280Y189638D01*
X599296Y189675D01*
X599298Y189682D01*
X599325Y189748D01*
X599338Y189808D01*
X599359Y189865D01*
X599385Y190027D01*
X599420Y190188D01*
X599425Y190265D01*
X599432Y190309D01*
X599431Y190370D01*
X599439Y190500D01*
X599439Y241300D01*
X599437Y241325D01*
X599438Y241347D01*
X599428Y241438D01*
X599426Y241560D01*
X599408Y241653D01*
X599399Y241749D01*
X599365Y241874D01*
X599340Y242002D01*
X599306Y242091D01*
X599281Y242183D01*
X599225Y242300D01*
X599178Y242422D01*
X599128Y242503D01*
X599087Y242590D01*
X599012Y242695D01*
X598944Y242806D01*
X598881Y242878D01*
X598825Y242956D01*
X598732Y243046D01*
X598646Y243144D01*
X598571Y243203D01*
X598503Y243270D01*
X598395Y243343D01*
X598293Y243423D01*
X598209Y243468D01*
X598130Y243522D01*
X598011Y243574D01*
X597896Y243636D01*
X597805Y243665D01*
X597718Y243704D01*
X597591Y243735D01*
X597468Y243775D01*
X597373Y243788D01*
X597280Y243811D01*
X597151Y243819D01*
X597022Y243836D01*
X596926Y243832D01*
X596831Y243838D01*
X596702Y243823D01*
X596572Y243818D01*
X596479Y243797D01*
X596384Y243786D01*
X596259Y243749D01*
X596132Y243720D01*
X596044Y243684D01*
X595953Y243656D01*
X595837Y243597D01*
X595717Y243547D01*
X595636Y243495D01*
X595551Y243452D01*
X595448Y243373D01*
X595339Y243302D01*
X595243Y243218D01*
X595222Y243203D01*
X595218Y243199D01*
X595193Y243180D01*
X595162Y243147D01*
X595104Y243096D01*
X569704Y217696D01*
X569599Y217569D01*
X569488Y217448D01*
X569455Y217397D01*
X569416Y217350D01*
X569334Y217207D01*
X569246Y217069D01*
X569222Y217012D01*
X569192Y216959D01*
X569137Y216804D01*
X569075Y216652D01*
X569062Y216592D01*
X569041Y216535D01*
X569015Y216373D01*
X569007Y216337D01*
X568989Y216265D01*
X568989Y216252D01*
X568980Y216212D01*
X568975Y216135D01*
X568968Y216091D01*
X568969Y216030D01*
X568961Y215900D01*
X568961Y165100D01*
X568972Y164971D01*
X568974Y164840D01*
X568992Y164747D01*
X569001Y164652D01*
X569035Y164526D01*
X569060Y164398D01*
X569094Y164309D01*
X569119Y164217D01*
X569175Y164100D01*
X569222Y163978D01*
X569272Y163897D01*
X569313Y163811D01*
X569388Y163705D01*
X569456Y163594D01*
X569519Y163522D01*
X569575Y163444D01*
X569668Y163354D01*
X569754Y163256D01*
X569829Y163197D01*
X569897Y163130D01*
X570005Y163057D01*
X570107Y162977D01*
X570191Y162932D01*
X570270Y162878D01*
X570389Y162826D01*
X570504Y162764D01*
X570595Y162735D01*
X570682Y162696D01*
X570809Y162665D01*
X570932Y162625D01*
X571027Y162612D01*
X571120Y162589D01*
X571249Y162581D01*
X571378Y162564D01*
X571474Y162568D01*
X571569Y162562D01*
X571698Y162577D01*
G37*
G36*
X571698Y251477D02*
X571698Y251477D01*
X571828Y251482D01*
X571921Y251503D01*
X572016Y251514D01*
X572141Y251551D01*
X572268Y251580D01*
X572356Y251616D01*
X572447Y251644D01*
X572563Y251703D01*
X572683Y251753D01*
X572764Y251805D01*
X572849Y251848D01*
X572952Y251927D01*
X573061Y251998D01*
X573159Y252084D01*
X573207Y252120D01*
X573238Y252153D01*
X573296Y252204D01*
X598696Y277604D01*
X598780Y277706D01*
X598862Y277790D01*
X598880Y277816D01*
X598913Y277852D01*
X598945Y277903D01*
X598984Y277950D01*
X599062Y278086D01*
X599114Y278163D01*
X599122Y278181D01*
X599154Y278231D01*
X599178Y278288D01*
X599208Y278341D01*
X599263Y278496D01*
X599280Y278538D01*
X599296Y278575D01*
X599298Y278582D01*
X599325Y278648D01*
X599338Y278708D01*
X599359Y278765D01*
X599385Y278927D01*
X599420Y279088D01*
X599425Y279165D01*
X599432Y279209D01*
X599431Y279270D01*
X599439Y279400D01*
X599439Y330200D01*
X599437Y330225D01*
X599438Y330247D01*
X599428Y330338D01*
X599426Y330460D01*
X599408Y330553D01*
X599399Y330649D01*
X599365Y330774D01*
X599340Y330902D01*
X599306Y330991D01*
X599281Y331083D01*
X599225Y331200D01*
X599178Y331322D01*
X599128Y331403D01*
X599087Y331490D01*
X599012Y331595D01*
X598944Y331706D01*
X598881Y331778D01*
X598825Y331856D01*
X598732Y331946D01*
X598646Y332044D01*
X598571Y332103D01*
X598503Y332170D01*
X598395Y332243D01*
X598293Y332323D01*
X598209Y332368D01*
X598130Y332422D01*
X598011Y332474D01*
X597896Y332536D01*
X597805Y332565D01*
X597718Y332604D01*
X597591Y332635D01*
X597468Y332675D01*
X597373Y332688D01*
X597280Y332711D01*
X597151Y332719D01*
X597022Y332736D01*
X596926Y332732D01*
X596831Y332738D01*
X596702Y332723D01*
X596572Y332718D01*
X596479Y332697D01*
X596384Y332686D01*
X596259Y332649D01*
X596132Y332620D01*
X596044Y332584D01*
X595953Y332556D01*
X595837Y332497D01*
X595717Y332447D01*
X595636Y332395D01*
X595551Y332352D01*
X595448Y332273D01*
X595339Y332202D01*
X595243Y332118D01*
X595222Y332103D01*
X595218Y332099D01*
X595193Y332080D01*
X595162Y332047D01*
X595104Y331996D01*
X569704Y306596D01*
X569599Y306469D01*
X569488Y306348D01*
X569455Y306297D01*
X569416Y306250D01*
X569334Y306107D01*
X569246Y305969D01*
X569222Y305912D01*
X569192Y305859D01*
X569137Y305704D01*
X569075Y305552D01*
X569062Y305492D01*
X569041Y305435D01*
X569015Y305273D01*
X569007Y305237D01*
X568989Y305165D01*
X568989Y305152D01*
X568980Y305112D01*
X568975Y305035D01*
X568968Y304991D01*
X568969Y304930D01*
X568961Y304800D01*
X568961Y254000D01*
X568972Y253871D01*
X568974Y253740D01*
X568992Y253647D01*
X569001Y253552D01*
X569035Y253426D01*
X569060Y253298D01*
X569094Y253209D01*
X569119Y253117D01*
X569175Y253000D01*
X569222Y252878D01*
X569272Y252797D01*
X569313Y252711D01*
X569388Y252605D01*
X569456Y252494D01*
X569519Y252422D01*
X569575Y252344D01*
X569668Y252254D01*
X569754Y252156D01*
X569829Y252097D01*
X569897Y252030D01*
X570005Y251957D01*
X570107Y251877D01*
X570191Y251832D01*
X570270Y251778D01*
X570389Y251726D01*
X570504Y251664D01*
X570595Y251635D01*
X570682Y251596D01*
X570809Y251565D01*
X570932Y251525D01*
X571027Y251512D01*
X571120Y251489D01*
X571249Y251481D01*
X571378Y251464D01*
X571474Y251468D01*
X571569Y251462D01*
X571698Y251477D01*
G37*
G36*
X470098Y264177D02*
X470098Y264177D01*
X470228Y264182D01*
X470321Y264203D01*
X470416Y264214D01*
X470541Y264251D01*
X470668Y264280D01*
X470756Y264316D01*
X470847Y264344D01*
X470963Y264403D01*
X471083Y264453D01*
X471164Y264505D01*
X471249Y264548D01*
X471352Y264627D01*
X471461Y264698D01*
X471559Y264784D01*
X471607Y264820D01*
X471638Y264853D01*
X471696Y264904D01*
X497096Y290304D01*
X497180Y290406D01*
X497262Y290490D01*
X497280Y290516D01*
X497313Y290552D01*
X497345Y290603D01*
X497384Y290650D01*
X497462Y290786D01*
X497514Y290863D01*
X497522Y290881D01*
X497554Y290931D01*
X497578Y290988D01*
X497608Y291041D01*
X497663Y291196D01*
X497680Y291238D01*
X497696Y291275D01*
X497698Y291282D01*
X497725Y291348D01*
X497738Y291408D01*
X497759Y291465D01*
X497785Y291627D01*
X497820Y291788D01*
X497825Y291865D01*
X497832Y291909D01*
X497831Y291970D01*
X497839Y292100D01*
X497839Y342900D01*
X497837Y342925D01*
X497838Y342947D01*
X497828Y343038D01*
X497826Y343160D01*
X497808Y343253D01*
X497799Y343349D01*
X497765Y343474D01*
X497740Y343602D01*
X497706Y343691D01*
X497681Y343783D01*
X497625Y343900D01*
X497578Y344022D01*
X497528Y344103D01*
X497487Y344190D01*
X497412Y344295D01*
X497344Y344406D01*
X497281Y344478D01*
X497225Y344556D01*
X497132Y344646D01*
X497046Y344744D01*
X496971Y344803D01*
X496903Y344870D01*
X496795Y344943D01*
X496693Y345023D01*
X496609Y345068D01*
X496530Y345122D01*
X496411Y345174D01*
X496296Y345236D01*
X496205Y345265D01*
X496118Y345304D01*
X495991Y345335D01*
X495868Y345375D01*
X495773Y345388D01*
X495680Y345411D01*
X495551Y345419D01*
X495422Y345436D01*
X495326Y345432D01*
X495231Y345438D01*
X495102Y345423D01*
X494972Y345418D01*
X494879Y345397D01*
X494784Y345386D01*
X494659Y345349D01*
X494532Y345320D01*
X494444Y345284D01*
X494353Y345256D01*
X494237Y345197D01*
X494117Y345147D01*
X494036Y345095D01*
X493951Y345052D01*
X493848Y344973D01*
X493739Y344902D01*
X493643Y344818D01*
X493622Y344803D01*
X493618Y344799D01*
X493593Y344780D01*
X493562Y344747D01*
X493504Y344696D01*
X468104Y319296D01*
X467999Y319169D01*
X467888Y319048D01*
X467855Y318997D01*
X467816Y318950D01*
X467734Y318807D01*
X467646Y318669D01*
X467622Y318612D01*
X467592Y318559D01*
X467537Y318404D01*
X467475Y318252D01*
X467462Y318192D01*
X467441Y318135D01*
X467415Y317973D01*
X467407Y317937D01*
X467389Y317865D01*
X467389Y317852D01*
X467380Y317812D01*
X467375Y317735D01*
X467368Y317691D01*
X467369Y317630D01*
X467361Y317500D01*
X467361Y266700D01*
X467372Y266571D01*
X467374Y266440D01*
X467392Y266347D01*
X467401Y266252D01*
X467435Y266126D01*
X467460Y265998D01*
X467494Y265909D01*
X467519Y265817D01*
X467575Y265700D01*
X467622Y265578D01*
X467672Y265497D01*
X467713Y265411D01*
X467788Y265305D01*
X467856Y265194D01*
X467919Y265122D01*
X467975Y265044D01*
X468068Y264954D01*
X468154Y264856D01*
X468229Y264797D01*
X468297Y264730D01*
X468405Y264657D01*
X468507Y264577D01*
X468591Y264532D01*
X468670Y264478D01*
X468789Y264426D01*
X468904Y264364D01*
X468995Y264335D01*
X469082Y264296D01*
X469209Y264265D01*
X469332Y264225D01*
X469427Y264212D01*
X469520Y264189D01*
X469649Y264181D01*
X469778Y264164D01*
X469874Y264168D01*
X469969Y264162D01*
X470098Y264177D01*
G37*
G36*
X470098Y175277D02*
X470098Y175277D01*
X470228Y175282D01*
X470321Y175303D01*
X470416Y175314D01*
X470541Y175351D01*
X470668Y175380D01*
X470756Y175416D01*
X470847Y175444D01*
X470963Y175503D01*
X471083Y175553D01*
X471164Y175605D01*
X471249Y175648D01*
X471352Y175727D01*
X471461Y175798D01*
X471559Y175884D01*
X471607Y175920D01*
X471638Y175953D01*
X471696Y176004D01*
X497096Y201404D01*
X497180Y201506D01*
X497262Y201590D01*
X497280Y201616D01*
X497313Y201652D01*
X497345Y201703D01*
X497384Y201750D01*
X497462Y201886D01*
X497514Y201963D01*
X497522Y201981D01*
X497554Y202031D01*
X497578Y202088D01*
X497608Y202141D01*
X497663Y202296D01*
X497680Y202338D01*
X497696Y202375D01*
X497698Y202382D01*
X497725Y202448D01*
X497738Y202508D01*
X497759Y202565D01*
X497785Y202727D01*
X497820Y202888D01*
X497825Y202965D01*
X497832Y203009D01*
X497831Y203070D01*
X497839Y203200D01*
X497839Y254000D01*
X497837Y254025D01*
X497838Y254047D01*
X497828Y254138D01*
X497826Y254260D01*
X497808Y254353D01*
X497799Y254449D01*
X497765Y254574D01*
X497740Y254702D01*
X497706Y254791D01*
X497681Y254883D01*
X497625Y255000D01*
X497578Y255122D01*
X497528Y255203D01*
X497487Y255290D01*
X497412Y255395D01*
X497344Y255506D01*
X497281Y255578D01*
X497225Y255656D01*
X497132Y255746D01*
X497046Y255844D01*
X496971Y255903D01*
X496903Y255970D01*
X496795Y256043D01*
X496693Y256123D01*
X496609Y256168D01*
X496530Y256222D01*
X496411Y256274D01*
X496296Y256336D01*
X496205Y256365D01*
X496118Y256404D01*
X495991Y256435D01*
X495868Y256475D01*
X495773Y256488D01*
X495680Y256511D01*
X495551Y256519D01*
X495422Y256536D01*
X495326Y256532D01*
X495231Y256538D01*
X495102Y256523D01*
X494972Y256518D01*
X494879Y256497D01*
X494784Y256486D01*
X494659Y256449D01*
X494532Y256420D01*
X494444Y256384D01*
X494353Y256356D01*
X494237Y256297D01*
X494117Y256247D01*
X494036Y256195D01*
X493951Y256152D01*
X493848Y256073D01*
X493739Y256002D01*
X493643Y255918D01*
X493622Y255903D01*
X493618Y255899D01*
X493593Y255880D01*
X493562Y255847D01*
X493504Y255796D01*
X468104Y230396D01*
X467999Y230269D01*
X467888Y230148D01*
X467855Y230097D01*
X467816Y230050D01*
X467734Y229907D01*
X467646Y229769D01*
X467622Y229712D01*
X467592Y229659D01*
X467537Y229504D01*
X467475Y229352D01*
X467462Y229292D01*
X467441Y229235D01*
X467415Y229073D01*
X467407Y229037D01*
X467389Y228965D01*
X467389Y228952D01*
X467380Y228912D01*
X467375Y228835D01*
X467368Y228791D01*
X467369Y228730D01*
X467361Y228600D01*
X467361Y177800D01*
X467372Y177671D01*
X467374Y177540D01*
X467392Y177447D01*
X467401Y177352D01*
X467435Y177226D01*
X467460Y177098D01*
X467494Y177009D01*
X467519Y176917D01*
X467575Y176800D01*
X467622Y176678D01*
X467672Y176597D01*
X467713Y176511D01*
X467788Y176405D01*
X467856Y176294D01*
X467919Y176222D01*
X467975Y176144D01*
X468068Y176054D01*
X468154Y175956D01*
X468229Y175897D01*
X468297Y175830D01*
X468405Y175757D01*
X468507Y175677D01*
X468591Y175632D01*
X468670Y175578D01*
X468789Y175526D01*
X468904Y175464D01*
X468995Y175435D01*
X469082Y175396D01*
X469209Y175365D01*
X469332Y175325D01*
X469427Y175312D01*
X469520Y175289D01*
X469649Y175281D01*
X469778Y175264D01*
X469874Y175268D01*
X469969Y175262D01*
X470098Y175277D01*
G37*
G36*
X470098Y353077D02*
X470098Y353077D01*
X470228Y353082D01*
X470321Y353103D01*
X470416Y353114D01*
X470541Y353151D01*
X470668Y353180D01*
X470756Y353216D01*
X470847Y353244D01*
X470963Y353303D01*
X471083Y353353D01*
X471164Y353405D01*
X471249Y353448D01*
X471352Y353527D01*
X471461Y353598D01*
X471559Y353684D01*
X471607Y353720D01*
X471638Y353753D01*
X471696Y353804D01*
X497096Y379204D01*
X497180Y379306D01*
X497262Y379390D01*
X497280Y379416D01*
X497313Y379452D01*
X497345Y379503D01*
X497384Y379550D01*
X497462Y379686D01*
X497514Y379763D01*
X497522Y379781D01*
X497554Y379831D01*
X497578Y379888D01*
X497608Y379941D01*
X497663Y380096D01*
X497680Y380138D01*
X497696Y380175D01*
X497698Y380182D01*
X497725Y380248D01*
X497738Y380308D01*
X497759Y380365D01*
X497785Y380527D01*
X497820Y380688D01*
X497825Y380765D01*
X497832Y380809D01*
X497831Y380870D01*
X497839Y381000D01*
X497839Y431800D01*
X497837Y431825D01*
X497838Y431847D01*
X497828Y431938D01*
X497826Y432060D01*
X497808Y432153D01*
X497799Y432249D01*
X497765Y432374D01*
X497740Y432502D01*
X497706Y432591D01*
X497681Y432683D01*
X497625Y432800D01*
X497578Y432922D01*
X497528Y433003D01*
X497487Y433090D01*
X497412Y433195D01*
X497344Y433306D01*
X497281Y433378D01*
X497225Y433456D01*
X497132Y433546D01*
X497046Y433644D01*
X496971Y433703D01*
X496903Y433770D01*
X496795Y433843D01*
X496693Y433923D01*
X496609Y433968D01*
X496530Y434022D01*
X496411Y434074D01*
X496296Y434136D01*
X496205Y434165D01*
X496118Y434204D01*
X495991Y434235D01*
X495868Y434275D01*
X495773Y434288D01*
X495680Y434311D01*
X495551Y434319D01*
X495422Y434336D01*
X495326Y434332D01*
X495231Y434338D01*
X495102Y434323D01*
X494972Y434318D01*
X494879Y434297D01*
X494784Y434286D01*
X494659Y434249D01*
X494532Y434220D01*
X494444Y434184D01*
X494353Y434156D01*
X494237Y434097D01*
X494117Y434047D01*
X494036Y433995D01*
X493951Y433952D01*
X493848Y433873D01*
X493739Y433802D01*
X493643Y433718D01*
X493622Y433703D01*
X493618Y433699D01*
X493593Y433680D01*
X493562Y433647D01*
X493504Y433596D01*
X468104Y408196D01*
X467999Y408069D01*
X467888Y407948D01*
X467855Y407897D01*
X467816Y407850D01*
X467734Y407707D01*
X467646Y407569D01*
X467622Y407512D01*
X467592Y407459D01*
X467537Y407304D01*
X467475Y407152D01*
X467462Y407092D01*
X467441Y407035D01*
X467415Y406873D01*
X467407Y406837D01*
X467389Y406765D01*
X467389Y406752D01*
X467380Y406712D01*
X467375Y406635D01*
X467368Y406591D01*
X467369Y406530D01*
X467361Y406400D01*
X467361Y355600D01*
X467372Y355471D01*
X467374Y355340D01*
X467392Y355247D01*
X467401Y355152D01*
X467435Y355026D01*
X467460Y354898D01*
X467494Y354809D01*
X467519Y354717D01*
X467575Y354600D01*
X467622Y354478D01*
X467672Y354397D01*
X467713Y354311D01*
X467788Y354205D01*
X467856Y354094D01*
X467919Y354022D01*
X467975Y353944D01*
X468068Y353854D01*
X468154Y353756D01*
X468229Y353697D01*
X468297Y353630D01*
X468405Y353557D01*
X468507Y353477D01*
X468591Y353432D01*
X468670Y353378D01*
X468789Y353326D01*
X468904Y353264D01*
X468995Y353235D01*
X469082Y353196D01*
X469209Y353165D01*
X469332Y353125D01*
X469427Y353112D01*
X469520Y353089D01*
X469649Y353081D01*
X469778Y353064D01*
X469874Y353068D01*
X469969Y353062D01*
X470098Y353077D01*
G37*
G36*
X571698Y607077D02*
X571698Y607077D01*
X571828Y607082D01*
X571921Y607103D01*
X572016Y607114D01*
X572141Y607151D01*
X572268Y607180D01*
X572356Y607216D01*
X572447Y607244D01*
X572563Y607303D01*
X572683Y607353D01*
X572764Y607405D01*
X572849Y607448D01*
X572952Y607527D01*
X573061Y607598D01*
X573159Y607684D01*
X573207Y607720D01*
X573238Y607753D01*
X573296Y607804D01*
X598696Y633204D01*
X598780Y633306D01*
X598862Y633390D01*
X598880Y633416D01*
X598913Y633452D01*
X598945Y633503D01*
X598984Y633550D01*
X599062Y633686D01*
X599114Y633763D01*
X599122Y633781D01*
X599154Y633831D01*
X599178Y633888D01*
X599208Y633941D01*
X599263Y634096D01*
X599280Y634138D01*
X599296Y634175D01*
X599298Y634182D01*
X599325Y634248D01*
X599338Y634308D01*
X599359Y634365D01*
X599385Y634527D01*
X599420Y634688D01*
X599425Y634765D01*
X599432Y634809D01*
X599431Y634870D01*
X599439Y635000D01*
X599439Y673100D01*
X599437Y673127D01*
X599438Y673150D01*
X599438Y673157D01*
X599438Y673169D01*
X599416Y673358D01*
X599399Y673549D01*
X599390Y673582D01*
X599386Y673616D01*
X599331Y673799D01*
X599281Y673983D01*
X599266Y674014D01*
X599256Y674047D01*
X599169Y674218D01*
X599087Y674390D01*
X599067Y674418D01*
X599052Y674449D01*
X598936Y674601D01*
X598825Y674756D01*
X598800Y674780D01*
X598780Y674807D01*
X598640Y674936D01*
X598503Y675070D01*
X598474Y675089D01*
X598448Y675113D01*
X598287Y675215D01*
X598130Y675322D01*
X598098Y675336D01*
X598069Y675354D01*
X597892Y675427D01*
X597718Y675504D01*
X597684Y675512D01*
X597652Y675525D01*
X597465Y675565D01*
X597280Y675611D01*
X597246Y675613D01*
X597212Y675620D01*
X596900Y675639D01*
X571500Y675639D01*
X571466Y675636D01*
X571431Y675638D01*
X571242Y675616D01*
X571052Y675599D01*
X571018Y675590D01*
X570984Y675586D01*
X570801Y675531D01*
X570617Y675481D01*
X570586Y675466D01*
X570553Y675456D01*
X570382Y675369D01*
X570211Y675287D01*
X570182Y675267D01*
X570151Y675252D01*
X569999Y675136D01*
X569844Y675025D01*
X569820Y675000D01*
X569793Y674980D01*
X569664Y674840D01*
X569530Y674703D01*
X569511Y674674D01*
X569488Y674648D01*
X569385Y674487D01*
X569278Y674330D01*
X569264Y674298D01*
X569246Y674269D01*
X569173Y674092D01*
X569096Y673918D01*
X569088Y673884D01*
X569075Y673852D01*
X569035Y673665D01*
X568989Y673480D01*
X568987Y673446D01*
X568980Y673412D01*
X568961Y673100D01*
X568961Y609600D01*
X568972Y609471D01*
X568974Y609340D01*
X568992Y609247D01*
X569001Y609152D01*
X569035Y609026D01*
X569060Y608898D01*
X569094Y608809D01*
X569119Y608717D01*
X569175Y608600D01*
X569222Y608478D01*
X569272Y608397D01*
X569313Y608311D01*
X569388Y608205D01*
X569456Y608094D01*
X569519Y608022D01*
X569575Y607944D01*
X569668Y607854D01*
X569754Y607756D01*
X569829Y607697D01*
X569897Y607630D01*
X570005Y607557D01*
X570107Y607477D01*
X570191Y607432D01*
X570270Y607378D01*
X570389Y607326D01*
X570504Y607264D01*
X570595Y607235D01*
X570682Y607196D01*
X570809Y607165D01*
X570932Y607125D01*
X571027Y607112D01*
X571120Y607089D01*
X571249Y607081D01*
X571378Y607064D01*
X571474Y607068D01*
X571569Y607062D01*
X571698Y607077D01*
G37*
G36*
X495335Y10164D02*
X495335Y10164D01*
X495369Y10162D01*
X495558Y10184D01*
X495749Y10201D01*
X495782Y10210D01*
X495816Y10214D01*
X495999Y10269D01*
X496183Y10319D01*
X496214Y10334D01*
X496247Y10344D01*
X496418Y10431D01*
X496590Y10513D01*
X496618Y10533D01*
X496649Y10548D01*
X496801Y10664D01*
X496956Y10775D01*
X496980Y10800D01*
X497007Y10820D01*
X497136Y10961D01*
X497270Y11097D01*
X497289Y11126D01*
X497313Y11152D01*
X497415Y11313D01*
X497522Y11470D01*
X497536Y11502D01*
X497554Y11531D01*
X497627Y11708D01*
X497704Y11882D01*
X497712Y11916D01*
X497725Y11948D01*
X497765Y12135D01*
X497811Y12320D01*
X497813Y12354D01*
X497820Y12388D01*
X497839Y12700D01*
X497839Y76200D01*
X497837Y76227D01*
X497838Y76250D01*
X497828Y76343D01*
X497826Y76460D01*
X497808Y76553D01*
X497799Y76649D01*
X497786Y76696D01*
X497786Y76698D01*
X497784Y76707D01*
X497765Y76774D01*
X497740Y76902D01*
X497706Y76991D01*
X497681Y77083D01*
X497625Y77200D01*
X497578Y77322D01*
X497528Y77403D01*
X497487Y77490D01*
X497412Y77595D01*
X497344Y77706D01*
X497281Y77778D01*
X497225Y77856D01*
X497132Y77946D01*
X497046Y78044D01*
X496971Y78103D01*
X496903Y78170D01*
X496795Y78243D01*
X496693Y78323D01*
X496609Y78368D01*
X496530Y78422D01*
X496411Y78474D01*
X496296Y78536D01*
X496205Y78565D01*
X496118Y78604D01*
X495991Y78635D01*
X495868Y78675D01*
X495773Y78688D01*
X495680Y78711D01*
X495551Y78719D01*
X495422Y78736D01*
X495326Y78732D01*
X495231Y78738D01*
X495102Y78723D01*
X494972Y78718D01*
X494879Y78697D01*
X494784Y78686D01*
X494659Y78649D01*
X494532Y78620D01*
X494444Y78584D01*
X494353Y78556D01*
X494237Y78497D01*
X494117Y78447D01*
X494036Y78395D01*
X493951Y78352D01*
X493848Y78273D01*
X493739Y78202D01*
X493649Y78123D01*
X493626Y78107D01*
X493618Y78099D01*
X493593Y78080D01*
X493562Y78047D01*
X493504Y77996D01*
X468104Y52596D01*
X467999Y52469D01*
X467888Y52348D01*
X467855Y52297D01*
X467816Y52250D01*
X467734Y52107D01*
X467646Y51969D01*
X467622Y51912D01*
X467592Y51859D01*
X467537Y51704D01*
X467510Y51638D01*
X467496Y51607D01*
X467495Y51601D01*
X467475Y51552D01*
X467462Y51492D01*
X467441Y51435D01*
X467415Y51273D01*
X467414Y51269D01*
X467389Y51169D01*
X467388Y51150D01*
X467380Y51112D01*
X467375Y51035D01*
X467368Y50991D01*
X467369Y50930D01*
X467361Y50800D01*
X467361Y12700D01*
X467364Y12666D01*
X467362Y12631D01*
X467384Y12442D01*
X467401Y12252D01*
X467410Y12218D01*
X467414Y12184D01*
X467469Y12001D01*
X467519Y11817D01*
X467534Y11786D01*
X467544Y11753D01*
X467631Y11582D01*
X467713Y11411D01*
X467733Y11382D01*
X467748Y11351D01*
X467864Y11199D01*
X467975Y11044D01*
X468000Y11020D01*
X468020Y10993D01*
X468161Y10864D01*
X468297Y10730D01*
X468326Y10711D01*
X468352Y10688D01*
X468513Y10585D01*
X468670Y10478D01*
X468702Y10464D01*
X468731Y10446D01*
X468908Y10373D01*
X469082Y10296D01*
X469116Y10288D01*
X469148Y10275D01*
X469335Y10235D01*
X469520Y10189D01*
X469554Y10187D01*
X469588Y10180D01*
X469900Y10161D01*
X495300Y10161D01*
X495335Y10164D01*
G37*
G36*
X596935Y10164D02*
X596935Y10164D01*
X596969Y10162D01*
X597158Y10184D01*
X597349Y10201D01*
X597382Y10210D01*
X597416Y10214D01*
X597599Y10269D01*
X597783Y10319D01*
X597814Y10334D01*
X597847Y10344D01*
X598018Y10431D01*
X598190Y10513D01*
X598218Y10533D01*
X598249Y10548D01*
X598401Y10664D01*
X598556Y10775D01*
X598580Y10800D01*
X598607Y10820D01*
X598736Y10961D01*
X598870Y11097D01*
X598889Y11126D01*
X598913Y11152D01*
X599015Y11313D01*
X599122Y11470D01*
X599136Y11502D01*
X599154Y11531D01*
X599227Y11708D01*
X599304Y11882D01*
X599312Y11916D01*
X599325Y11948D01*
X599365Y12135D01*
X599411Y12320D01*
X599413Y12354D01*
X599420Y12388D01*
X599439Y12700D01*
X599439Y63500D01*
X599437Y63528D01*
X599438Y63554D01*
X599428Y63647D01*
X599426Y63760D01*
X599408Y63853D01*
X599399Y63949D01*
X599387Y63993D01*
X599386Y64001D01*
X599373Y64045D01*
X599365Y64074D01*
X599340Y64202D01*
X599306Y64291D01*
X599281Y64383D01*
X599225Y64500D01*
X599178Y64622D01*
X599128Y64703D01*
X599087Y64790D01*
X599012Y64895D01*
X598944Y65006D01*
X598881Y65078D01*
X598825Y65156D01*
X598732Y65246D01*
X598646Y65344D01*
X598571Y65403D01*
X598503Y65470D01*
X598395Y65543D01*
X598293Y65623D01*
X598209Y65668D01*
X598130Y65722D01*
X598011Y65774D01*
X597896Y65836D01*
X597805Y65865D01*
X597718Y65904D01*
X597591Y65935D01*
X597468Y65975D01*
X597373Y65988D01*
X597280Y66011D01*
X597151Y66019D01*
X597022Y66036D01*
X596926Y66032D01*
X596831Y66038D01*
X596702Y66023D01*
X596572Y66018D01*
X596479Y65997D01*
X596384Y65986D01*
X596259Y65949D01*
X596132Y65920D01*
X596044Y65884D01*
X595953Y65856D01*
X595837Y65797D01*
X595717Y65747D01*
X595636Y65695D01*
X595551Y65652D01*
X595448Y65573D01*
X595339Y65502D01*
X595255Y65429D01*
X595229Y65410D01*
X595219Y65399D01*
X595193Y65380D01*
X595162Y65347D01*
X595104Y65296D01*
X569704Y39896D01*
X569599Y39769D01*
X569533Y39698D01*
X569530Y39695D01*
X569488Y39648D01*
X569455Y39597D01*
X569416Y39550D01*
X569334Y39407D01*
X569302Y39357D01*
X569278Y39322D01*
X569275Y39315D01*
X569246Y39269D01*
X569222Y39212D01*
X569192Y39159D01*
X569137Y39004D01*
X569131Y38989D01*
X569096Y38910D01*
X569092Y38895D01*
X569075Y38852D01*
X569062Y38792D01*
X569041Y38735D01*
X569016Y38583D01*
X568989Y38473D01*
X568988Y38449D01*
X568980Y38412D01*
X568975Y38335D01*
X568968Y38291D01*
X568969Y38230D01*
X568961Y38100D01*
X568961Y12700D01*
X568964Y12666D01*
X568962Y12631D01*
X568984Y12442D01*
X569001Y12252D01*
X569010Y12218D01*
X569014Y12184D01*
X569069Y12001D01*
X569119Y11817D01*
X569134Y11786D01*
X569144Y11753D01*
X569231Y11582D01*
X569313Y11411D01*
X569333Y11382D01*
X569348Y11351D01*
X569464Y11199D01*
X569575Y11044D01*
X569600Y11020D01*
X569620Y10993D01*
X569761Y10864D01*
X569897Y10730D01*
X569926Y10711D01*
X569952Y10688D01*
X570113Y10585D01*
X570270Y10478D01*
X570302Y10464D01*
X570331Y10446D01*
X570508Y10373D01*
X570682Y10296D01*
X570716Y10288D01*
X570748Y10275D01*
X570935Y10235D01*
X571120Y10189D01*
X571154Y10187D01*
X571188Y10180D01*
X571500Y10161D01*
X596900Y10161D01*
X596935Y10164D01*
G37*
G36*
X470098Y619777D02*
X470098Y619777D01*
X470228Y619782D01*
X470321Y619803D01*
X470416Y619814D01*
X470541Y619851D01*
X470668Y619880D01*
X470756Y619916D01*
X470847Y619944D01*
X470963Y620003D01*
X471083Y620053D01*
X471164Y620105D01*
X471249Y620148D01*
X471352Y620227D01*
X471461Y620298D01*
X471559Y620384D01*
X471607Y620420D01*
X471638Y620453D01*
X471696Y620504D01*
X497096Y645904D01*
X497180Y646006D01*
X497262Y646090D01*
X497280Y646116D01*
X497313Y646152D01*
X497345Y646203D01*
X497384Y646250D01*
X497462Y646386D01*
X497514Y646463D01*
X497522Y646481D01*
X497554Y646531D01*
X497578Y646588D01*
X497608Y646641D01*
X497663Y646796D01*
X497680Y646838D01*
X497696Y646875D01*
X497698Y646882D01*
X497725Y646948D01*
X497738Y647008D01*
X497759Y647065D01*
X497785Y647227D01*
X497820Y647388D01*
X497825Y647465D01*
X497832Y647509D01*
X497831Y647570D01*
X497839Y647700D01*
X497839Y673100D01*
X497837Y673128D01*
X497838Y673154D01*
X497838Y673159D01*
X497838Y673169D01*
X497816Y673358D01*
X497799Y673549D01*
X497790Y673582D01*
X497786Y673616D01*
X497731Y673799D01*
X497681Y673983D01*
X497666Y674014D01*
X497656Y674047D01*
X497569Y674218D01*
X497487Y674390D01*
X497467Y674418D01*
X497452Y674449D01*
X497336Y674601D01*
X497225Y674756D01*
X497200Y674780D01*
X497180Y674807D01*
X497040Y674936D01*
X496903Y675070D01*
X496874Y675089D01*
X496848Y675113D01*
X496687Y675215D01*
X496530Y675322D01*
X496498Y675336D01*
X496469Y675354D01*
X496292Y675427D01*
X496118Y675504D01*
X496084Y675512D01*
X496052Y675525D01*
X495865Y675565D01*
X495680Y675611D01*
X495646Y675613D01*
X495612Y675620D01*
X495300Y675639D01*
X469900Y675639D01*
X469866Y675636D01*
X469831Y675638D01*
X469642Y675616D01*
X469452Y675599D01*
X469418Y675590D01*
X469384Y675586D01*
X469201Y675531D01*
X469017Y675481D01*
X468986Y675466D01*
X468953Y675456D01*
X468782Y675369D01*
X468611Y675287D01*
X468582Y675267D01*
X468551Y675252D01*
X468399Y675136D01*
X468244Y675025D01*
X468220Y675000D01*
X468193Y674980D01*
X468064Y674840D01*
X467930Y674703D01*
X467911Y674674D01*
X467888Y674648D01*
X467785Y674487D01*
X467678Y674330D01*
X467664Y674298D01*
X467646Y674269D01*
X467573Y674092D01*
X467496Y673918D01*
X467488Y673884D01*
X467475Y673852D01*
X467435Y673665D01*
X467389Y673480D01*
X467387Y673446D01*
X467380Y673412D01*
X467361Y673100D01*
X467361Y622300D01*
X467372Y622171D01*
X467374Y622040D01*
X467392Y621947D01*
X467401Y621852D01*
X467435Y621726D01*
X467460Y621598D01*
X467494Y621509D01*
X467519Y621417D01*
X467575Y621300D01*
X467622Y621178D01*
X467672Y621097D01*
X467713Y621011D01*
X467788Y620905D01*
X467856Y620794D01*
X467919Y620722D01*
X467975Y620644D01*
X468068Y620554D01*
X468154Y620456D01*
X468229Y620397D01*
X468297Y620330D01*
X468405Y620257D01*
X468507Y620177D01*
X468591Y620132D01*
X468670Y620078D01*
X468789Y620026D01*
X468904Y619964D01*
X468995Y619935D01*
X469082Y619896D01*
X469209Y619865D01*
X469332Y619825D01*
X469427Y619812D01*
X469520Y619789D01*
X469649Y619781D01*
X469778Y619764D01*
X469874Y619768D01*
X469969Y619762D01*
X470098Y619777D01*
G37*
G36*
X518603Y56651D02*
X518603Y56651D01*
X518620Y56665D01*
X518632Y56663D01*
X520732Y58463D01*
X520737Y58486D01*
X520749Y58492D01*
X521249Y61692D01*
X521246Y61697D01*
X521249Y61700D01*
X521249Y82051D01*
X524598Y82051D01*
X527551Y81755D01*
X527551Y71600D01*
X527551Y71599D01*
X527651Y67899D01*
X527658Y67890D01*
X527654Y67883D01*
X528654Y65183D01*
X528674Y65170D01*
X528676Y65157D01*
X531376Y63657D01*
X531393Y63659D01*
X531400Y63651D01*
X535800Y63651D01*
X535814Y63661D01*
X535824Y63657D01*
X538324Y65057D01*
X538334Y65081D01*
X538347Y65085D01*
X539247Y67985D01*
X539243Y67996D01*
X539249Y68000D01*
X539249Y81657D01*
X542103Y82051D01*
X545457Y82051D01*
X545851Y79197D01*
X545851Y62200D01*
X545853Y62197D01*
X545851Y62196D01*
X546151Y58796D01*
X546167Y58778D01*
X546165Y58765D01*
X548065Y56865D01*
X548088Y56862D01*
X548094Y56851D01*
X552194Y56351D01*
X552204Y56357D01*
X552209Y56352D01*
X555809Y57052D01*
X555829Y57074D01*
X555843Y57076D01*
X557243Y59576D01*
X557242Y59584D01*
X557247Y59588D01*
X557243Y59593D01*
X557249Y59597D01*
X557449Y62897D01*
X557448Y62899D01*
X557449Y62900D01*
X557449Y86700D01*
X557448Y86702D01*
X557449Y86703D01*
X557249Y90503D01*
X557238Y90516D01*
X557242Y90526D01*
X555842Y92826D01*
X555817Y92835D01*
X555812Y92848D01*
X552612Y93648D01*
X552604Y93644D01*
X552600Y93649D01*
X515000Y93649D01*
X514996Y93646D01*
X514994Y93649D01*
X511794Y93249D01*
X511775Y93231D01*
X511762Y93231D01*
X510062Y91131D01*
X510061Y91111D01*
X510051Y91105D01*
X509651Y87105D01*
X509653Y87102D01*
X509651Y87100D01*
X509651Y63400D01*
X509651Y63399D01*
X509751Y59799D01*
X509760Y59788D01*
X509755Y59779D01*
X510855Y57379D01*
X510881Y57366D01*
X510886Y57353D01*
X514286Y56353D01*
X514298Y56357D01*
X514303Y56351D01*
X518603Y56651D01*
G37*
G36*
X533204Y497954D02*
X533204Y497954D01*
X533207Y497951D01*
X536707Y498451D01*
X536722Y498466D01*
X536734Y498464D01*
X538634Y500264D01*
X538638Y500286D01*
X538649Y500292D01*
X539249Y504092D01*
X539246Y504097D01*
X539249Y504100D01*
X539249Y514300D01*
X539244Y514307D01*
X539248Y514312D01*
X538448Y517512D01*
X538421Y517534D01*
X538417Y517546D01*
X535417Y518646D01*
X535404Y518642D01*
X535399Y518649D01*
X531899Y518549D01*
X531879Y518534D01*
X531866Y518536D01*
X529766Y516536D01*
X529762Y516509D01*
X529751Y516501D01*
X529651Y512901D01*
X529552Y509549D01*
X522833Y509549D01*
X521648Y512313D01*
X521250Y515800D01*
X521648Y518986D01*
X523042Y521974D01*
X525334Y524764D01*
X528024Y526756D01*
X531113Y527952D01*
X534501Y528450D01*
X538088Y528052D01*
X541175Y526857D01*
X543665Y524865D01*
X545756Y522176D01*
X546852Y519089D01*
X547250Y515701D01*
X546752Y512214D01*
X545355Y509120D01*
X543855Y505921D01*
X543861Y505897D01*
X543853Y505886D01*
X544553Y503486D01*
X544566Y503476D01*
X544565Y503466D01*
X547265Y500666D01*
X547279Y500664D01*
X547281Y500654D01*
X550481Y499354D01*
X550508Y499361D01*
X550519Y499355D01*
X553319Y500555D01*
X553329Y500571D01*
X553340Y500572D01*
X555440Y503572D01*
X555440Y503576D01*
X555443Y503577D01*
X557043Y506577D01*
X557043Y506583D01*
X557047Y506584D01*
X558147Y509784D01*
X558145Y509789D01*
X558148Y509791D01*
X558748Y512991D01*
X558746Y512996D01*
X558749Y512999D01*
X558849Y516399D01*
X558847Y516402D01*
X558849Y516404D01*
X558549Y519804D01*
X558545Y519809D01*
X558548Y519812D01*
X557748Y523012D01*
X557744Y523015D01*
X557746Y523018D01*
X556546Y526118D01*
X556541Y526121D01*
X556543Y526125D01*
X554843Y529025D01*
X554839Y529027D01*
X554839Y529030D01*
X552739Y531830D01*
X552735Y531831D01*
X552736Y531834D01*
X550336Y534334D01*
X550329Y534335D01*
X550329Y534340D01*
X547629Y536340D01*
X547624Y536340D01*
X547624Y536343D01*
X544724Y537943D01*
X544719Y537942D01*
X544718Y537946D01*
X541618Y539146D01*
X541612Y539144D01*
X541610Y539148D01*
X538310Y539848D01*
X538305Y539846D01*
X538303Y539849D01*
X534803Y540049D01*
X534799Y540047D01*
X534797Y540049D01*
X531297Y539849D01*
X531294Y539846D01*
X531291Y539849D01*
X527891Y539249D01*
X527887Y539244D01*
X527884Y539246D01*
X524784Y538146D01*
X524782Y538143D01*
X524779Y538145D01*
X521779Y536745D01*
X521776Y536738D01*
X521771Y536740D01*
X519071Y534740D01*
X519070Y534736D01*
X519067Y534737D01*
X516467Y532437D01*
X516466Y532432D01*
X516463Y532432D01*
X514163Y529732D01*
X514162Y529727D01*
X514159Y529727D01*
X512359Y526927D01*
X512359Y526922D01*
X512355Y526921D01*
X510955Y523921D01*
X510956Y523919D01*
X510955Y523919D01*
X510956Y523918D01*
X510957Y523915D01*
X510953Y523913D01*
X510053Y520713D01*
X510055Y520708D01*
X510051Y520706D01*
X509651Y517306D01*
X509654Y517301D01*
X509651Y517299D01*
X509751Y513499D01*
X509753Y513496D01*
X509751Y513495D01*
X510151Y509795D01*
X510155Y509790D01*
X510153Y509787D01*
X511053Y506487D01*
X511057Y506484D01*
X511055Y506480D01*
X512355Y503580D01*
X512361Y503577D01*
X512359Y503572D01*
X514059Y501072D01*
X514067Y501070D01*
X514066Y501064D01*
X516466Y498764D01*
X516483Y498762D01*
X516488Y498752D01*
X519588Y497952D01*
X519596Y497956D01*
X519600Y497951D01*
X533200Y497951D01*
X533204Y497954D01*
G37*
G36*
X533204Y104754D02*
X533204Y104754D01*
X533207Y104751D01*
X536707Y105251D01*
X536722Y105266D01*
X536734Y105264D01*
X538634Y107064D01*
X538638Y107086D01*
X538649Y107092D01*
X539249Y110892D01*
X539246Y110897D01*
X539249Y110900D01*
X539249Y121100D01*
X539244Y121107D01*
X539248Y121112D01*
X538448Y124312D01*
X538421Y124334D01*
X538417Y124346D01*
X535417Y125446D01*
X535404Y125442D01*
X535399Y125449D01*
X531899Y125349D01*
X531879Y125334D01*
X531866Y125336D01*
X529766Y123336D01*
X529762Y123309D01*
X529751Y123301D01*
X529651Y119701D01*
X529552Y116349D01*
X522833Y116349D01*
X521648Y119113D01*
X521250Y122600D01*
X521648Y125787D01*
X523042Y128873D01*
X525334Y131564D01*
X528025Y133557D01*
X531113Y134852D01*
X534500Y135250D01*
X538088Y134852D01*
X541175Y133657D01*
X543665Y131665D01*
X545756Y128976D01*
X546852Y125889D01*
X547250Y122501D01*
X546752Y119014D01*
X545355Y116021D01*
X543855Y112821D01*
X543860Y112797D01*
X543853Y112787D01*
X544553Y110287D01*
X544566Y110276D01*
X544565Y110266D01*
X547265Y107466D01*
X547279Y107464D01*
X547281Y107454D01*
X550481Y106154D01*
X550508Y106161D01*
X550519Y106155D01*
X553319Y107355D01*
X553329Y107371D01*
X553340Y107372D01*
X555440Y110372D01*
X555440Y110377D01*
X555444Y110377D01*
X557044Y113477D01*
X557043Y113482D01*
X557046Y113484D01*
X558146Y116584D01*
X558145Y116589D01*
X558148Y116591D01*
X558748Y119791D01*
X558746Y119796D01*
X558749Y119799D01*
X558849Y123199D01*
X558847Y123202D01*
X558849Y123204D01*
X558549Y126604D01*
X558545Y126609D01*
X558548Y126612D01*
X557748Y129812D01*
X557744Y129815D01*
X557746Y129818D01*
X556546Y132918D01*
X556541Y132921D01*
X556543Y132925D01*
X554843Y135825D01*
X554839Y135827D01*
X554839Y135830D01*
X552739Y138630D01*
X552735Y138631D01*
X552736Y138634D01*
X550336Y141134D01*
X550329Y141135D01*
X550329Y141140D01*
X547629Y143140D01*
X547624Y143140D01*
X547624Y143143D01*
X544724Y144743D01*
X544719Y144742D01*
X544718Y144746D01*
X541618Y145946D01*
X541612Y145944D01*
X541610Y145948D01*
X538310Y146648D01*
X538305Y146646D01*
X538303Y146649D01*
X534803Y146849D01*
X534799Y146847D01*
X534797Y146849D01*
X531297Y146649D01*
X531294Y146646D01*
X531291Y146649D01*
X527891Y146049D01*
X527887Y146044D01*
X527884Y146046D01*
X524784Y144946D01*
X524782Y144943D01*
X524779Y144945D01*
X521779Y143545D01*
X521776Y143539D01*
X521772Y143540D01*
X519072Y141640D01*
X519070Y141636D01*
X519067Y141636D01*
X516467Y139236D01*
X516466Y139232D01*
X516463Y139232D01*
X514163Y136532D01*
X514162Y136527D01*
X514159Y136527D01*
X512359Y133727D01*
X512359Y133722D01*
X512355Y133721D01*
X510955Y130721D01*
X510956Y130719D01*
X510955Y130719D01*
X510956Y130718D01*
X510957Y130715D01*
X510953Y130713D01*
X510053Y127513D01*
X510055Y127508D01*
X510051Y127506D01*
X509651Y124206D01*
X509654Y124201D01*
X509651Y124199D01*
X509751Y120299D01*
X509753Y120296D01*
X509751Y120295D01*
X510151Y116595D01*
X510155Y116590D01*
X510153Y116587D01*
X511053Y113287D01*
X511057Y113284D01*
X511055Y113280D01*
X512355Y110380D01*
X512361Y110377D01*
X512359Y110372D01*
X514059Y107872D01*
X514067Y107870D01*
X514067Y107864D01*
X516467Y105664D01*
X516483Y105662D01*
X516486Y105653D01*
X519586Y104753D01*
X519596Y104756D01*
X519600Y104751D01*
X533200Y104751D01*
X533204Y104754D01*
G37*
G36*
X552708Y570757D02*
X552708Y570757D01*
X552714Y570753D01*
X555814Y571653D01*
X555830Y571675D01*
X555843Y571677D01*
X557343Y574477D01*
X557343Y574480D01*
X557344Y574480D01*
X557343Y574482D01*
X557341Y574493D01*
X557349Y574499D01*
X557449Y578299D01*
X557442Y578309D01*
X557447Y578316D01*
X556447Y581316D01*
X556420Y581334D01*
X556416Y581347D01*
X553416Y582347D01*
X553405Y582343D01*
X553400Y582349D01*
X539624Y582349D01*
X538149Y584217D01*
X538149Y597880D01*
X539820Y599551D01*
X550000Y599551D01*
X550001Y599551D01*
X553601Y599651D01*
X553612Y599659D01*
X553619Y599655D01*
X556219Y600755D01*
X556233Y600778D01*
X556246Y600782D01*
X557446Y603882D01*
X557446Y603883D01*
X557442Y603896D01*
X557449Y603902D01*
X557249Y608302D01*
X557237Y608317D01*
X557241Y608328D01*
X555741Y610528D01*
X555715Y610536D01*
X555709Y610548D01*
X552609Y611148D01*
X552603Y611145D01*
X552600Y611149D01*
X514900Y611149D01*
X514896Y611146D01*
X514894Y611149D01*
X511694Y610749D01*
X511674Y610729D01*
X511660Y610729D01*
X510060Y608529D01*
X510061Y608510D01*
X510051Y608504D01*
X509651Y604104D01*
X509658Y604093D01*
X509653Y604085D01*
X510653Y600885D01*
X510677Y600868D01*
X510680Y600855D01*
X513380Y599655D01*
X513393Y599658D01*
X513399Y599651D01*
X516899Y599551D01*
X516900Y599551D01*
X527078Y599551D01*
X528651Y597781D01*
X528651Y584218D01*
X527077Y582349D01*
X516900Y582349D01*
X516899Y582349D01*
X513299Y582249D01*
X513288Y582241D01*
X513280Y582245D01*
X510780Y581145D01*
X510766Y581120D01*
X510753Y581116D01*
X509653Y577816D01*
X509656Y577809D01*
X509653Y577807D01*
X509657Y577801D01*
X509651Y577795D01*
X510051Y573495D01*
X510066Y573479D01*
X510063Y573467D01*
X511863Y571467D01*
X511884Y571463D01*
X511889Y571452D01*
X515089Y570752D01*
X515097Y570755D01*
X515100Y570751D01*
X552700Y570751D01*
X552708Y570757D01*
G37*
G36*
X549201Y446451D02*
X549201Y446451D01*
X552701Y446551D01*
X552708Y446556D01*
X552712Y446552D01*
X555812Y447352D01*
X555830Y447375D01*
X555843Y447377D01*
X557343Y450177D01*
X557343Y450180D01*
X557344Y450180D01*
X557343Y450182D01*
X557341Y450193D01*
X557349Y450199D01*
X557449Y453999D01*
X557442Y454009D01*
X557447Y454016D01*
X556447Y457016D01*
X556420Y457034D01*
X556416Y457047D01*
X553416Y458047D01*
X553405Y458043D01*
X553400Y458049D01*
X539625Y458049D01*
X538149Y460016D01*
X538149Y473580D01*
X539820Y475251D01*
X550000Y475251D01*
X550001Y475251D01*
X553601Y475351D01*
X553612Y475359D01*
X553619Y475355D01*
X556219Y476455D01*
X556233Y476478D01*
X556246Y476482D01*
X557446Y479582D01*
X557446Y479583D01*
X557442Y479596D01*
X557449Y479602D01*
X557249Y484002D01*
X557237Y484017D01*
X557241Y484028D01*
X555741Y486228D01*
X555715Y486236D01*
X555709Y486248D01*
X552609Y486848D01*
X552603Y486845D01*
X552600Y486849D01*
X514900Y486849D01*
X514896Y486846D01*
X514894Y486849D01*
X511694Y486449D01*
X511674Y486429D01*
X511660Y486429D01*
X510060Y484229D01*
X510061Y484210D01*
X510051Y484204D01*
X509651Y479804D01*
X509658Y479793D01*
X509653Y479785D01*
X510653Y476585D01*
X510678Y476568D01*
X510681Y476554D01*
X513381Y475454D01*
X513393Y475457D01*
X513397Y475451D01*
X516897Y475251D01*
X516899Y475252D01*
X516900Y475251D01*
X527078Y475251D01*
X528651Y473481D01*
X528651Y459918D01*
X527077Y458049D01*
X516900Y458049D01*
X516899Y458049D01*
X513299Y457949D01*
X513289Y457941D01*
X513282Y457946D01*
X510782Y456946D01*
X510766Y456920D01*
X510753Y456915D01*
X509653Y453515D01*
X509655Y453509D01*
X509653Y453507D01*
X509657Y453501D01*
X509651Y453495D01*
X510051Y449195D01*
X510066Y449179D01*
X510063Y449167D01*
X511863Y447167D01*
X511884Y447163D01*
X511889Y447152D01*
X515089Y446452D01*
X515097Y446455D01*
X515100Y446451D01*
X549200Y446451D01*
X549201Y446451D01*
G37*
G36*
X517610Y158252D02*
X517610Y158252D01*
X517616Y158258D01*
X517621Y158255D01*
X521021Y159855D01*
X521021Y159856D01*
X521022Y159856D01*
X554722Y176256D01*
X554724Y176261D01*
X554728Y176259D01*
X556628Y177559D01*
X556633Y177576D01*
X556644Y177578D01*
X558044Y180378D01*
X558042Y180387D01*
X558047Y180391D01*
X558041Y180398D01*
X558049Y180406D01*
X557649Y183706D01*
X557635Y183720D01*
X557638Y183731D01*
X555438Y186431D01*
X555424Y186435D01*
X555422Y186444D01*
X552422Y187944D01*
X518622Y204344D01*
X518617Y204343D01*
X518616Y204347D01*
X515316Y205447D01*
X515292Y205439D01*
X515280Y205445D01*
X512780Y204345D01*
X512770Y204327D01*
X512758Y204326D01*
X510558Y200826D01*
X510559Y200817D01*
X510553Y200814D01*
X509653Y197814D01*
X509663Y197786D01*
X509659Y197773D01*
X511459Y194973D01*
X511475Y194967D01*
X511476Y194957D01*
X514376Y193357D01*
X514378Y193357D01*
X514379Y193356D01*
X517478Y191856D01*
X520451Y190370D01*
X520451Y173400D01*
X520453Y173397D01*
X520451Y173394D01*
X520459Y173390D01*
X520487Y173353D01*
X520499Y173362D01*
X520500Y173362D01*
X520507Y173362D01*
X520512Y173359D01*
X520481Y173345D01*
X520475Y173336D01*
X520469Y173338D01*
X518174Y171442D01*
X515080Y170045D01*
X515079Y170044D01*
X515078Y170044D01*
X511878Y168444D01*
X511872Y168432D01*
X511863Y168432D01*
X509763Y166032D01*
X509761Y166004D01*
X509751Y165995D01*
X510051Y162895D01*
X510061Y162884D01*
X510057Y162876D01*
X512157Y159176D01*
X512173Y159169D01*
X512175Y159158D01*
X514675Y157658D01*
X514700Y157661D01*
X514710Y157652D01*
X517610Y158252D01*
G37*
G36*
X171411Y28759D02*
X171411Y28759D01*
X171418Y28754D01*
X171918Y28954D01*
X171933Y28978D01*
X171940Y28984D01*
X171938Y28987D01*
X171943Y28995D01*
X171949Y29000D01*
X171949Y102100D01*
X171946Y102104D01*
X171949Y102107D01*
X171749Y103507D01*
X171744Y103512D01*
X171747Y103516D01*
X171547Y104116D01*
X171542Y104119D01*
X171544Y104122D01*
X170944Y105322D01*
X170940Y105324D01*
X170941Y105327D01*
X170541Y105927D01*
X170538Y105928D01*
X170538Y105931D01*
X170138Y106431D01*
X170134Y106432D01*
X170135Y106435D01*
X169635Y106935D01*
X169631Y106935D01*
X169631Y106938D01*
X169131Y107338D01*
X169127Y107339D01*
X169127Y107341D01*
X168527Y107741D01*
X168523Y107741D01*
X168522Y107744D01*
X167322Y108344D01*
X167317Y108343D01*
X167316Y108347D01*
X166716Y108547D01*
X166709Y108545D01*
X166707Y108549D01*
X166007Y108649D01*
X166002Y108646D01*
X166000Y108649D01*
X164600Y108649D01*
X164595Y108646D01*
X164592Y108649D01*
X163992Y108549D01*
X163293Y108449D01*
X163288Y108444D01*
X163284Y108447D01*
X162684Y108247D01*
X162681Y108242D01*
X162678Y108244D01*
X161478Y107644D01*
X161476Y107640D01*
X161473Y107641D01*
X160873Y107241D01*
X160870Y107234D01*
X160865Y107235D01*
X160367Y106737D01*
X159869Y106338D01*
X159867Y106328D01*
X159859Y106327D01*
X159459Y105727D01*
X159459Y105723D01*
X159456Y105722D01*
X158556Y103922D01*
X158556Y103920D01*
X158557Y103918D01*
X158558Y103911D01*
X158551Y103907D01*
X158451Y103208D01*
X158351Y102608D01*
X158352Y102607D01*
X158351Y102607D01*
X158251Y101907D01*
X158254Y101902D01*
X158251Y101900D01*
X158251Y29200D01*
X158264Y29182D01*
X158261Y29170D01*
X158561Y28770D01*
X158592Y28762D01*
X158600Y28751D01*
X171400Y28751D01*
X171411Y28759D01*
G37*
G36*
X146447Y28787D02*
X146447Y28787D01*
X146446Y28789D01*
X146448Y28790D01*
X146548Y29290D01*
X146540Y29308D01*
X146546Y29318D01*
X146522Y29378D01*
X146523Y29380D01*
X146549Y29400D01*
X146549Y99900D01*
X146546Y99905D01*
X146549Y99908D01*
X146449Y100508D01*
X146349Y101207D01*
X146344Y101212D01*
X146347Y101216D01*
X146147Y101815D01*
X145947Y102514D01*
X145942Y102518D01*
X145944Y102522D01*
X145644Y103122D01*
X145640Y103124D01*
X145641Y103127D01*
X145241Y103727D01*
X145238Y103728D01*
X145238Y103731D01*
X144438Y104731D01*
X144428Y104733D01*
X144427Y104741D01*
X143829Y105140D01*
X143331Y105538D01*
X143323Y105539D01*
X143322Y105544D01*
X142122Y106144D01*
X142115Y106143D01*
X142114Y106147D01*
X141415Y106347D01*
X140816Y106547D01*
X140805Y106543D01*
X140800Y106549D01*
X138700Y106549D01*
X138691Y106542D01*
X138684Y106547D01*
X138089Y106348D01*
X137393Y106249D01*
X137385Y106241D01*
X137378Y106244D01*
X136178Y105644D01*
X136176Y105640D01*
X136173Y105641D01*
X135573Y105241D01*
X135572Y105238D01*
X135569Y105238D01*
X135069Y104838D01*
X135068Y104834D01*
X135065Y104835D01*
X134565Y104335D01*
X134565Y104331D01*
X134562Y104331D01*
X134162Y103831D01*
X134161Y103827D01*
X134159Y103827D01*
X133759Y103227D01*
X133759Y103223D01*
X133756Y103222D01*
X133456Y102622D01*
X133457Y102617D01*
X133453Y102616D01*
X133253Y102016D01*
X133254Y102014D01*
X133253Y102014D01*
X133053Y101314D01*
X133054Y101311D01*
X133052Y101309D01*
X133053Y101308D01*
X133051Y101307D01*
X132951Y100608D01*
X132851Y100008D01*
X132854Y100003D01*
X132851Y100000D01*
X132851Y28900D01*
X132887Y28853D01*
X132890Y28855D01*
X132892Y28851D01*
X133492Y28751D01*
X133497Y28754D01*
X133500Y28751D01*
X146400Y28751D01*
X146447Y28787D01*
G37*
G36*
X120611Y28759D02*
X120611Y28759D01*
X120618Y28754D01*
X121118Y28954D01*
X121133Y28978D01*
X121140Y28984D01*
X121138Y28987D01*
X121143Y28995D01*
X121149Y29000D01*
X121149Y99400D01*
X121146Y99404D01*
X121149Y99407D01*
X120949Y100807D01*
X120944Y100812D01*
X120947Y100816D01*
X120747Y101416D01*
X120742Y101419D01*
X120744Y101422D01*
X120144Y102622D01*
X120140Y102624D01*
X120141Y102627D01*
X119741Y103227D01*
X119738Y103228D01*
X119738Y103231D01*
X119338Y103731D01*
X119334Y103732D01*
X119335Y103735D01*
X118835Y104235D01*
X118831Y104235D01*
X118831Y104238D01*
X118331Y104638D01*
X118327Y104639D01*
X118327Y104641D01*
X117727Y105041D01*
X117723Y105041D01*
X117722Y105044D01*
X116522Y105644D01*
X116517Y105643D01*
X116516Y105647D01*
X115916Y105847D01*
X115909Y105845D01*
X115907Y105849D01*
X115207Y105949D01*
X115202Y105946D01*
X115200Y105949D01*
X113800Y105949D01*
X113795Y105946D01*
X113792Y105949D01*
X113192Y105849D01*
X112493Y105749D01*
X112488Y105744D01*
X112484Y105747D01*
X111884Y105547D01*
X111883Y105544D01*
X111881Y105545D01*
X111181Y105245D01*
X111178Y105241D01*
X111175Y105242D01*
X110675Y104942D01*
X110674Y104941D01*
X110673Y104941D01*
X110073Y104541D01*
X110070Y104534D01*
X110065Y104535D01*
X109065Y103535D01*
X109065Y103531D01*
X109062Y103531D01*
X108662Y103031D01*
X108661Y103023D01*
X108656Y103022D01*
X107756Y101222D01*
X107757Y101215D01*
X107752Y101211D01*
X107754Y101209D01*
X107751Y101207D01*
X107651Y100508D01*
X107551Y99908D01*
X107552Y99907D01*
X107551Y99907D01*
X107451Y99207D01*
X107454Y99202D01*
X107451Y99200D01*
X107451Y29200D01*
X107464Y29182D01*
X107461Y29170D01*
X107761Y28770D01*
X107792Y28762D01*
X107800Y28751D01*
X120600Y28751D01*
X120611Y28759D01*
G37*
G36*
X425518Y28764D02*
X425518Y28764D01*
X425530Y28761D01*
X425930Y29061D01*
X425934Y29077D01*
X425941Y29082D01*
X425937Y29088D01*
X425939Y29092D01*
X425949Y29100D01*
X425949Y98200D01*
X425946Y98205D01*
X425949Y98208D01*
X425849Y98808D01*
X425749Y99507D01*
X425649Y100207D01*
X425644Y100212D01*
X425647Y100216D01*
X425447Y100816D01*
X425442Y100819D01*
X425444Y100822D01*
X425144Y101422D01*
X425140Y101424D01*
X425141Y101427D01*
X424741Y102027D01*
X424738Y102028D01*
X424738Y102031D01*
X423938Y103031D01*
X423934Y103032D01*
X423935Y103035D01*
X423435Y103535D01*
X423428Y103536D01*
X423427Y103541D01*
X422827Y103941D01*
X422823Y103941D01*
X422822Y103944D01*
X421622Y104544D01*
X421617Y104543D01*
X421616Y104547D01*
X421016Y104747D01*
X421014Y104746D01*
X421014Y104747D01*
X420314Y104947D01*
X420309Y104946D01*
X420307Y104949D01*
X419607Y105049D01*
X419602Y105046D01*
X419600Y105049D01*
X419000Y105049D01*
X418996Y105046D01*
X418993Y105049D01*
X417593Y104849D01*
X417588Y104844D01*
X417584Y104847D01*
X416985Y104647D01*
X416286Y104447D01*
X416282Y104442D01*
X416278Y104444D01*
X415678Y104144D01*
X415675Y104137D01*
X415669Y104138D01*
X415171Y103740D01*
X414573Y103341D01*
X414570Y103334D01*
X414565Y103335D01*
X414065Y102835D01*
X414065Y102831D01*
X414062Y102831D01*
X413262Y101831D01*
X413261Y101823D01*
X413256Y101822D01*
X412956Y101222D01*
X412956Y101220D01*
X412955Y101219D01*
X412655Y100519D01*
X412656Y100516D01*
X412653Y100516D01*
X412453Y99916D01*
X412455Y99909D01*
X412451Y99907D01*
X412251Y98507D01*
X412254Y98503D01*
X412253Y98502D01*
X412251Y98500D01*
X412251Y29200D01*
X412264Y29182D01*
X412261Y29170D01*
X412561Y28770D01*
X412592Y28762D01*
X412600Y28751D01*
X425500Y28751D01*
X425518Y28764D01*
G37*
G36*
X554413Y373053D02*
X554413Y373053D01*
X554426Y373070D01*
X554438Y373069D01*
X556838Y376069D01*
X556839Y376078D01*
X556842Y376080D01*
X556841Y376083D01*
X556847Y376085D01*
X557847Y379285D01*
X557839Y379306D01*
X557846Y379317D01*
X556746Y382317D01*
X556724Y382331D01*
X556721Y382345D01*
X553721Y383745D01*
X526278Y396518D01*
X527031Y397460D01*
X531120Y399355D01*
X549520Y407555D01*
X553520Y409355D01*
X553522Y409358D01*
X553524Y409357D01*
X555624Y410557D01*
X555629Y410568D01*
X555637Y410568D01*
X557737Y412968D01*
X557739Y412997D01*
X557749Y413007D01*
X557349Y416007D01*
X557340Y416016D01*
X557343Y416024D01*
X555343Y419624D01*
X555327Y419631D01*
X555325Y419642D01*
X552825Y421142D01*
X552798Y421139D01*
X552787Y421148D01*
X549787Y420348D01*
X549783Y420342D01*
X549778Y420344D01*
X513478Y402444D01*
X513475Y402438D01*
X513471Y402440D01*
X510771Y400440D01*
X510765Y400420D01*
X510753Y400416D01*
X509653Y397216D01*
X509659Y397200D01*
X509651Y397192D01*
X510151Y393992D01*
X510165Y393979D01*
X510162Y393968D01*
X512262Y391468D01*
X512275Y391465D01*
X512277Y391457D01*
X515277Y389857D01*
X515278Y389857D01*
X515278Y389856D01*
X548478Y373356D01*
X548484Y373357D01*
X548486Y373353D01*
X551886Y372353D01*
X551904Y372360D01*
X551913Y372353D01*
X554413Y373053D01*
G37*
G36*
X298733Y28776D02*
X298733Y28776D01*
X298744Y28778D01*
X298944Y29178D01*
X298944Y29180D01*
X298944Y29181D01*
X298943Y29182D01*
X298941Y29194D01*
X298949Y29200D01*
X298949Y94300D01*
X298946Y94305D01*
X298949Y94308D01*
X298849Y94908D01*
X298749Y95607D01*
X298744Y95612D01*
X298747Y95616D01*
X298547Y96216D01*
X298544Y96217D01*
X298545Y96219D01*
X298245Y96919D01*
X298241Y96922D01*
X298242Y96925D01*
X297942Y97425D01*
X297941Y97426D01*
X297941Y97427D01*
X297541Y98027D01*
X297534Y98030D01*
X297535Y98035D01*
X296535Y99035D01*
X296531Y99035D01*
X296531Y99038D01*
X296031Y99438D01*
X296027Y99439D01*
X296027Y99441D01*
X295427Y99841D01*
X295423Y99841D01*
X295422Y99844D01*
X294822Y100144D01*
X294817Y100143D01*
X294816Y100147D01*
X293616Y100547D01*
X293609Y100545D01*
X293607Y100549D01*
X292207Y100749D01*
X292198Y100744D01*
X292193Y100749D01*
X291493Y100649D01*
X291492Y100648D01*
X291492Y100649D01*
X290892Y100549D01*
X290193Y100449D01*
X290188Y100444D01*
X290184Y100447D01*
X289584Y100247D01*
X289581Y100242D01*
X289578Y100244D01*
X288978Y99944D01*
X288976Y99940D01*
X288973Y99941D01*
X287773Y99141D01*
X287772Y99138D01*
X287769Y99138D01*
X287269Y98738D01*
X287267Y98731D01*
X287262Y98731D01*
X286862Y98231D01*
X286861Y98227D01*
X286859Y98227D01*
X286460Y97629D01*
X286062Y97131D01*
X286061Y97124D01*
X286060Y97123D01*
X286061Y97122D01*
X286061Y97121D01*
X286055Y97119D01*
X285755Y96419D01*
X285756Y96416D01*
X285753Y96416D01*
X285553Y95816D01*
X285554Y95814D01*
X285553Y95814D01*
X285353Y95114D01*
X285356Y95106D01*
X285353Y95104D01*
X285354Y95102D01*
X285351Y95100D01*
X285351Y94503D01*
X285251Y93807D01*
X285254Y93802D01*
X285251Y93800D01*
X285251Y29000D01*
X285280Y28962D01*
X285282Y28954D01*
X285782Y28754D01*
X285795Y28758D01*
X285800Y28751D01*
X298700Y28751D01*
X298733Y28776D01*
G37*
G36*
X555904Y215851D02*
X555904Y215851D01*
X555929Y215874D01*
X555943Y215875D01*
X557443Y218475D01*
X557441Y218488D01*
X557447Y218492D01*
X557444Y218496D01*
X557449Y218500D01*
X557449Y256200D01*
X557445Y256205D01*
X557448Y256209D01*
X556848Y259509D01*
X556825Y259531D01*
X556822Y259544D01*
X554022Y260944D01*
X554004Y260941D01*
X553997Y260949D01*
X550397Y260749D01*
X550379Y260734D01*
X550366Y260736D01*
X548166Y258636D01*
X548163Y258617D01*
X548152Y258609D01*
X548155Y258605D01*
X548151Y258603D01*
X547951Y255103D01*
X547952Y255101D01*
X547951Y255100D01*
X547951Y244930D01*
X545688Y243749D01*
X514900Y243749D01*
X514897Y243747D01*
X514895Y243749D01*
X511795Y243449D01*
X511774Y243429D01*
X511760Y243429D01*
X509860Y240829D01*
X509861Y240809D01*
X509851Y240803D01*
X509651Y237103D01*
X509657Y237094D01*
X509652Y237088D01*
X510452Y233988D01*
X510476Y233969D01*
X510479Y233956D01*
X513379Y232556D01*
X513393Y232559D01*
X513399Y232551D01*
X516899Y232451D01*
X516900Y232451D01*
X547557Y232451D01*
X547951Y229397D01*
X547951Y219000D01*
X547959Y218989D01*
X547955Y218981D01*
X549155Y216081D01*
X549186Y216062D01*
X549192Y216051D01*
X552392Y215551D01*
X552400Y215556D01*
X552404Y215551D01*
X555904Y215851D01*
G37*
G36*
X516601Y269551D02*
X516601Y269551D01*
X516618Y269564D01*
X516630Y269561D01*
X518930Y271361D01*
X518938Y271389D01*
X518949Y271396D01*
X519249Y274896D01*
X519247Y274899D01*
X519249Y274900D01*
X519249Y291751D01*
X553000Y291751D01*
X553008Y291757D01*
X553013Y291753D01*
X555913Y292553D01*
X555930Y292575D01*
X555944Y292577D01*
X557344Y295277D01*
X557342Y295289D01*
X557347Y295294D01*
X557345Y295297D01*
X557349Y295300D01*
X557349Y299800D01*
X557340Y299812D01*
X557345Y299821D01*
X556145Y302421D01*
X556120Y302434D01*
X556115Y302447D01*
X553315Y303347D01*
X553305Y303343D01*
X553300Y303349D01*
X516100Y303349D01*
X516098Y303348D01*
X516097Y303349D01*
X512497Y303149D01*
X512482Y303136D01*
X512470Y303139D01*
X510470Y301639D01*
X510464Y301616D01*
X510452Y301610D01*
X509652Y297910D01*
X509655Y297903D01*
X509651Y297900D01*
X509651Y274200D01*
X509655Y274195D01*
X509652Y274191D01*
X510252Y270891D01*
X510275Y270870D01*
X510277Y270856D01*
X512977Y269456D01*
X512995Y269459D01*
X513001Y269451D01*
X516601Y269551D01*
G37*
G36*
X323705Y28754D02*
X323705Y28754D01*
X323708Y28751D01*
X324308Y28851D01*
X324349Y28895D01*
X324346Y28898D01*
X324349Y28900D01*
X324349Y70200D01*
X324346Y70204D01*
X324349Y70207D01*
X324149Y71607D01*
X324144Y71612D01*
X324147Y71616D01*
X323947Y72215D01*
X323747Y72914D01*
X323739Y72920D01*
X323741Y72927D01*
X323342Y73526D01*
X323042Y74025D01*
X323037Y74027D01*
X323038Y74032D01*
X322538Y74632D01*
X322534Y74632D01*
X322535Y74635D01*
X322135Y75035D01*
X322131Y75035D01*
X322132Y75038D01*
X321532Y75538D01*
X321526Y75538D01*
X321525Y75542D01*
X321026Y75842D01*
X320427Y76241D01*
X320418Y76240D01*
X320416Y76247D01*
X319816Y76447D01*
X319814Y76446D01*
X319814Y76447D01*
X319114Y76647D01*
X319109Y76646D01*
X319107Y76649D01*
X318408Y76749D01*
X317808Y76849D01*
X317803Y76846D01*
X317800Y76849D01*
X317100Y76849D01*
X317096Y76846D01*
X317093Y76849D01*
X316393Y76749D01*
X316392Y76748D01*
X316392Y76749D01*
X315792Y76649D01*
X315789Y76645D01*
X315786Y76647D01*
X315086Y76447D01*
X315082Y76442D01*
X315078Y76444D01*
X313878Y75844D01*
X313876Y75840D01*
X313873Y75841D01*
X313273Y75441D01*
X313270Y75434D01*
X313265Y75435D01*
X312365Y74535D01*
X312365Y74531D01*
X312362Y74532D01*
X311862Y73932D01*
X311862Y73923D01*
X311856Y73922D01*
X310956Y72122D01*
X310958Y72111D01*
X310951Y72107D01*
X310851Y71408D01*
X310751Y70808D01*
X310752Y70807D01*
X310751Y70807D01*
X310651Y70107D01*
X310654Y70102D01*
X310651Y70100D01*
X310651Y29300D01*
X310659Y29289D01*
X310654Y29282D01*
X310854Y28782D01*
X310895Y28757D01*
X310900Y28751D01*
X323700Y28751D01*
X323705Y28754D01*
G37*
G36*
X450705Y28754D02*
X450705Y28754D01*
X450708Y28751D01*
X451308Y28851D01*
X451349Y28895D01*
X451346Y28898D01*
X451349Y28900D01*
X451349Y70200D01*
X451346Y70204D01*
X451349Y70207D01*
X451149Y71607D01*
X451144Y71612D01*
X451147Y71616D01*
X450947Y72215D01*
X450747Y72914D01*
X450739Y72920D01*
X450741Y72927D01*
X450342Y73526D01*
X450042Y74025D01*
X450037Y74027D01*
X450038Y74032D01*
X449538Y74632D01*
X449534Y74632D01*
X449535Y74635D01*
X449135Y75035D01*
X449131Y75035D01*
X449132Y75038D01*
X448532Y75538D01*
X448526Y75538D01*
X448525Y75542D01*
X448026Y75842D01*
X447427Y76241D01*
X447418Y76240D01*
X447416Y76247D01*
X446816Y76447D01*
X446814Y76446D01*
X446814Y76447D01*
X446114Y76647D01*
X446109Y76646D01*
X446107Y76649D01*
X445408Y76749D01*
X444808Y76849D01*
X444803Y76846D01*
X444800Y76849D01*
X444100Y76849D01*
X444096Y76846D01*
X444093Y76849D01*
X443393Y76749D01*
X443392Y76748D01*
X443392Y76749D01*
X442792Y76649D01*
X442789Y76645D01*
X442786Y76647D01*
X442086Y76447D01*
X442082Y76442D01*
X442078Y76444D01*
X440878Y75844D01*
X440876Y75840D01*
X440873Y75841D01*
X440273Y75441D01*
X440270Y75434D01*
X440265Y75435D01*
X439365Y74535D01*
X439365Y74531D01*
X439362Y74532D01*
X438862Y73932D01*
X438862Y73923D01*
X438856Y73922D01*
X437956Y72122D01*
X437958Y72111D01*
X437951Y72107D01*
X437851Y71408D01*
X437751Y70808D01*
X437752Y70807D01*
X437751Y70807D01*
X437651Y70107D01*
X437654Y70102D01*
X437651Y70100D01*
X437651Y29300D01*
X437659Y29289D01*
X437654Y29282D01*
X437854Y28782D01*
X437895Y28757D01*
X437900Y28751D01*
X450700Y28751D01*
X450705Y28754D01*
G37*
G36*
X550902Y549052D02*
X550902Y549052D01*
X550903Y549051D01*
X554403Y549251D01*
X554418Y549264D01*
X554429Y549260D01*
X556629Y550860D01*
X556636Y550884D01*
X556648Y550889D01*
X557448Y554489D01*
X557443Y554500D01*
X557449Y554506D01*
X556949Y558606D01*
X556932Y558624D01*
X556933Y558637D01*
X554933Y560437D01*
X554911Y560438D01*
X554905Y560449D01*
X551705Y560749D01*
X551702Y560747D01*
X551700Y560749D01*
X517900Y560749D01*
X517899Y560749D01*
X514299Y560649D01*
X514294Y560646D01*
X514292Y560649D01*
X511392Y560149D01*
X511371Y560127D01*
X511358Y560125D01*
X509858Y557625D01*
X509860Y557608D01*
X509851Y557601D01*
X509751Y553201D01*
X509759Y553190D01*
X509754Y553183D01*
X510854Y550183D01*
X510879Y550167D01*
X510883Y550154D01*
X513583Y549154D01*
X513594Y549157D01*
X513599Y549151D01*
X517199Y549051D01*
X517200Y549051D01*
X550900Y549051D01*
X550902Y549052D01*
G37*
%LPC*%
G36*
X531508Y326149D02*
X531508Y326149D01*
X528221Y327145D01*
X525533Y328838D01*
X523341Y331427D01*
X521847Y334416D01*
X521250Y337602D01*
X521648Y340887D01*
X522943Y343875D01*
X525137Y346667D01*
X527535Y349065D01*
X527535Y349067D01*
X527537Y349067D01*
X528322Y349951D01*
X535195Y349951D01*
X538584Y349253D01*
X541472Y347859D01*
X543962Y345568D01*
X545855Y342679D01*
X546751Y339593D01*
X546751Y336307D01*
X545855Y333221D01*
X543962Y330333D01*
X541473Y328141D01*
X538584Y326747D01*
X535196Y326049D01*
X531508Y326149D01*
G37*
%LPD*%
%LPC*%
G36*
X210589Y421278D02*
X210589Y421278D01*
X209295Y421577D01*
X208102Y422074D01*
X206909Y422770D01*
X205915Y423665D01*
X204918Y424761D01*
X204122Y425856D01*
X203526Y427049D01*
X203128Y428242D01*
X202929Y429534D01*
X202929Y430928D01*
X203029Y432324D01*
X203228Y433617D01*
X203725Y434910D01*
X204322Y436104D01*
X205119Y437199D01*
X206013Y438193D01*
X207107Y438989D01*
X208300Y439685D01*
X209493Y440083D01*
X210787Y440381D01*
X212182Y440481D01*
X212877Y440481D01*
X214269Y440282D01*
X215463Y439884D01*
X216657Y439386D01*
X217850Y438591D01*
X218844Y437696D01*
X219741Y436600D01*
X220537Y435506D01*
X221034Y434313D01*
X221432Y433019D01*
X221631Y431726D01*
X221631Y430234D01*
X221432Y428939D01*
X221133Y427645D01*
X220636Y426452D01*
X219939Y425257D01*
X219142Y424162D01*
X218148Y423168D01*
X217054Y422372D01*
X215861Y421776D01*
X214669Y421378D01*
X213275Y421179D01*
X211882Y421080D01*
X210589Y421278D01*
G37*
%LPD*%
%LPC*%
G36*
X299087Y421079D02*
X299087Y421079D01*
X297815Y421471D01*
X297329Y422442D01*
X297329Y438718D01*
X297815Y439689D01*
X299087Y440081D01*
X305474Y440081D01*
X306767Y439783D01*
X307961Y439384D01*
X309154Y438788D01*
X310249Y437992D01*
X311343Y436997D01*
X312139Y435902D01*
X312836Y434807D01*
X313333Y433615D01*
X313631Y432323D01*
X313731Y430930D01*
X313631Y429536D01*
X313432Y428241D01*
X313034Y426949D01*
X312438Y425756D01*
X311642Y424662D01*
X310646Y423666D01*
X309651Y422770D01*
X308458Y422074D01*
X307265Y421577D01*
X305971Y421278D01*
X304676Y421079D01*
X299087Y421079D01*
G37*
%LPD*%
%LPC*%
G36*
X300483Y371549D02*
X300483Y371549D01*
X299001Y371747D01*
X298228Y372424D01*
X298129Y373902D01*
X298129Y388893D01*
X298422Y389967D01*
X299295Y390452D01*
X300382Y390551D01*
X305776Y390551D01*
X307069Y390352D01*
X308363Y389954D01*
X309558Y389456D01*
X310750Y388761D01*
X312741Y386769D01*
X313436Y385677D01*
X313934Y384483D01*
X314332Y383189D01*
X314531Y381896D01*
X314531Y380503D01*
X314332Y379111D01*
X313934Y377817D01*
X313436Y376623D01*
X312740Y375529D01*
X311844Y374434D01*
X310850Y373539D01*
X309655Y372742D01*
X308562Y372146D01*
X307271Y371848D01*
X305974Y371649D01*
X304578Y371549D01*
X300483Y371549D01*
G37*
%LPD*%
%LPC*%
G36*
X184883Y170889D02*
X184883Y170889D01*
X183303Y171087D01*
X182626Y171763D01*
X182429Y173143D01*
X182429Y188134D01*
X182723Y189307D01*
X183595Y189792D01*
X184682Y189891D01*
X190077Y189891D01*
X191469Y189692D01*
X192663Y189294D01*
X193858Y188796D01*
X195050Y188101D01*
X197041Y186109D01*
X197736Y185017D01*
X198234Y183823D01*
X198632Y182529D01*
X198831Y181236D01*
X198831Y179843D01*
X198632Y178449D01*
X198333Y177157D01*
X197737Y175964D01*
X197041Y174870D01*
X196144Y173874D01*
X195148Y172878D01*
X194056Y172083D01*
X192863Y171586D01*
X191569Y171188D01*
X190274Y170989D01*
X188878Y170889D01*
X184883Y170889D01*
G37*
%LPD*%
%LPC*%
G36*
X206283Y320749D02*
X206283Y320749D01*
X204700Y320947D01*
X203827Y321626D01*
X203729Y322802D01*
X203729Y337796D01*
X203926Y338975D01*
X204700Y339652D01*
X206282Y339751D01*
X213075Y339751D01*
X214463Y339453D01*
X215552Y338859D01*
X216644Y337966D01*
X217437Y336876D01*
X217932Y335687D01*
X218130Y334398D01*
X218031Y333009D01*
X217634Y331719D01*
X217137Y330824D01*
X217143Y330781D01*
X217140Y330771D01*
X217937Y329676D01*
X218432Y328487D01*
X218631Y327098D01*
X218531Y325708D01*
X218232Y324512D01*
X218256Y324457D01*
X218263Y324461D01*
X218266Y324453D01*
X218289Y324446D01*
X218242Y324427D01*
X218238Y324426D01*
X217541Y323330D01*
X216647Y322337D01*
X215554Y321542D01*
X214365Y320948D01*
X213076Y320749D01*
X206283Y320749D01*
G37*
%LPD*%
%LPC*%
G36*
X195603Y421276D02*
X195603Y421276D01*
X194728Y422152D01*
X194629Y423532D01*
X194629Y431630D01*
X194593Y431677D01*
X194586Y431672D01*
X194580Y431679D01*
X194180Y431679D01*
X194151Y431658D01*
X194138Y431656D01*
X193439Y430558D01*
X190843Y427063D01*
X189858Y426176D01*
X188588Y425981D01*
X187412Y426569D01*
X186019Y428360D01*
X185020Y429759D01*
X185019Y429759D01*
X185019Y429760D01*
X183219Y432160D01*
X183203Y432164D01*
X183193Y432177D01*
X183183Y432170D01*
X183162Y432176D01*
X183154Y432148D01*
X183131Y432130D01*
X183131Y422836D01*
X182838Y421664D01*
X181868Y421179D01*
X180191Y421179D01*
X179119Y421666D01*
X178726Y422747D01*
X178696Y422766D01*
X178691Y422778D01*
X178671Y422783D01*
X178723Y422807D01*
X178717Y422820D01*
X178727Y422828D01*
X178729Y422830D01*
X178729Y437728D01*
X178828Y439010D01*
X179605Y439884D01*
X181078Y440080D01*
X182358Y439785D01*
X183344Y438995D01*
X188240Y432401D01*
X188255Y432397D01*
X188256Y432387D01*
X189156Y431887D01*
X189215Y431895D01*
X189214Y431901D01*
X189220Y431901D01*
X192319Y436100D01*
X193818Y437999D01*
X194914Y439294D01*
X195798Y439982D01*
X197473Y440080D01*
X198643Y439690D01*
X199131Y438520D01*
X199131Y423630D01*
X199133Y423627D01*
X199131Y423623D01*
X199140Y423618D01*
X199167Y423583D01*
X199183Y423595D01*
X199192Y423590D01*
X199159Y423575D01*
X199149Y423555D01*
X199135Y423544D01*
X199138Y423540D01*
X199131Y423537D01*
X198933Y422051D01*
X198255Y421276D01*
X196880Y421080D01*
X195603Y421276D01*
G37*
%LPD*%
%LPC*%
G36*
X151906Y421376D02*
X151906Y421376D01*
X151422Y421956D01*
X149725Y425949D01*
X149702Y425962D01*
X149699Y425975D01*
X148499Y426475D01*
X148486Y426472D01*
X148480Y426479D01*
X145680Y426479D01*
X145635Y426445D01*
X145633Y426444D01*
X145333Y425444D01*
X145336Y425434D01*
X145331Y425430D01*
X145331Y422741D01*
X144844Y421670D01*
X143673Y421280D01*
X141896Y421378D01*
X141025Y421959D01*
X140829Y423234D01*
X140829Y438126D01*
X141026Y439405D01*
X141801Y440083D01*
X143383Y440281D01*
X148776Y440281D01*
X150069Y440082D01*
X151260Y439685D01*
X152452Y438989D01*
X153545Y438095D01*
X154438Y437003D01*
X155034Y435811D01*
X155431Y434521D01*
X155531Y433132D01*
X155332Y431741D01*
X154935Y430551D01*
X154239Y429457D01*
X153540Y428458D01*
X153541Y428423D01*
X153534Y428412D01*
X153934Y427412D01*
X153936Y427411D01*
X153935Y427409D01*
X154535Y426111D01*
X155134Y424712D01*
X155531Y423621D01*
X155531Y422652D01*
X154554Y421772D01*
X153075Y421181D01*
X151906Y421376D01*
G37*
%LPD*%
%LPC*%
G36*
X215215Y472271D02*
X215215Y472271D01*
X214925Y472851D01*
X213125Y477149D01*
X213090Y477170D01*
X213084Y477179D01*
X211784Y477279D01*
X211781Y477278D01*
X211780Y477279D01*
X208980Y477279D01*
X208933Y477243D01*
X208937Y477238D01*
X208931Y477234D01*
X208831Y476034D01*
X208833Y476031D01*
X208831Y476030D01*
X208831Y473344D01*
X208249Y472374D01*
X206878Y472080D01*
X205203Y472277D01*
X204526Y472953D01*
X204329Y474234D01*
X204329Y489224D01*
X204623Y490400D01*
X205496Y490982D01*
X207181Y491081D01*
X212575Y490981D01*
X213768Y490782D01*
X214959Y490385D01*
X216250Y489590D01*
X217243Y488697D01*
X218038Y487604D01*
X218633Y486413D01*
X218931Y485123D01*
X219031Y483732D01*
X218832Y482343D01*
X218336Y481153D01*
X217638Y480056D01*
X217639Y480053D01*
X217636Y480052D01*
X217136Y479052D01*
X217142Y479020D01*
X217136Y479008D01*
X217635Y478010D01*
X218134Y476712D01*
X219129Y474225D01*
X218935Y473257D01*
X217855Y472374D01*
X216479Y471882D01*
X215215Y472271D01*
G37*
%LPD*%
%LPC*%
G36*
X941416Y3249D02*
X941416Y3249D01*
X940447Y3927D01*
X940349Y5204D01*
X940310Y5248D01*
X940305Y5244D01*
X940300Y5249D01*
X929100Y5349D01*
X929067Y5324D01*
X929056Y5322D01*
X928462Y4134D01*
X927382Y3447D01*
X926108Y3251D01*
X924933Y3839D01*
X924142Y4926D01*
X917545Y18221D01*
X916948Y19612D01*
X916851Y20685D01*
X917631Y21660D01*
X919109Y22350D01*
X920275Y22253D01*
X921058Y21274D01*
X921455Y20380D01*
X925555Y11280D01*
X925556Y11280D01*
X925555Y11279D01*
X926255Y9779D01*
X926257Y9778D01*
X926257Y9776D01*
X926263Y9775D01*
X926308Y9751D01*
X926317Y9768D01*
X926335Y9765D01*
X926735Y10165D01*
X926737Y10177D01*
X926745Y10179D01*
X931345Y19979D01*
X931344Y19982D01*
X931346Y19982D01*
X931843Y21274D01*
X932724Y22253D01*
X933890Y22350D01*
X934674Y21958D01*
X935857Y21070D01*
X936149Y20100D01*
X935754Y18718D01*
X929156Y5422D01*
X929156Y5420D01*
X929155Y5419D01*
X929157Y5417D01*
X929153Y5414D01*
X929159Y5405D01*
X929167Y5363D01*
X929187Y5367D01*
X929200Y5351D01*
X940300Y5251D01*
X940343Y5283D01*
X940347Y5284D01*
X940739Y6461D01*
X941908Y6851D01*
X959588Y6851D01*
X960755Y6267D01*
X960950Y5002D01*
X960658Y3736D01*
X959490Y3249D01*
X941416Y3249D01*
G37*
%LPD*%
%LPC*%
G36*
X224505Y220616D02*
X224505Y220616D01*
X223418Y221802D01*
X217820Y229199D01*
X216720Y230699D01*
X216718Y230700D01*
X216718Y230701D01*
X216318Y231201D01*
X216303Y231205D01*
X216293Y231217D01*
X216283Y231210D01*
X216261Y231215D01*
X216254Y231187D01*
X216231Y231170D01*
X216231Y221784D01*
X215648Y220812D01*
X214276Y220420D01*
X212605Y220617D01*
X211928Y221390D01*
X211829Y222672D01*
X211829Y237664D01*
X212122Y238836D01*
X213292Y239421D01*
X214670Y239421D01*
X215850Y238929D01*
X216841Y237740D01*
X220840Y232241D01*
X220841Y232241D01*
X220840Y232241D01*
X223440Y228741D01*
X223461Y228735D01*
X223464Y228723D01*
X223764Y228623D01*
X223766Y228624D01*
X223767Y228623D01*
X223770Y228625D01*
X223821Y228642D01*
X223815Y228659D01*
X223829Y228670D01*
X223829Y236868D01*
X223928Y238355D01*
X224313Y239029D01*
X225488Y239421D01*
X226967Y239421D01*
X228037Y238837D01*
X228331Y237662D01*
X228431Y236168D01*
X228431Y222676D01*
X228135Y221393D01*
X227455Y220617D01*
X225781Y220420D01*
X224505Y220616D01*
G37*
%LPD*%
%LPC*%
G36*
X850525Y3446D02*
X850525Y3446D01*
X849438Y4631D01*
X844639Y11030D01*
X842739Y13530D01*
X842738Y13530D01*
X842738Y13531D01*
X842338Y14031D01*
X842323Y14035D01*
X842313Y14047D01*
X842303Y14040D01*
X842281Y14045D01*
X842274Y14017D01*
X842251Y14000D01*
X842251Y4614D01*
X841667Y3642D01*
X840395Y3250D01*
X838723Y3447D01*
X837948Y4222D01*
X837849Y5502D01*
X837849Y20494D01*
X838142Y21666D01*
X839312Y22251D01*
X840690Y22251D01*
X841870Y21759D01*
X842861Y20570D01*
X846860Y15071D01*
X846861Y15071D01*
X846861Y15070D01*
X849461Y11670D01*
X849476Y11666D01*
X849478Y11656D01*
X849878Y11456D01*
X849883Y11457D01*
X849887Y11453D01*
X849895Y11459D01*
X849936Y11467D01*
X849933Y11487D01*
X849949Y11500D01*
X849949Y21088D01*
X850335Y21860D01*
X851508Y22251D01*
X852987Y22251D01*
X854057Y21667D01*
X854351Y20492D01*
X854451Y18998D01*
X854451Y5506D01*
X854155Y4223D01*
X853475Y3447D01*
X851801Y3250D01*
X850525Y3446D01*
G37*
%LPD*%
%LPC*%
G36*
X205511Y271611D02*
X205511Y271611D01*
X197919Y281700D01*
X197868Y281714D01*
X197864Y281717D01*
X197564Y281617D01*
X197534Y281573D01*
X197531Y281570D01*
X197531Y273372D01*
X197432Y272192D01*
X196657Y271417D01*
X194984Y271220D01*
X193614Y271611D01*
X193129Y272582D01*
X193129Y287468D01*
X193228Y288955D01*
X193811Y289927D01*
X195084Y290220D01*
X196365Y290122D01*
X197346Y289533D01*
X198541Y287940D01*
X202441Y282740D01*
X204940Y279341D01*
X204949Y279338D01*
X204952Y279329D01*
X204965Y279334D01*
X204997Y279324D01*
X205004Y279347D01*
X205027Y279354D01*
X205227Y279954D01*
X205225Y279960D01*
X205227Y279962D01*
X205224Y279966D01*
X205229Y279970D01*
X205229Y288168D01*
X205328Y289445D01*
X205903Y289925D01*
X207184Y290220D01*
X208558Y290122D01*
X209435Y289245D01*
X209731Y287964D01*
X209731Y274372D01*
X209631Y272980D01*
X209239Y271804D01*
X208366Y271319D01*
X206587Y271220D01*
X205511Y271611D01*
G37*
%LPD*%
%LPC*%
G36*
X201005Y371746D02*
X201005Y371746D01*
X199918Y372932D01*
X195019Y379330D01*
X192719Y382330D01*
X192703Y382334D01*
X192693Y382347D01*
X192683Y382340D01*
X192662Y382346D01*
X192654Y382318D01*
X192631Y382300D01*
X192631Y372914D01*
X192047Y371942D01*
X190775Y371550D01*
X189103Y371747D01*
X188328Y372522D01*
X188229Y373802D01*
X188229Y388794D01*
X188522Y389966D01*
X189692Y390551D01*
X191169Y390551D01*
X192249Y390060D01*
X193241Y388870D01*
X197240Y383371D01*
X197241Y383371D01*
X197240Y383371D01*
X199840Y379871D01*
X199863Y379864D01*
X199868Y379852D01*
X200268Y379752D01*
X200323Y379776D01*
X200317Y379790D01*
X200329Y379800D01*
X200329Y387998D01*
X200428Y389474D01*
X201896Y390551D01*
X203367Y390551D01*
X204437Y389967D01*
X204731Y388792D01*
X204831Y387298D01*
X204831Y373804D01*
X204634Y372523D01*
X203857Y371747D01*
X202281Y371550D01*
X201005Y371746D01*
G37*
%LPD*%
%LPC*%
G36*
X162700Y170988D02*
X162700Y170988D01*
X161827Y171764D01*
X161729Y172942D01*
X161729Y187936D01*
X161925Y189208D01*
X162994Y189792D01*
X164373Y189890D01*
X165651Y189398D01*
X166542Y188409D01*
X169741Y184111D01*
X169741Y184110D01*
X172140Y180911D01*
X173239Y179312D01*
X173250Y179308D01*
X173250Y179301D01*
X173650Y179001D01*
X173661Y179001D01*
X173667Y178993D01*
X173677Y179001D01*
X173710Y179001D01*
X173710Y179025D01*
X173729Y179040D01*
X173729Y187138D01*
X173828Y188616D01*
X175298Y189891D01*
X176670Y189891D01*
X177840Y189403D01*
X178231Y188232D01*
X178231Y173242D01*
X178132Y171960D01*
X177454Y171185D01*
X175879Y170890D01*
X174502Y171087D01*
X173417Y172073D01*
X168520Y178569D01*
X166220Y181669D01*
X166205Y181674D01*
X166197Y181686D01*
X166186Y181679D01*
X166162Y181686D01*
X166155Y181659D01*
X166131Y181644D01*
X166031Y180444D01*
X166033Y180441D01*
X166031Y180440D01*
X166031Y172349D01*
X165642Y171280D01*
X164374Y170890D01*
X162700Y170988D01*
G37*
%LPD*%
%LPC*%
G36*
X290105Y371746D02*
X290105Y371746D01*
X289018Y372932D01*
X284120Y379329D01*
X282320Y381829D01*
X282314Y381831D01*
X282315Y381835D01*
X281815Y382335D01*
X281801Y382337D01*
X281793Y382347D01*
X281783Y382339D01*
X281756Y382343D01*
X281752Y382316D01*
X281731Y382300D01*
X281731Y372912D01*
X281246Y371941D01*
X279876Y371550D01*
X278203Y371747D01*
X277429Y372520D01*
X277429Y388893D01*
X277722Y389966D01*
X278892Y390551D01*
X280269Y390551D01*
X281350Y390059D01*
X282442Y388869D01*
X286440Y383371D01*
X286441Y383371D01*
X286440Y383371D01*
X289040Y379871D01*
X289072Y379862D01*
X289080Y379851D01*
X289380Y379851D01*
X289427Y379887D01*
X289422Y379894D01*
X289427Y379898D01*
X289429Y379900D01*
X289429Y387998D01*
X289528Y389474D01*
X290996Y390551D01*
X292467Y390551D01*
X293539Y389966D01*
X293931Y388792D01*
X293931Y373804D01*
X293734Y372522D01*
X293055Y371747D01*
X291381Y371550D01*
X290105Y371746D01*
G37*
%LPD*%
%LPC*%
G36*
X172506Y320946D02*
X172506Y320946D01*
X171418Y322231D01*
X165220Y330329D01*
X164720Y331029D01*
X164714Y331030D01*
X164715Y331035D01*
X164215Y331535D01*
X164201Y331537D01*
X164193Y331547D01*
X164183Y331539D01*
X164156Y331543D01*
X164152Y331516D01*
X164131Y331500D01*
X164131Y322013D01*
X163647Y321142D01*
X162276Y320750D01*
X160605Y320947D01*
X159928Y321720D01*
X159829Y323002D01*
X159829Y338093D01*
X160122Y339166D01*
X161292Y339751D01*
X162670Y339751D01*
X163849Y339260D01*
X164841Y337970D01*
X168840Y332571D01*
X171440Y329071D01*
X171472Y329062D01*
X171480Y329051D01*
X171780Y329051D01*
X171827Y329087D01*
X171822Y329094D01*
X171827Y329098D01*
X171829Y329100D01*
X171829Y337198D01*
X171928Y338685D01*
X172313Y339359D01*
X173486Y339750D01*
X174966Y339652D01*
X176037Y339067D01*
X176331Y337894D01*
X176331Y322904D01*
X176134Y321724D01*
X175357Y320947D01*
X173681Y320750D01*
X172506Y320946D01*
G37*
%LPD*%
%LPC*%
G36*
X177182Y271219D02*
X177182Y271219D01*
X175691Y271319D01*
X174521Y271807D01*
X174229Y272779D01*
X174129Y274174D01*
X174102Y274205D01*
X174099Y274216D01*
X174072Y274227D01*
X174073Y274228D01*
X174119Y274240D01*
X174114Y274258D01*
X174129Y274270D01*
X174129Y287767D01*
X174327Y289249D01*
X175005Y290024D01*
X176383Y290221D01*
X187272Y290221D01*
X188444Y289830D01*
X188931Y288759D01*
X188931Y287124D01*
X188875Y287119D01*
X188847Y287093D01*
X188835Y287090D01*
X188345Y286011D01*
X187273Y285719D01*
X179080Y285719D01*
X179042Y285690D01*
X179034Y285688D01*
X178634Y284688D01*
X178638Y284675D01*
X178631Y284670D01*
X178631Y283270D01*
X178667Y283223D01*
X179767Y282923D01*
X179776Y282926D01*
X179780Y282921D01*
X183778Y282921D01*
X185158Y282822D01*
X185933Y282047D01*
X186130Y280474D01*
X185738Y279103D01*
X184864Y278617D01*
X183477Y278419D01*
X179380Y278419D01*
X179359Y278403D01*
X179345Y278405D01*
X178645Y277705D01*
X178642Y277681D01*
X178633Y277674D01*
X178634Y277672D01*
X178631Y277670D01*
X178631Y276270D01*
X178654Y276239D01*
X178656Y276227D01*
X179556Y275727D01*
X179573Y275729D01*
X179580Y275721D01*
X186378Y275721D01*
X187667Y275622D01*
X188636Y275137D01*
X188930Y273668D01*
X188733Y272091D01*
X188056Y271318D01*
X186678Y271219D01*
X177182Y271219D01*
G37*
%LPD*%
%LPC*%
G36*
X142985Y320749D02*
X142985Y320749D01*
X141508Y321045D01*
X140928Y321818D01*
X140829Y323202D01*
X140829Y336798D01*
X140929Y338289D01*
X141326Y339282D01*
X141310Y339339D01*
X141304Y339337D01*
X141303Y339344D01*
X141281Y339355D01*
X141292Y339355D01*
X141293Y339356D01*
X141297Y339354D01*
X142389Y339751D01*
X153376Y339751D01*
X154658Y339554D01*
X155433Y338875D01*
X155630Y337302D01*
X155336Y335832D01*
X154466Y335348D01*
X153078Y335249D01*
X146280Y335249D01*
X146268Y335240D01*
X146260Y335245D01*
X145360Y334845D01*
X145338Y334806D01*
X145331Y334800D01*
X145331Y333400D01*
X145341Y333386D01*
X145337Y333376D01*
X145837Y332476D01*
X145873Y332460D01*
X145880Y332451D01*
X151269Y332451D01*
X152341Y331964D01*
X152730Y330893D01*
X152632Y329118D01*
X151952Y328244D01*
X150774Y327949D01*
X146680Y327949D01*
X146678Y327947D01*
X146676Y327949D01*
X145376Y327849D01*
X145332Y327810D01*
X145336Y327804D01*
X145331Y327800D01*
X145331Y326400D01*
X145338Y326390D01*
X145334Y326383D01*
X145734Y325283D01*
X145776Y325256D01*
X145780Y325251D01*
X153974Y325251D01*
X155143Y324959D01*
X155531Y323891D01*
X155531Y322111D01*
X155045Y321042D01*
X153874Y320749D01*
X142985Y320749D01*
G37*
%LPD*%
%LPC*%
G36*
X226182Y471879D02*
X226182Y471879D01*
X224692Y471979D01*
X223621Y472465D01*
X223329Y473537D01*
X223329Y488527D01*
X223527Y490007D01*
X224203Y490683D01*
X225683Y490881D01*
X236571Y490881D01*
X237643Y490491D01*
X238130Y489322D01*
X238032Y487545D01*
X237450Y486575D01*
X236276Y486379D01*
X228080Y486379D01*
X228033Y486343D01*
X228035Y486340D01*
X228032Y486339D01*
X227832Y485239D01*
X227835Y485233D01*
X227831Y485230D01*
X227831Y483830D01*
X227867Y483783D01*
X227870Y483785D01*
X227872Y483781D01*
X229072Y483581D01*
X229077Y483584D01*
X229080Y483581D01*
X233076Y483581D01*
X234357Y483384D01*
X235132Y482608D01*
X235230Y481036D01*
X234838Y479761D01*
X233964Y479178D01*
X232478Y479079D01*
X228380Y479079D01*
X228351Y479057D01*
X228338Y479056D01*
X227838Y478256D01*
X227840Y478240D01*
X227833Y478235D01*
X227834Y478233D01*
X227831Y478230D01*
X227831Y476830D01*
X227860Y476792D01*
X227862Y476784D01*
X228862Y476384D01*
X228875Y476388D01*
X228880Y476381D01*
X235678Y476381D01*
X236963Y476282D01*
X237934Y475602D01*
X238130Y474132D01*
X237835Y472656D01*
X237060Y471978D01*
X235678Y471879D01*
X226182Y471879D01*
G37*
%LPD*%
%LPC*%
G36*
X162982Y421079D02*
X162982Y421079D01*
X161389Y421179D01*
X160217Y421570D01*
X159829Y422539D01*
X159829Y423930D01*
X159793Y423977D01*
X159784Y423970D01*
X159777Y423979D01*
X159732Y423976D01*
X159785Y423981D01*
X159828Y424021D01*
X159824Y424026D01*
X159829Y424030D01*
X159829Y437528D01*
X159928Y439012D01*
X160508Y439786D01*
X161885Y440081D01*
X172874Y440081D01*
X174046Y439788D01*
X174531Y438818D01*
X174531Y437040D01*
X174044Y435871D01*
X172973Y435579D01*
X164780Y435579D01*
X164744Y435552D01*
X164735Y435550D01*
X164335Y434650D01*
X164338Y434636D01*
X164331Y434630D01*
X164331Y433230D01*
X164358Y433194D01*
X164360Y433185D01*
X165260Y432785D01*
X165274Y432788D01*
X165280Y432781D01*
X169378Y432781D01*
X170661Y432682D01*
X171534Y432004D01*
X171730Y430532D01*
X171436Y429060D01*
X170562Y428477D01*
X169177Y428279D01*
X165080Y428279D01*
X165061Y428265D01*
X165048Y428267D01*
X164348Y427667D01*
X164342Y427639D01*
X164333Y427632D01*
X164331Y427630D01*
X164331Y426330D01*
X164349Y426307D01*
X164348Y426293D01*
X165148Y425593D01*
X165172Y425591D01*
X165180Y425581D01*
X171978Y425581D01*
X173267Y425482D01*
X174239Y424995D01*
X174633Y423716D01*
X174664Y423693D01*
X174669Y423682D01*
X174689Y423677D01*
X174685Y423675D01*
X174682Y423679D01*
X174680Y423679D01*
X174661Y423665D01*
X174637Y423653D01*
X174639Y423648D01*
X174633Y423643D01*
X174636Y423639D01*
X174631Y423636D01*
X174433Y422051D01*
X173755Y421276D01*
X172476Y421079D01*
X162982Y421079D01*
G37*
%LPD*%
%LPC*%
G36*
X234283Y271219D02*
X234283Y271219D01*
X232701Y271417D01*
X231926Y272095D01*
X231729Y273274D01*
X231729Y288364D01*
X232023Y289638D01*
X232894Y290122D01*
X234482Y290221D01*
X243978Y290221D01*
X245267Y290122D01*
X246236Y289637D01*
X246530Y288168D01*
X246333Y286593D01*
X245558Y285818D01*
X244278Y285719D01*
X237480Y285719D01*
X237477Y285717D01*
X237476Y285719D01*
X236276Y285619D01*
X236232Y285579D01*
X236236Y285574D01*
X236231Y285570D01*
X236231Y284170D01*
X236234Y284165D01*
X236231Y284162D01*
X236431Y282962D01*
X236475Y282921D01*
X236478Y282924D01*
X236480Y282921D01*
X241874Y282921D01*
X243048Y282627D01*
X243631Y281656D01*
X243631Y279884D01*
X243046Y278909D01*
X241969Y278419D01*
X236480Y278419D01*
X236433Y278383D01*
X236435Y278380D01*
X236431Y278378D01*
X236231Y277178D01*
X236234Y277173D01*
X236231Y277170D01*
X236231Y275770D01*
X236267Y275723D01*
X236274Y275728D01*
X236280Y275721D01*
X244476Y275721D01*
X245755Y275524D01*
X246432Y274750D01*
X246530Y273075D01*
X246139Y271707D01*
X245169Y271319D01*
X243778Y271219D01*
X234283Y271219D01*
G37*
%LPD*%
%LPC*%
G36*
X251082Y421079D02*
X251082Y421079D01*
X249498Y421178D01*
X248625Y421857D01*
X248429Y422935D01*
X248429Y438027D01*
X248626Y439401D01*
X249496Y439982D01*
X250982Y440081D01*
X261769Y440081D01*
X262839Y439594D01*
X263230Y438325D01*
X263033Y436551D01*
X262355Y435776D01*
X261076Y435579D01*
X252980Y435579D01*
X252933Y435543D01*
X252938Y435536D01*
X252931Y435530D01*
X252931Y432830D01*
X252967Y432783D01*
X252974Y432788D01*
X252980Y432781D01*
X258374Y432781D01*
X259553Y432486D01*
X260232Y431710D01*
X260330Y429939D01*
X259843Y428768D01*
X258869Y428379D01*
X257378Y428279D01*
X253280Y428279D01*
X253235Y428245D01*
X253233Y428244D01*
X252933Y427244D01*
X252935Y427240D01*
X252933Y427238D01*
X252936Y427234D01*
X252931Y427230D01*
X252931Y425830D01*
X252967Y425783D01*
X252970Y425785D01*
X252972Y425781D01*
X254172Y425581D01*
X254177Y425584D01*
X254180Y425581D01*
X260976Y425581D01*
X262258Y425384D01*
X263033Y424705D01*
X263231Y423124D01*
X263273Y423081D01*
X263277Y423086D01*
X263281Y423081D01*
X263428Y423084D01*
X263279Y423079D01*
X263236Y423045D01*
X263233Y423044D01*
X262838Y421663D01*
X261966Y421178D01*
X260578Y421079D01*
X251082Y421079D01*
G37*
%LPD*%
%LPC*%
G36*
X242983Y320749D02*
X242983Y320749D01*
X241399Y320947D01*
X240625Y321528D01*
X240429Y322708D01*
X240385Y322749D01*
X240380Y322743D01*
X240374Y322749D01*
X240354Y322746D01*
X240387Y322751D01*
X240429Y322794D01*
X240425Y322797D01*
X240429Y322800D01*
X240429Y337794D01*
X240724Y339071D01*
X241498Y339652D01*
X243082Y339751D01*
X252478Y339751D01*
X253867Y339652D01*
X254839Y339165D01*
X255230Y337895D01*
X255033Y336221D01*
X254355Y335446D01*
X253076Y335249D01*
X244980Y335249D01*
X244933Y335213D01*
X244938Y335206D01*
X244931Y335200D01*
X244931Y332500D01*
X244967Y332453D01*
X244974Y332458D01*
X244980Y332451D01*
X250474Y332451D01*
X251650Y332157D01*
X252232Y331284D01*
X252330Y329610D01*
X251744Y328439D01*
X250769Y328049D01*
X249378Y327949D01*
X245280Y327949D01*
X245235Y327915D01*
X245233Y327914D01*
X244933Y326914D01*
X244935Y326910D01*
X244933Y326908D01*
X244936Y326904D01*
X244931Y326900D01*
X244931Y325300D01*
X244967Y325253D01*
X244974Y325258D01*
X244980Y325251D01*
X253076Y325251D01*
X254355Y325054D01*
X255033Y324279D01*
X255230Y322604D01*
X254839Y321237D01*
X253869Y320849D01*
X252478Y320749D01*
X242983Y320749D01*
G37*
%LPD*%
%LPC*%
G36*
X264785Y371649D02*
X264785Y371649D01*
X263391Y371848D01*
X262199Y372246D01*
X261006Y372842D01*
X259910Y373639D01*
X258816Y374534D01*
X258020Y375629D01*
X257223Y376724D01*
X256726Y377917D01*
X256328Y379211D01*
X256129Y380504D01*
X256129Y381898D01*
X256229Y383291D01*
X256626Y384583D01*
X257124Y385778D01*
X257821Y386972D01*
X258616Y387966D01*
X259711Y388962D01*
X260806Y389758D01*
X261999Y390354D01*
X263193Y390753D01*
X264487Y391051D01*
X265880Y391151D01*
X267172Y391051D01*
X268465Y390753D01*
X269659Y390256D01*
X270952Y389559D01*
X272035Y388673D01*
X272228Y387609D01*
X271442Y386232D01*
X270362Y385349D01*
X269392Y385349D01*
X268103Y386043D01*
X268097Y386042D01*
X268096Y386047D01*
X266896Y386447D01*
X266887Y386444D01*
X266884Y386449D01*
X265484Y386549D01*
X265477Y386545D01*
X265473Y386549D01*
X264073Y386349D01*
X264067Y386342D01*
X264061Y386345D01*
X262861Y385845D01*
X262855Y385835D01*
X262847Y385837D01*
X261847Y384937D01*
X261845Y384927D01*
X261838Y384926D01*
X261138Y383826D01*
X261139Y383819D01*
X261135Y383816D01*
X261133Y383816D01*
X260733Y382616D01*
X260736Y382607D01*
X260731Y382603D01*
X260631Y381103D01*
X260637Y381095D01*
X260632Y381089D01*
X260932Y379789D01*
X260937Y379785D01*
X260935Y379781D01*
X261435Y378581D01*
X261444Y378576D01*
X261442Y378569D01*
X262342Y377469D01*
X262351Y377467D01*
X262351Y377460D01*
X263451Y376660D01*
X263461Y376660D01*
X263462Y376654D01*
X264762Y376154D01*
X264772Y376157D01*
X264776Y376151D01*
X266076Y376051D01*
X266085Y376057D01*
X266090Y376052D01*
X267490Y376352D01*
X267502Y376365D01*
X267512Y376363D01*
X268312Y377063D01*
X268316Y377082D01*
X268327Y377090D01*
X268323Y377096D01*
X268329Y377100D01*
X268329Y378400D01*
X268323Y378408D01*
X268328Y378413D01*
X268028Y379513D01*
X267980Y379549D01*
X266582Y379549D01*
X265209Y379647D01*
X264630Y380612D01*
X264728Y382085D01*
X265310Y383054D01*
X266783Y383251D01*
X270873Y383251D01*
X272247Y382858D01*
X272732Y381986D01*
X272831Y380498D01*
X272831Y375112D01*
X272240Y373931D01*
X271350Y373139D01*
X270259Y372445D01*
X269067Y372048D01*
X267672Y371749D01*
X266179Y371549D01*
X264785Y371649D01*
G37*
%LPD*%
%LPC*%
G36*
X149284Y170889D02*
X149284Y170889D01*
X147991Y171088D01*
X146699Y171486D01*
X145504Y172083D01*
X144409Y172780D01*
X143315Y173675D01*
X142420Y174769D01*
X141723Y175864D01*
X141126Y177059D01*
X140728Y178251D01*
X140529Y179645D01*
X140429Y181040D01*
X140529Y182433D01*
X140827Y183725D01*
X141324Y184919D01*
X141923Y186016D01*
X141914Y186075D01*
X141912Y186075D01*
X141912Y186077D01*
X141888Y186099D01*
X141890Y186100D01*
X141907Y186099D01*
X141908Y186108D01*
X141917Y186107D01*
X142816Y187106D01*
X143812Y188102D01*
X144908Y188899D01*
X146001Y189595D01*
X147293Y189992D01*
X148589Y190292D01*
X149882Y190490D01*
X151172Y190391D01*
X152468Y190092D01*
X153761Y189694D01*
X154954Y189098D01*
X156139Y188209D01*
X156527Y187141D01*
X156038Y185867D01*
X154956Y184785D01*
X153987Y184592D01*
X151501Y185784D01*
X151491Y185782D01*
X151487Y185789D01*
X150087Y185989D01*
X150078Y185984D01*
X150073Y185989D01*
X148673Y185789D01*
X148667Y185782D01*
X148661Y185785D01*
X147461Y185285D01*
X147457Y185278D01*
X147451Y185280D01*
X146351Y184480D01*
X146348Y184471D01*
X146342Y184471D01*
X145542Y183471D01*
X145541Y183461D01*
X145535Y183459D01*
X145035Y182259D01*
X145037Y182248D01*
X145031Y182243D01*
X144931Y180743D01*
X144935Y180737D01*
X144931Y180733D01*
X145131Y179433D01*
X145137Y179427D01*
X145134Y179422D01*
X145634Y178122D01*
X145643Y178117D01*
X145642Y178109D01*
X146442Y177109D01*
X146447Y177108D01*
X146447Y177104D01*
X147547Y176104D01*
X147559Y176102D01*
X147561Y176095D01*
X148761Y175595D01*
X148770Y175597D01*
X148773Y175591D01*
X150073Y175391D01*
X150082Y175396D01*
X150087Y175391D01*
X151487Y175591D01*
X151494Y175599D01*
X151500Y175595D01*
X152600Y176095D01*
X152618Y176128D01*
X152627Y176135D01*
X152626Y176137D01*
X152629Y176140D01*
X152629Y178840D01*
X152593Y178887D01*
X152587Y178882D01*
X152582Y178889D01*
X149801Y178989D01*
X149028Y179762D01*
X148930Y181132D01*
X149416Y182298D01*
X150586Y182591D01*
X154875Y182591D01*
X156354Y182295D01*
X157032Y181520D01*
X157131Y180038D01*
X157131Y174648D01*
X156737Y173467D01*
X155849Y172579D01*
X154756Y171883D01*
X153664Y171387D01*
X152272Y171089D01*
X150777Y170889D01*
X149284Y170889D01*
G37*
%LPD*%
%LPC*%
G36*
X175585Y371649D02*
X175585Y371649D01*
X174292Y371848D01*
X173099Y372246D01*
X171904Y372843D01*
X170810Y373539D01*
X169716Y374534D01*
X168820Y375629D01*
X168124Y376723D01*
X167626Y377917D01*
X167228Y379211D01*
X167029Y380504D01*
X167029Y381898D01*
X167129Y383293D01*
X167427Y384585D01*
X167924Y385778D01*
X168620Y386971D01*
X169516Y387966D01*
X170512Y388962D01*
X171606Y389758D01*
X172799Y390354D01*
X174093Y390752D01*
X175388Y391051D01*
X176680Y391151D01*
X178072Y391051D01*
X179265Y390753D01*
X180559Y390255D01*
X181752Y389559D01*
X182835Y388673D01*
X183029Y387607D01*
X182341Y386231D01*
X181262Y385349D01*
X180292Y385349D01*
X179003Y386043D01*
X178997Y386042D01*
X178996Y386047D01*
X177796Y386447D01*
X177789Y386444D01*
X177787Y386449D01*
X176287Y386649D01*
X176275Y386643D01*
X176269Y386648D01*
X174969Y386348D01*
X174965Y386343D01*
X174961Y386345D01*
X173761Y385845D01*
X173755Y385835D01*
X173747Y385837D01*
X172747Y384937D01*
X172746Y384931D01*
X172742Y384931D01*
X171942Y383931D01*
X171941Y383920D01*
X171935Y383915D01*
X171933Y383914D01*
X171533Y382614D01*
X171537Y382604D01*
X171531Y382600D01*
X171531Y381100D01*
X171534Y381095D01*
X171531Y381093D01*
X171731Y379793D01*
X171739Y379785D01*
X171736Y379778D01*
X172336Y378578D01*
X172343Y378574D01*
X172342Y378569D01*
X173242Y377469D01*
X173251Y377467D01*
X173251Y377460D01*
X174351Y376660D01*
X174360Y376660D01*
X174361Y376655D01*
X175561Y376155D01*
X175572Y376157D01*
X175577Y376151D01*
X176977Y376051D01*
X176983Y376055D01*
X176988Y376051D01*
X178288Y376251D01*
X178303Y376267D01*
X178315Y376265D01*
X179115Y377065D01*
X179117Y377083D01*
X179127Y377090D01*
X179123Y377096D01*
X179129Y377100D01*
X179129Y378400D01*
X179125Y378405D01*
X179128Y378409D01*
X178928Y379509D01*
X178885Y379549D01*
X178882Y379546D01*
X178880Y379549D01*
X177482Y379549D01*
X176109Y379647D01*
X175529Y380614D01*
X175529Y382084D01*
X176208Y383054D01*
X177583Y383251D01*
X181673Y383251D01*
X183049Y382858D01*
X183631Y381985D01*
X183631Y375110D01*
X183139Y373931D01*
X182150Y373139D01*
X181158Y372444D01*
X179967Y372048D01*
X178572Y371749D01*
X177078Y371549D01*
X175585Y371649D01*
G37*
%LPD*%
%LPC*%
G36*
X966238Y3738D02*
X966238Y3738D01*
X965849Y4711D01*
X965749Y6102D01*
X965749Y20986D01*
X966331Y21956D01*
X967705Y22251D01*
X973198Y22251D01*
X974492Y22151D01*
X975684Y21853D01*
X976976Y21257D01*
X978169Y20462D01*
X979061Y19570D01*
X979757Y18377D01*
X980356Y17178D01*
X980451Y16988D01*
X980451Y15702D01*
X980351Y14307D01*
X980053Y13017D01*
X979458Y11826D01*
X978663Y10733D01*
X977672Y9841D01*
X976380Y9145D01*
X975189Y8748D01*
X973896Y8549D01*
X971200Y8549D01*
X971186Y8539D01*
X971176Y8543D01*
X970276Y8043D01*
X970260Y8007D01*
X970251Y8000D01*
X970251Y5304D01*
X970054Y4027D01*
X969182Y3348D01*
X967508Y3250D01*
X966238Y3738D01*
G37*
%LPD*%
%LPC*%
G36*
X770221Y3447D02*
X770221Y3447D01*
X769446Y4125D01*
X769249Y5503D01*
X769249Y20394D01*
X769543Y21668D01*
X770414Y22151D01*
X772192Y22250D01*
X773362Y21763D01*
X773751Y20789D01*
X773851Y19298D01*
X773851Y15300D01*
X773865Y15281D01*
X773863Y15268D01*
X774463Y14568D01*
X774492Y14562D01*
X774500Y14551D01*
X779900Y14551D01*
X779914Y14561D01*
X779924Y14557D01*
X780824Y15057D01*
X780837Y15087D01*
X780847Y15094D01*
X780845Y15097D01*
X780849Y15100D01*
X780849Y20594D01*
X781143Y21768D01*
X781617Y22053D01*
X782900Y22250D01*
X784278Y22053D01*
X785154Y21275D01*
X785351Y19993D01*
X785394Y19951D01*
X785401Y19958D01*
X785408Y19952D01*
X785390Y19948D01*
X785351Y19903D01*
X785353Y19902D01*
X785351Y19900D01*
X785351Y6402D01*
X785251Y5010D01*
X784859Y3834D01*
X783987Y3349D01*
X782211Y3349D01*
X781142Y3835D01*
X780849Y5006D01*
X780849Y10400D01*
X780820Y10438D01*
X780818Y10446D01*
X779818Y10846D01*
X779805Y10842D01*
X779800Y10849D01*
X774400Y10849D01*
X774371Y10827D01*
X774358Y10826D01*
X773858Y10026D01*
X773860Y10007D01*
X773851Y10000D01*
X773851Y5902D01*
X773752Y4614D01*
X773168Y3543D01*
X771798Y3250D01*
X770221Y3447D01*
G37*
%LPD*%
%LPC*%
G36*
X898025Y3447D02*
X898025Y3447D01*
X897348Y4220D01*
X897249Y5602D01*
X897249Y20494D01*
X897542Y21666D01*
X898513Y22151D01*
X900289Y22250D01*
X901361Y21665D01*
X901751Y20691D01*
X901751Y15200D01*
X901770Y15174D01*
X901770Y15161D01*
X902570Y14561D01*
X902592Y14561D01*
X902600Y14551D01*
X908000Y14551D01*
X908019Y14565D01*
X908032Y14563D01*
X908732Y15163D01*
X908737Y15185D01*
X908747Y15193D01*
X908745Y15197D01*
X908749Y15200D01*
X908749Y20686D01*
X909629Y22054D01*
X911000Y22250D01*
X912278Y22054D01*
X913152Y21277D01*
X913251Y19898D01*
X913251Y4909D01*
X912861Y3836D01*
X911789Y3349D01*
X910014Y3349D01*
X909042Y3932D01*
X908749Y5007D01*
X908749Y10500D01*
X908713Y10547D01*
X908713Y10548D01*
X907613Y10848D01*
X907604Y10844D01*
X907600Y10849D01*
X902200Y10849D01*
X902164Y10822D01*
X902155Y10820D01*
X901755Y9920D01*
X901758Y9906D01*
X901751Y9900D01*
X901751Y5802D01*
X901652Y4515D01*
X901069Y3544D01*
X899698Y3250D01*
X898025Y3447D01*
G37*
%LPD*%
%LPC*%
G36*
X156582Y220419D02*
X156582Y220419D01*
X155196Y220518D01*
X154120Y221203D01*
X153630Y222378D01*
X153729Y223659D01*
X154223Y224944D01*
X155114Y225934D01*
X156209Y226830D01*
X157306Y227528D01*
X159705Y228927D01*
X159706Y228931D01*
X159709Y228930D01*
X160809Y229730D01*
X160810Y229734D01*
X160813Y229733D01*
X161813Y230633D01*
X161814Y230641D01*
X161820Y230641D01*
X162620Y231741D01*
X162620Y231755D01*
X162628Y231758D01*
X162928Y232958D01*
X162920Y232977D01*
X162926Y232988D01*
X162426Y234288D01*
X162407Y234299D01*
X162406Y234312D01*
X161306Y235012D01*
X161292Y235010D01*
X161288Y235019D01*
X159988Y235219D01*
X159967Y235208D01*
X159955Y235213D01*
X158755Y234513D01*
X158747Y234492D01*
X158735Y234489D01*
X158235Y233289D01*
X158237Y233280D01*
X158231Y233277D01*
X158032Y231885D01*
X157545Y230910D01*
X156373Y230520D01*
X154596Y230618D01*
X153725Y231199D01*
X153530Y232472D01*
X153629Y233862D01*
X153927Y235054D01*
X154523Y236345D01*
X155317Y237437D01*
X156310Y238331D01*
X157403Y239026D01*
X158593Y239522D01*
X159982Y239721D01*
X161473Y239621D01*
X162765Y239323D01*
X163956Y238827D01*
X165047Y238033D01*
X165941Y237040D01*
X166636Y235947D01*
X167135Y234751D01*
X167179Y234725D01*
X167158Y234714D01*
X167134Y234666D01*
X167131Y234663D01*
X167331Y233364D01*
X167430Y231974D01*
X167133Y230685D01*
X166636Y229493D01*
X165842Y228301D01*
X164848Y227307D01*
X163652Y226411D01*
X162557Y225714D01*
X161562Y225316D01*
X161555Y225305D01*
X161544Y225303D01*
X161546Y225290D01*
X161531Y225265D01*
X161553Y225251D01*
X161558Y225226D01*
X162158Y224926D01*
X162174Y224929D01*
X162180Y224921D01*
X164879Y224921D01*
X167063Y224821D01*
X168035Y224142D01*
X168230Y222868D01*
X168132Y221490D01*
X167355Y220616D01*
X166076Y220419D01*
X156582Y220419D01*
G37*
%LPD*%
%LPC*%
G36*
X275102Y421574D02*
X275102Y421574D01*
X273820Y422363D01*
X273433Y423331D01*
X273925Y424711D01*
X280424Y438108D01*
X281019Y439299D01*
X282101Y440183D01*
X283371Y440379D01*
X284446Y439793D01*
X285237Y438606D01*
X291735Y425210D01*
X292332Y423818D01*
X292429Y422847D01*
X291550Y421870D01*
X290071Y421180D01*
X288904Y421277D01*
X288121Y422158D01*
X286924Y424651D01*
X286912Y424658D01*
X286913Y424667D01*
X286013Y425467D01*
X285988Y425469D01*
X285980Y425479D01*
X280580Y425479D01*
X280575Y425476D01*
X280573Y425479D01*
X279273Y425279D01*
X279249Y425255D01*
X279236Y425252D01*
X277443Y421667D01*
X276278Y421084D01*
X275102Y421574D01*
G37*
%LPD*%
%LPC*%
G36*
X209803Y372044D02*
X209803Y372044D01*
X208524Y372929D01*
X208331Y373896D01*
X208825Y375281D01*
X215324Y388678D01*
X215919Y389867D01*
X216998Y390652D01*
X218269Y390750D01*
X219346Y390163D01*
X220137Y388976D01*
X226635Y375580D01*
X227231Y374190D01*
X227231Y373220D01*
X226252Y372242D01*
X224874Y371651D01*
X223705Y371846D01*
X222921Y372728D01*
X221724Y375221D01*
X221709Y375229D01*
X221708Y375240D01*
X220708Y375940D01*
X220687Y375940D01*
X220680Y375949D01*
X215280Y375949D01*
X215273Y375944D01*
X215268Y375948D01*
X214068Y375648D01*
X214049Y375625D01*
X214036Y375622D01*
X212244Y372038D01*
X211079Y371553D01*
X209803Y372044D01*
G37*
%LPD*%
%LPC*%
G36*
X195111Y321043D02*
X195111Y321043D01*
X194423Y322124D01*
X193224Y324621D01*
X193204Y324632D01*
X193202Y324644D01*
X192202Y325144D01*
X192186Y325141D01*
X192180Y325149D01*
X186680Y325149D01*
X186670Y325142D01*
X186663Y325146D01*
X185563Y324746D01*
X185549Y324725D01*
X185536Y324722D01*
X184337Y322324D01*
X183646Y321239D01*
X182579Y320754D01*
X181205Y321343D01*
X180027Y322226D01*
X179930Y323194D01*
X180425Y324581D01*
X186924Y337977D01*
X187517Y339066D01*
X188697Y339852D01*
X189969Y339950D01*
X191044Y339364D01*
X191736Y338077D01*
X198235Y324681D01*
X198734Y323283D01*
X198770Y323260D01*
X198775Y323251D01*
X198825Y323246D01*
X198733Y322322D01*
X197752Y321342D01*
X196277Y320752D01*
X195111Y321043D01*
G37*
%LPD*%
%LPC*%
G36*
X161189Y471979D02*
X161189Y471979D01*
X159897Y472376D01*
X158705Y472873D01*
X157714Y473666D01*
X156728Y474751D01*
X156631Y475816D01*
X157516Y476996D01*
X158594Y477877D01*
X159661Y477683D01*
X160853Y476889D01*
X160860Y476889D01*
X160861Y476885D01*
X162061Y476385D01*
X162079Y476389D01*
X162087Y476381D01*
X163587Y476581D01*
X163602Y476597D01*
X163615Y476595D01*
X164415Y477395D01*
X164417Y477412D01*
X164428Y477420D01*
X164427Y477422D01*
X164429Y477423D01*
X164629Y478823D01*
X164617Y478844D01*
X164622Y478856D01*
X163922Y479956D01*
X163897Y479966D01*
X163891Y479978D01*
X162591Y480278D01*
X162573Y480270D01*
X162562Y480276D01*
X161262Y479776D01*
X161260Y479773D01*
X161258Y479774D01*
X160074Y479182D01*
X158897Y479476D01*
X157512Y480169D01*
X156829Y481047D01*
X156829Y481626D01*
X157029Y482923D01*
X157028Y482923D01*
X157029Y482923D01*
X157928Y489315D01*
X158420Y490300D01*
X159400Y491182D01*
X161281Y491281D01*
X166776Y491281D01*
X167953Y491085D01*
X168632Y490212D01*
X168731Y488627D01*
X168770Y488582D01*
X168776Y488587D01*
X168781Y488581D01*
X168845Y488582D01*
X168778Y488579D01*
X168732Y488541D01*
X168438Y487267D01*
X167370Y486879D01*
X165978Y486779D01*
X163280Y486779D01*
X163277Y486777D01*
X163276Y486779D01*
X162176Y486679D01*
X162132Y486639D01*
X162132Y486638D01*
X162131Y486638D01*
X161931Y485338D01*
X161957Y485289D01*
X161958Y485286D01*
X162958Y484786D01*
X162971Y484788D01*
X162976Y484781D01*
X164268Y484682D01*
X165458Y484186D01*
X166651Y483490D01*
X167742Y482498D01*
X168436Y481407D01*
X168932Y480217D01*
X169131Y478926D01*
X169131Y477536D01*
X168833Y476247D01*
X168238Y475056D01*
X167444Y473964D01*
X166351Y473070D01*
X165259Y472375D01*
X163971Y471979D01*
X162580Y471879D01*
X161189Y471979D01*
G37*
%LPD*%
%LPC*%
G36*
X161089Y271419D02*
X161089Y271419D01*
X159699Y271716D01*
X158606Y272412D01*
X157413Y273207D01*
X156619Y274100D01*
X156028Y274987D01*
X155931Y275957D01*
X156715Y277133D01*
X157891Y277820D01*
X158961Y277722D01*
X161250Y275931D01*
X161263Y275931D01*
X161266Y275923D01*
X162566Y275523D01*
X162580Y275528D01*
X162587Y275521D01*
X164087Y275721D01*
X164102Y275737D01*
X164115Y275735D01*
X164915Y276535D01*
X164918Y276556D01*
X164928Y276563D01*
X164927Y276565D01*
X164929Y276566D01*
X165029Y277866D01*
X165011Y277895D01*
X165011Y277908D01*
X163911Y278808D01*
X163895Y278809D01*
X163891Y278818D01*
X162591Y279118D01*
X161294Y279417D01*
X159998Y279916D01*
X158803Y280414D01*
X157713Y281107D01*
X156823Y282196D01*
X156328Y283383D01*
X156130Y284772D01*
X156229Y286161D01*
X156625Y287449D01*
X157319Y288540D01*
X158211Y289531D01*
X159301Y290125D01*
X160591Y290621D01*
X161982Y290721D01*
X163476Y290721D01*
X164770Y290522D01*
X166159Y290125D01*
X167149Y289431D01*
X168235Y288444D01*
X168428Y287478D01*
X167741Y286202D01*
X166662Y285319D01*
X165592Y285319D01*
X164304Y286013D01*
X163204Y286613D01*
X163184Y286610D01*
X163177Y286619D01*
X161777Y286519D01*
X161761Y286506D01*
X161749Y286508D01*
X160749Y285708D01*
X160741Y285675D01*
X160731Y285666D01*
X160831Y284366D01*
X160852Y284342D01*
X160854Y284328D01*
X161954Y283628D01*
X161963Y283629D01*
X161966Y283623D01*
X163266Y283223D01*
X163268Y283224D01*
X163269Y283222D01*
X164568Y282922D01*
X165964Y282523D01*
X167156Y282027D01*
X168245Y281235D01*
X169036Y280147D01*
X169432Y278959D01*
X169630Y277570D01*
X169431Y276177D01*
X169460Y276125D01*
X169461Y276125D01*
X169461Y276124D01*
X169489Y276113D01*
X169441Y276100D01*
X169444Y276089D01*
X169433Y276086D01*
X169035Y274890D01*
X168341Y273700D01*
X167449Y272809D01*
X166358Y272114D01*
X165066Y271617D01*
X163773Y271319D01*
X162382Y271220D01*
X161089Y271419D01*
G37*
%LPD*%
%LPC*%
G36*
X219484Y271219D02*
X219484Y271219D01*
X218193Y271418D01*
X216903Y271914D01*
X215709Y272710D01*
X214717Y273503D01*
X213522Y275396D01*
X213469Y275416D01*
X213467Y275418D01*
X213444Y275411D01*
X213724Y276346D01*
X214709Y277528D01*
X215879Y277918D01*
X216953Y277527D01*
X218045Y276435D01*
X218056Y276434D01*
X218057Y276427D01*
X219357Y275727D01*
X219369Y275729D01*
X219373Y275721D01*
X220773Y275521D01*
X220787Y275529D01*
X220796Y275523D01*
X221996Y275923D01*
X222010Y275944D01*
X222023Y275946D01*
X222623Y277046D01*
X222622Y277052D01*
X222627Y277056D01*
X222621Y277064D01*
X222619Y277072D01*
X222628Y277082D01*
X222328Y278282D01*
X222305Y278301D01*
X222302Y278314D01*
X221102Y278914D01*
X221094Y278912D01*
X221091Y278918D01*
X219791Y279218D01*
X219790Y279218D01*
X218394Y279517D01*
X217100Y280015D01*
X215908Y280611D01*
X214919Y281501D01*
X214225Y282690D01*
X213829Y283880D01*
X213730Y285268D01*
X213928Y286557D01*
X214424Y287846D01*
X215216Y288936D01*
X216207Y289729D01*
X217299Y290324D01*
X218589Y290721D01*
X220080Y290821D01*
X221473Y290721D01*
X222765Y290423D01*
X224156Y289827D01*
X225147Y289133D01*
X226027Y288155D01*
X225833Y287089D01*
X224946Y285808D01*
X223873Y285222D01*
X222701Y285515D01*
X221609Y286310D01*
X221597Y286310D01*
X221594Y286317D01*
X220294Y286717D01*
X220276Y286710D01*
X220266Y286717D01*
X218866Y286317D01*
X218850Y286296D01*
X218837Y286294D01*
X218237Y285194D01*
X218242Y285162D01*
X218235Y285150D01*
X218735Y284050D01*
X218756Y284039D01*
X218758Y284026D01*
X219958Y283426D01*
X219966Y283427D01*
X219968Y283422D01*
X222667Y282722D01*
X223961Y282324D01*
X225152Y281729D01*
X226041Y280938D01*
X226735Y279750D01*
X227131Y278463D01*
X227131Y276974D01*
X226932Y275683D01*
X226436Y274493D01*
X225643Y273304D01*
X224653Y272512D01*
X223460Y271915D01*
X222167Y271418D01*
X220876Y271219D01*
X219484Y271219D01*
G37*
%LPD*%
%LPC*%
G36*
X146087Y371649D02*
X146087Y371649D01*
X144794Y371947D01*
X143503Y372444D01*
X142311Y373238D01*
X141417Y374132D01*
X140824Y374924D01*
X140433Y375998D01*
X140920Y377069D01*
X142100Y378052D01*
X143169Y378150D01*
X144352Y377459D01*
X145449Y376562D01*
X145456Y376562D01*
X145457Y376557D01*
X146757Y375857D01*
X146776Y375860D01*
X146784Y375851D01*
X148184Y375951D01*
X148195Y375961D01*
X148204Y375957D01*
X149304Y376557D01*
X149315Y376583D01*
X149328Y376588D01*
X149628Y377788D01*
X149617Y377814D01*
X149622Y377826D01*
X148922Y378926D01*
X148899Y378935D01*
X148894Y378947D01*
X147594Y379347D01*
X147592Y379346D01*
X147591Y379348D01*
X146293Y379648D01*
X144996Y380047D01*
X143702Y380544D01*
X142611Y381239D01*
X141719Y382130D01*
X141026Y383318D01*
X140729Y384606D01*
X140729Y386094D01*
X141026Y387283D01*
X141622Y388473D01*
X142514Y389564D01*
X143504Y390257D01*
X144695Y390753D01*
X146085Y391051D01*
X147578Y391051D01*
X148871Y390951D01*
X150264Y390553D01*
X151453Y390058D01*
X152442Y389168D01*
X153026Y388194D01*
X152637Y387026D01*
X151553Y385844D01*
X150483Y385552D01*
X149304Y386043D01*
X148209Y386840D01*
X148190Y386839D01*
X148184Y386849D01*
X146784Y386949D01*
X146770Y386940D01*
X146761Y386945D01*
X145561Y386445D01*
X145544Y386417D01*
X145532Y386411D01*
X145232Y385111D01*
X145245Y385082D01*
X145242Y385069D01*
X146042Y384069D01*
X146061Y384064D01*
X146066Y384053D01*
X147366Y383653D01*
X147368Y383654D01*
X147369Y383652D01*
X148668Y383352D01*
X150064Y382953D01*
X151359Y382455D01*
X152449Y381861D01*
X153338Y380873D01*
X153833Y379685D01*
X154131Y378394D01*
X154131Y376906D01*
X153833Y375617D01*
X153239Y374428D01*
X152347Y373437D01*
X151254Y372642D01*
X150063Y372047D01*
X148771Y371748D01*
X147478Y371550D01*
X146087Y371649D01*
G37*
%LPD*%
%LPC*%
G36*
X243299Y472077D02*
X243299Y472077D01*
X242427Y472756D01*
X242329Y473934D01*
X242289Y473978D01*
X242285Y473975D01*
X242282Y473979D01*
X242222Y473982D01*
X242279Y473981D01*
X242327Y474016D01*
X242324Y474020D01*
X242327Y474022D01*
X242324Y474026D01*
X242329Y474030D01*
X242329Y489024D01*
X242623Y490298D01*
X243494Y490782D01*
X245082Y490881D01*
X254876Y490881D01*
X256154Y490684D01*
X256933Y489710D01*
X257130Y488332D01*
X256837Y487061D01*
X255766Y486379D01*
X247680Y486379D01*
X247662Y486366D01*
X247650Y486369D01*
X246850Y485769D01*
X246842Y485738D01*
X246831Y485730D01*
X246831Y484430D01*
X246842Y484415D01*
X246838Y484404D01*
X247338Y483604D01*
X247372Y483591D01*
X247380Y483581D01*
X252865Y483581D01*
X253738Y482999D01*
X254130Y481626D01*
X253933Y480050D01*
X253254Y479177D01*
X251978Y479079D01*
X247880Y479079D01*
X247869Y479071D01*
X247862Y479076D01*
X246862Y478676D01*
X246837Y478635D01*
X246831Y478630D01*
X246831Y474632D01*
X246732Y473243D01*
X246245Y472271D01*
X244975Y471880D01*
X243299Y472077D01*
G37*
%LPD*%
%LPC*%
G36*
X181097Y220518D02*
X181097Y220518D01*
X179918Y221304D01*
X179324Y222492D01*
X172724Y235891D01*
X172131Y237176D01*
X172325Y238143D01*
X173504Y239126D01*
X174779Y239518D01*
X175948Y239129D01*
X176537Y238245D01*
X177136Y237049D01*
X181235Y227750D01*
X181237Y227749D01*
X181236Y227748D01*
X181736Y226748D01*
X181745Y226744D01*
X181747Y226734D01*
X181760Y226736D01*
X181789Y226722D01*
X181800Y226744D01*
X181824Y226748D01*
X182324Y227748D01*
X182324Y227749D01*
X182325Y227749D01*
X186925Y237649D01*
X186924Y237651D01*
X186925Y237651D01*
X187420Y238837D01*
X188491Y239518D01*
X189665Y239323D01*
X190648Y238831D01*
X191431Y237853D01*
X191431Y236781D01*
X190836Y235491D01*
X184238Y222096D01*
X183447Y221008D01*
X182369Y220420D01*
X181097Y220518D01*
G37*
%LPD*%
%LPC*%
G36*
X182199Y472077D02*
X182199Y472077D01*
X181119Y472863D01*
X173925Y487451D01*
X173333Y488734D01*
X173623Y489701D01*
X174903Y490686D01*
X176076Y491077D01*
X177246Y490492D01*
X177837Y489606D01*
X178435Y488310D01*
X182535Y479110D01*
X182538Y479108D01*
X182537Y479106D01*
X183037Y478206D01*
X183046Y478202D01*
X183048Y478193D01*
X183061Y478195D01*
X183091Y478182D01*
X183101Y478204D01*
X183125Y478209D01*
X188225Y489209D01*
X188224Y489212D01*
X188226Y489212D01*
X188719Y490495D01*
X189785Y491077D01*
X191061Y490684D01*
X191949Y490191D01*
X192743Y489297D01*
X192771Y489292D01*
X192780Y489281D01*
X192952Y489279D01*
X192780Y489279D01*
X192733Y489243D01*
X192737Y489238D01*
X192731Y489234D01*
X192632Y488143D01*
X192036Y486851D01*
X185438Y473456D01*
X184648Y472370D01*
X183474Y471881D01*
X182199Y472077D01*
G37*
%LPD*%
%LPC*%
G36*
X796934Y3740D02*
X796934Y3740D01*
X796244Y4923D01*
X789644Y18222D01*
X789047Y19515D01*
X788852Y20587D01*
X789632Y21561D01*
X791110Y22350D01*
X792275Y22253D01*
X793060Y21271D01*
X793556Y20477D01*
X797555Y11380D01*
X797556Y11380D01*
X797555Y11379D01*
X798255Y9879D01*
X798308Y9851D01*
X798314Y9862D01*
X798325Y9858D01*
X798825Y10158D01*
X798833Y10177D01*
X798845Y10179D01*
X803345Y19979D01*
X803942Y21274D01*
X804725Y22253D01*
X805888Y22350D01*
X807956Y21069D01*
X808149Y20102D01*
X807754Y18718D01*
X801156Y5423D01*
X800462Y4233D01*
X799480Y3447D01*
X798205Y3251D01*
X796934Y3740D01*
G37*
%LPD*%
%LPC*%
G36*
X232819Y421469D02*
X232819Y421469D01*
X232429Y422638D01*
X232429Y436230D01*
X232393Y436277D01*
X232388Y436273D01*
X232384Y436279D01*
X231084Y436379D01*
X231081Y436378D01*
X231080Y436379D01*
X226990Y436379D01*
X225822Y436866D01*
X225530Y438033D01*
X225726Y439402D01*
X226696Y440081D01*
X242072Y440081D01*
X243239Y439692D01*
X243530Y438526D01*
X243432Y437155D01*
X242562Y436478D01*
X241078Y436379D01*
X237080Y436379D01*
X237033Y436343D01*
X236733Y435243D01*
X236736Y435234D01*
X236731Y435230D01*
X236731Y422936D01*
X236437Y421762D01*
X235465Y421178D01*
X233986Y421080D01*
X232819Y421469D01*
G37*
%LPD*%
%LPC*%
G36*
X224985Y320749D02*
X224985Y320749D01*
X223508Y321045D01*
X222928Y321818D01*
X222829Y323202D01*
X222829Y338094D01*
X223122Y339265D01*
X224189Y339750D01*
X225868Y339651D01*
X226940Y339164D01*
X227331Y337992D01*
X227331Y325800D01*
X227345Y325781D01*
X227342Y325768D01*
X228442Y324468D01*
X228472Y324462D01*
X228480Y324451D01*
X233978Y324451D01*
X235358Y324352D01*
X236132Y323578D01*
X236230Y322208D01*
X235744Y321042D01*
X234474Y320749D01*
X224985Y320749D01*
G37*
%LPD*%
%LPC*%
G36*
X235282Y371549D02*
X235282Y371549D01*
X233689Y371649D01*
X232517Y372040D01*
X232129Y373009D01*
X232129Y389385D01*
X232710Y390256D01*
X234182Y390550D01*
X235757Y390353D01*
X236532Y389578D01*
X236631Y388298D01*
X236631Y376100D01*
X236638Y376090D01*
X236634Y376083D01*
X236934Y375283D01*
X236976Y375256D01*
X236980Y375251D01*
X243776Y375251D01*
X245046Y375055D01*
X245531Y373989D01*
X245531Y372520D01*
X244757Y371746D01*
X243377Y371549D01*
X235282Y371549D01*
G37*
%LPD*%
%LPC*%
G36*
X321393Y421278D02*
X321393Y421278D01*
X320201Y421775D01*
X318910Y422470D01*
X318018Y423361D01*
X317232Y424540D01*
X317426Y425509D01*
X318413Y426792D01*
X319484Y427376D01*
X320555Y426987D01*
X321748Y425992D01*
X321762Y425992D01*
X321764Y425983D01*
X322964Y425583D01*
X322982Y425589D01*
X322991Y425582D01*
X324291Y425882D01*
X324304Y425898D01*
X324317Y425897D01*
X325217Y426897D01*
X325218Y426909D01*
X325227Y426916D01*
X325224Y426920D01*
X325229Y426923D01*
X325429Y428223D01*
X325426Y428228D01*
X325429Y428230D01*
X325429Y437727D01*
X325627Y439309D01*
X326306Y440085D01*
X327685Y440381D01*
X328566Y440381D01*
X329637Y439699D01*
X329931Y438522D01*
X330031Y437028D01*
X329931Y427534D01*
X329732Y426242D01*
X329335Y425050D01*
X328640Y423859D01*
X327747Y422867D01*
X326654Y422072D01*
X325463Y421477D01*
X324173Y421179D01*
X322782Y421080D01*
X321393Y421278D01*
G37*
%LPD*%
%LPC*%
G36*
X415703Y36149D02*
X415703Y36149D01*
X414915Y36248D01*
X414541Y36434D01*
X414349Y37107D01*
X414349Y42596D01*
X414445Y43170D01*
X414914Y43451D01*
X415792Y43451D01*
X416363Y43261D01*
X416551Y42791D01*
X416551Y38700D01*
X416570Y38674D01*
X416570Y38661D01*
X416970Y38361D01*
X416990Y38361D01*
X416995Y38355D01*
X416997Y38355D01*
X417000Y38351D01*
X417700Y38351D01*
X417733Y38376D01*
X417744Y38378D01*
X417944Y38778D01*
X417943Y38782D01*
X417946Y38784D01*
X417942Y38790D01*
X417941Y38793D01*
X417949Y38798D01*
X418049Y41486D01*
X418330Y41955D01*
X419000Y42050D01*
X419773Y41954D01*
X420055Y41578D01*
X420251Y40893D01*
X420251Y38900D01*
X420259Y38889D01*
X420254Y38882D01*
X420454Y38382D01*
X420495Y38357D01*
X420500Y38351D01*
X421100Y38351D01*
X421121Y38367D01*
X421135Y38365D01*
X421535Y38765D01*
X421537Y38778D01*
X421545Y38784D01*
X421539Y38792D01*
X421549Y38800D01*
X421549Y42097D01*
X421648Y42789D01*
X421837Y43356D01*
X422408Y43451D01*
X422449Y43495D01*
X422447Y43496D01*
X422449Y43498D01*
X422549Y45598D01*
X422516Y45647D01*
X422507Y45641D01*
X422500Y45649D01*
X415009Y45649D01*
X414541Y45837D01*
X414349Y46507D01*
X414349Y47186D01*
X414638Y47668D01*
X415330Y48261D01*
X418028Y50160D01*
X418029Y50161D01*
X418030Y50161D01*
X419730Y51461D01*
X419731Y51466D01*
X419736Y51467D01*
X419735Y51477D01*
X419738Y51490D01*
X419739Y51491D01*
X419738Y51492D01*
X419746Y51518D01*
X419726Y51524D01*
X419722Y51544D01*
X419522Y51644D01*
X419506Y51641D01*
X419500Y51649D01*
X415503Y51649D01*
X414815Y51748D01*
X414445Y51933D01*
X414349Y52603D01*
X414349Y53283D01*
X414726Y53754D01*
X415403Y53851D01*
X422892Y53851D01*
X423470Y53658D01*
X423751Y53284D01*
X423751Y52404D01*
X423655Y51828D01*
X422971Y51340D01*
X422971Y51339D01*
X422970Y51339D01*
X418570Y48039D01*
X418566Y48023D01*
X418563Y48021D01*
X418564Y48018D01*
X418562Y48008D01*
X418551Y48000D01*
X418551Y47800D01*
X418587Y47753D01*
X418594Y47758D01*
X418600Y47751D01*
X423280Y47751D01*
X423653Y47377D01*
X423750Y46600D01*
X423655Y45930D01*
X423186Y45649D01*
X422600Y45649D01*
X422553Y45613D01*
X422555Y45610D01*
X422552Y45608D01*
X422554Y45605D01*
X422551Y45602D01*
X422451Y43502D01*
X422484Y43453D01*
X422493Y43459D01*
X422500Y43451D01*
X423283Y43451D01*
X423751Y43076D01*
X423751Y37007D01*
X423559Y36334D01*
X423188Y36149D01*
X415703Y36149D01*
G37*
%LPD*%
%LPC*%
G36*
X146189Y220519D02*
X146189Y220519D01*
X145116Y220909D01*
X144629Y221981D01*
X144629Y231470D01*
X144593Y231517D01*
X144581Y231508D01*
X144568Y231518D01*
X143768Y231318D01*
X143766Y231316D01*
X143764Y231317D01*
X142581Y230922D01*
X141508Y231312D01*
X140424Y232495D01*
X140133Y233562D01*
X140818Y234638D01*
X144811Y238332D01*
X145605Y238927D01*
X146788Y239420D01*
X148062Y239322D01*
X149131Y238545D01*
X149131Y222276D01*
X148836Y221099D01*
X148064Y220519D01*
X146189Y220519D01*
G37*
%LPD*%
%LPC*%
G36*
X203904Y220716D02*
X203904Y220716D01*
X203228Y221392D01*
X203129Y222772D01*
X203129Y237570D01*
X203093Y237617D01*
X203086Y237612D01*
X203081Y237619D01*
X202908Y237624D01*
X203079Y237621D01*
X203127Y237656D01*
X203126Y237657D01*
X203128Y237658D01*
X203423Y238837D01*
X204294Y239321D01*
X206072Y239420D01*
X207241Y238933D01*
X207631Y237861D01*
X207631Y222972D01*
X207532Y221586D01*
X206950Y220714D01*
X205480Y220420D01*
X203904Y220716D01*
G37*
%LPD*%
%LPC*%
G36*
X159603Y371747D02*
X159603Y371747D01*
X158828Y372522D01*
X158729Y373802D01*
X158729Y388596D01*
X158925Y389871D01*
X159796Y390452D01*
X161472Y390550D01*
X162744Y390061D01*
X163231Y389088D01*
X163231Y374202D01*
X163132Y372815D01*
X162549Y371844D01*
X161178Y371550D01*
X159603Y371747D01*
G37*
%LPD*%
%LPC*%
G36*
X141994Y271319D02*
X141994Y271319D01*
X141025Y271901D01*
X140829Y273074D01*
X140829Y286669D01*
X140929Y289152D01*
X141606Y290024D01*
X143178Y290220D01*
X144652Y289925D01*
X145232Y289152D01*
X145331Y287768D01*
X145331Y272779D01*
X144942Y271709D01*
X143772Y271319D01*
X141994Y271319D01*
G37*
%LPD*%
G36*
X213184Y425681D02*
X213184Y425681D01*
X213192Y425688D01*
X213198Y425684D01*
X214498Y426184D01*
X214503Y426192D01*
X214509Y426190D01*
X215609Y426990D01*
X215612Y426999D01*
X215618Y426999D01*
X216418Y427999D01*
X216419Y428009D01*
X216425Y428011D01*
X216925Y429211D01*
X216925Y429212D01*
X216923Y429220D01*
X216929Y429224D01*
X217129Y430724D01*
X217124Y430732D01*
X217129Y430737D01*
X216929Y432137D01*
X216924Y432142D01*
X216927Y432146D01*
X216527Y433346D01*
X216518Y433352D01*
X216520Y433359D01*
X215720Y434459D01*
X215711Y434462D01*
X215711Y434468D01*
X214611Y435368D01*
X214601Y435369D01*
X214599Y435375D01*
X213399Y435875D01*
X213393Y435874D01*
X213387Y435874D01*
X213384Y435879D01*
X212084Y435979D01*
X212077Y435975D01*
X212073Y435979D01*
X210773Y435779D01*
X210763Y435769D01*
X210755Y435773D01*
X209555Y435073D01*
X209552Y435066D01*
X209547Y435067D01*
X208547Y434167D01*
X208545Y434157D01*
X208538Y434156D01*
X207838Y433056D01*
X207839Y433047D01*
X207833Y433044D01*
X207433Y431744D01*
X207437Y431734D01*
X207431Y431730D01*
X207431Y428930D01*
X207443Y428914D01*
X207439Y428903D01*
X208339Y427503D01*
X208349Y427500D01*
X208349Y427492D01*
X209449Y426592D01*
X209453Y426592D01*
X209454Y426588D01*
X210554Y425888D01*
X210566Y425889D01*
X210569Y425882D01*
X211869Y425582D01*
X211879Y425586D01*
X211884Y425581D01*
X213184Y425681D01*
G37*
%LPC*%
G36*
X145115Y475572D02*
X145115Y475572D01*
X144629Y476641D01*
X144629Y478130D01*
X144626Y478135D01*
X144629Y478138D01*
X144429Y479338D01*
X144385Y479379D01*
X144383Y479376D01*
X144380Y479379D01*
X141596Y479379D01*
X140626Y480058D01*
X140430Y481330D01*
X140626Y482703D01*
X141498Y483382D01*
X142982Y483481D01*
X144280Y483481D01*
X144327Y483517D01*
X144328Y483517D01*
X144628Y484617D01*
X144624Y484626D01*
X144629Y484630D01*
X144629Y486022D01*
X145018Y487189D01*
X146184Y487480D01*
X147658Y487382D01*
X148434Y486607D01*
X148631Y485227D01*
X148631Y483830D01*
X148653Y483800D01*
X148655Y483788D01*
X149155Y483488D01*
X149173Y483490D01*
X149180Y483481D01*
X150577Y483481D01*
X151950Y483285D01*
X152532Y482315D01*
X152631Y480927D01*
X152670Y480882D01*
X152676Y480887D01*
X152680Y480881D01*
X152681Y480881D01*
X152738Y480882D01*
X152678Y480879D01*
X152642Y480849D01*
X152634Y480847D01*
X152242Y479769D01*
X151072Y479379D01*
X149680Y479379D01*
X149669Y479371D01*
X149662Y479376D01*
X148662Y478976D01*
X148637Y478935D01*
X148631Y478930D01*
X148631Y477632D01*
X148532Y476153D01*
X147660Y475378D01*
X146284Y475280D01*
X145115Y475572D01*
G37*
%LPD*%
%LPC*%
G36*
X813516Y3249D02*
X813516Y3249D01*
X812546Y3928D01*
X812349Y5208D01*
X812306Y5249D01*
X812303Y5246D01*
X812301Y5249D01*
X812136Y5252D01*
X812300Y5251D01*
X812343Y5283D01*
X812347Y5284D01*
X812739Y6460D01*
X814007Y6851D01*
X831588Y6851D01*
X832755Y6267D01*
X832950Y5000D01*
X832756Y3735D01*
X831590Y3249D01*
X813516Y3249D01*
G37*
%LPD*%
%LPC*%
G36*
X161208Y88749D02*
X161208Y88749D01*
X160630Y88942D01*
X160349Y89316D01*
X160349Y92597D01*
X160448Y93289D01*
X160646Y93881D01*
X161241Y95071D01*
X162231Y96061D01*
X162723Y96357D01*
X163318Y96654D01*
X164010Y96852D01*
X164703Y96951D01*
X165396Y96951D01*
X165989Y96852D01*
X166682Y96654D01*
X167278Y96356D01*
X167871Y96059D01*
X168861Y95070D01*
X169157Y94577D01*
X169454Y93982D01*
X169652Y93289D01*
X169751Y92696D01*
X169751Y90003D01*
X169653Y89219D01*
X169373Y88846D01*
X168697Y88749D01*
X161208Y88749D01*
G37*
%LPD*%
%LPC*%
G36*
X135609Y47749D02*
X135609Y47749D01*
X135140Y47937D01*
X134949Y48508D01*
X134949Y51697D01*
X135048Y52389D01*
X135246Y52981D01*
X135542Y53573D01*
X135938Y54069D01*
X136435Y54665D01*
X136929Y55060D01*
X137522Y55455D01*
X138116Y55653D01*
X138708Y55851D01*
X140097Y55851D01*
X140789Y55752D01*
X141381Y55554D01*
X141975Y55257D01*
X142571Y54860D01*
X143067Y54463D01*
X143559Y53971D01*
X143856Y53378D01*
X144154Y52782D01*
X144351Y52093D01*
X144351Y48703D01*
X144255Y48030D01*
X143786Y47749D01*
X135609Y47749D01*
G37*
%LPD*%
%LPC*%
G36*
X313604Y56949D02*
X313604Y56949D01*
X313031Y57045D01*
X312749Y57514D01*
X312749Y60796D01*
X312848Y61389D01*
X313046Y62082D01*
X313343Y62677D01*
X313640Y63171D01*
X314135Y63765D01*
X314631Y64162D01*
X315127Y64558D01*
X315718Y64854D01*
X316407Y65051D01*
X318393Y65051D01*
X319082Y64854D01*
X319675Y64557D01*
X320271Y64160D01*
X320767Y63763D01*
X321259Y63271D01*
X321854Y62081D01*
X322052Y61489D01*
X322151Y60797D01*
X322151Y58103D01*
X322053Y57323D01*
X321777Y57046D01*
X321097Y56949D01*
X313604Y56949D01*
G37*
%LPD*%
%LPC*%
G36*
X440604Y56949D02*
X440604Y56949D01*
X440031Y57045D01*
X439749Y57514D01*
X439749Y60796D01*
X439848Y61389D01*
X440046Y62082D01*
X440343Y62677D01*
X440640Y63171D01*
X441135Y63765D01*
X441631Y64162D01*
X442127Y64558D01*
X442718Y64854D01*
X443407Y65051D01*
X445393Y65051D01*
X446082Y64854D01*
X446675Y64557D01*
X447271Y64160D01*
X447767Y63763D01*
X448259Y63271D01*
X448854Y62081D01*
X449052Y61489D01*
X449151Y60797D01*
X449151Y58103D01*
X449053Y57323D01*
X448777Y57046D01*
X448097Y56949D01*
X440604Y56949D01*
G37*
%LPD*%
%LPC*%
G36*
X415208Y67549D02*
X415208Y67549D01*
X414630Y67742D01*
X414349Y68116D01*
X414349Y72293D01*
X414546Y72982D01*
X414842Y73573D01*
X415234Y74063D01*
X415822Y74455D01*
X416411Y74652D01*
X417100Y74750D01*
X417789Y74652D01*
X418384Y74453D01*
X418387Y74454D01*
X418388Y74452D01*
X418788Y74352D01*
X418798Y74356D01*
X418811Y74356D01*
X418815Y74359D01*
X418822Y74356D01*
X420012Y74951D01*
X421392Y74951D01*
X421981Y74754D01*
X422571Y74459D01*
X423063Y73967D01*
X423455Y73477D01*
X423652Y72789D01*
X423751Y72196D01*
X423751Y68803D01*
X423653Y68019D01*
X423373Y67646D01*
X422697Y67549D01*
X415208Y67549D01*
G37*
%LPD*%
G36*
X191198Y175405D02*
X191198Y175405D01*
X191211Y175402D01*
X191711Y175802D01*
X191711Y175804D01*
X191713Y175803D01*
X192713Y176703D01*
X192714Y176707D01*
X192717Y176707D01*
X193617Y177707D01*
X193618Y177719D01*
X193625Y177721D01*
X194125Y178921D01*
X194125Y178923D01*
X194126Y178923D01*
X194124Y178926D01*
X194123Y178930D01*
X194129Y178933D01*
X194329Y180333D01*
X194325Y180340D01*
X194329Y180344D01*
X194229Y181744D01*
X194222Y181752D01*
X194225Y181759D01*
X193725Y182959D01*
X193715Y182965D01*
X193717Y182973D01*
X192817Y183973D01*
X192811Y183974D01*
X192811Y183978D01*
X191711Y184878D01*
X191698Y184879D01*
X191696Y184887D01*
X190496Y185287D01*
X190487Y185284D01*
X190484Y185289D01*
X189084Y185389D01*
X189083Y185389D01*
X189081Y185389D01*
X189080Y185389D01*
X187780Y185389D01*
X187762Y185376D01*
X187750Y185379D01*
X186950Y184779D01*
X186946Y184763D01*
X186944Y184762D01*
X186945Y184760D01*
X186942Y184748D01*
X186931Y184740D01*
X186931Y176640D01*
X186933Y176637D01*
X186931Y176636D01*
X187031Y175436D01*
X187071Y175392D01*
X187076Y175396D01*
X187080Y175391D01*
X191180Y175391D01*
X191198Y175405D01*
G37*
G36*
X307001Y376067D02*
X307001Y376067D01*
X307015Y376065D01*
X308415Y377465D01*
X308415Y377467D01*
X308417Y377467D01*
X309317Y378467D01*
X309318Y378479D01*
X309325Y378481D01*
X309825Y379681D01*
X309825Y379682D01*
X309823Y379690D01*
X309829Y379693D01*
X310029Y381093D01*
X310024Y381102D01*
X310029Y381108D01*
X309829Y382408D01*
X309823Y382413D01*
X309826Y382418D01*
X309326Y383718D01*
X309317Y383723D01*
X309318Y383731D01*
X308518Y384731D01*
X308509Y384733D01*
X308509Y384740D01*
X307409Y385540D01*
X307397Y385540D01*
X307394Y385547D01*
X306094Y385947D01*
X306087Y385944D01*
X306084Y385949D01*
X304684Y386049D01*
X304683Y386049D01*
X304681Y386049D01*
X304680Y386049D01*
X303380Y386049D01*
X303361Y386035D01*
X303348Y386037D01*
X302648Y385437D01*
X302645Y385424D01*
X302642Y385422D01*
X302644Y385419D01*
X302642Y385408D01*
X302631Y385400D01*
X302631Y377200D01*
X302635Y377195D01*
X302632Y377191D01*
X302832Y376091D01*
X302875Y376051D01*
X302878Y376054D01*
X302880Y376051D01*
X306980Y376051D01*
X307001Y376067D01*
G37*
G36*
X305291Y425589D02*
X305291Y425589D01*
X305299Y425584D01*
X306999Y426284D01*
X307007Y426298D01*
X307017Y426297D01*
X307917Y427297D01*
X307917Y427301D01*
X307920Y427301D01*
X308720Y428401D01*
X308720Y428413D01*
X308727Y428416D01*
X309127Y429716D01*
X309124Y429723D01*
X309129Y429727D01*
X309229Y431127D01*
X309223Y431135D01*
X309228Y431141D01*
X308928Y432441D01*
X308919Y432449D01*
X308922Y432456D01*
X308222Y433556D01*
X308216Y433559D01*
X308217Y433563D01*
X307317Y434563D01*
X307306Y434565D01*
X307305Y434573D01*
X306105Y435273D01*
X306094Y435271D01*
X306091Y435278D01*
X304791Y435578D01*
X304786Y435576D01*
X304783Y435579D01*
X304781Y435579D01*
X304780Y435579D01*
X302080Y435579D01*
X302033Y435543D01*
X302032Y435543D01*
X302034Y435540D01*
X302032Y435539D01*
X301832Y434439D01*
X301835Y434433D01*
X301831Y434430D01*
X301831Y426330D01*
X301847Y426309D01*
X301845Y426295D01*
X302545Y425595D01*
X302572Y425592D01*
X302580Y425581D01*
X305280Y425581D01*
X305291Y425589D01*
G37*
%LPC*%
G36*
X161204Y36149D02*
X161204Y36149D01*
X160631Y36245D01*
X160348Y36716D01*
X160249Y37503D01*
X160249Y40196D01*
X160347Y40785D01*
X160644Y41378D01*
X160942Y41973D01*
X161435Y42565D01*
X161927Y42958D01*
X162515Y43252D01*
X163207Y43351D01*
X163899Y43450D01*
X164489Y43352D01*
X165179Y43155D01*
X166172Y42460D01*
X166216Y42461D01*
X166225Y42458D01*
X166721Y42755D01*
X168117Y43254D01*
X168117Y43255D01*
X168118Y43254D01*
X168618Y43454D01*
X168637Y43485D01*
X168648Y43491D01*
X168651Y43507D01*
X168680Y43455D01*
X168692Y43461D01*
X168700Y43451D01*
X169077Y43451D01*
X169556Y42876D01*
X169750Y42197D01*
X169656Y41633D01*
X169279Y41445D01*
X167181Y40545D01*
X167162Y40513D01*
X167151Y40507D01*
X167051Y39807D01*
X167054Y39802D01*
X167051Y39800D01*
X167051Y38500D01*
X167087Y38453D01*
X167090Y38455D01*
X167092Y38451D01*
X167692Y38351D01*
X167697Y38354D01*
X167700Y38351D01*
X169086Y38351D01*
X169558Y38068D01*
X169750Y37396D01*
X169653Y36623D01*
X169276Y36246D01*
X168696Y36149D01*
X161204Y36149D01*
G37*
%LPD*%
%LPC*%
G36*
X110503Y67949D02*
X110503Y67949D01*
X109827Y68046D01*
X109547Y68419D01*
X109449Y69203D01*
X109449Y71896D01*
X109548Y72488D01*
X109745Y73078D01*
X110141Y73673D01*
X110537Y74266D01*
X111027Y74658D01*
X111618Y74954D01*
X112310Y75152D01*
X113000Y75250D01*
X113689Y75152D01*
X114278Y74955D01*
X114873Y74559D01*
X114875Y74559D01*
X114875Y74558D01*
X115375Y74258D01*
X115387Y74259D01*
X115388Y74258D01*
X115415Y74258D01*
X115420Y74255D01*
X116519Y74755D01*
X117218Y75054D01*
X117803Y75249D01*
X118273Y75155D01*
X118657Y74674D01*
X118949Y73994D01*
X118855Y73429D01*
X118576Y73243D01*
X116580Y72345D01*
X116569Y72324D01*
X116556Y72322D01*
X116256Y71722D01*
X116257Y71714D01*
X116253Y71710D01*
X116257Y71705D01*
X116251Y71700D01*
X116251Y70300D01*
X116287Y70253D01*
X116290Y70255D01*
X116292Y70251D01*
X116892Y70151D01*
X116897Y70154D01*
X116900Y70151D01*
X117497Y70151D01*
X118189Y70052D01*
X118761Y69861D01*
X118950Y69295D01*
X118853Y68419D01*
X118572Y68045D01*
X117996Y67949D01*
X110503Y67949D01*
G37*
%LPD*%
%LPC*%
G36*
X313608Y46549D02*
X313608Y46549D01*
X313035Y46740D01*
X312749Y47312D01*
X312749Y47988D01*
X313039Y48569D01*
X313631Y49061D01*
X316329Y51060D01*
X316329Y51061D01*
X316330Y51061D01*
X318030Y52361D01*
X318034Y52376D01*
X318044Y52378D01*
X318144Y52578D01*
X318143Y52583D01*
X318147Y52587D01*
X318141Y52595D01*
X318133Y52636D01*
X318113Y52633D01*
X318100Y52649D01*
X313325Y52649D01*
X312749Y53416D01*
X312749Y54088D01*
X313033Y54656D01*
X313608Y54751D01*
X314303Y54851D01*
X321096Y54851D01*
X321676Y54754D01*
X322053Y54377D01*
X322151Y53597D01*
X322151Y52923D01*
X321569Y52438D01*
X318270Y49939D01*
X316771Y48840D01*
X316766Y48824D01*
X316753Y48813D01*
X316760Y48803D01*
X316754Y48783D01*
X316782Y48774D01*
X316800Y48751D01*
X321586Y48751D01*
X322055Y48470D01*
X322151Y47797D01*
X322151Y47024D01*
X321679Y46646D01*
X321096Y46549D01*
X313608Y46549D01*
G37*
%LPD*%
%LPC*%
G36*
X440608Y46549D02*
X440608Y46549D01*
X440035Y46740D01*
X439749Y47312D01*
X439749Y47988D01*
X440039Y48569D01*
X440631Y49061D01*
X443329Y51060D01*
X443329Y51061D01*
X443330Y51061D01*
X445030Y52361D01*
X445034Y52376D01*
X445044Y52378D01*
X445144Y52578D01*
X445143Y52583D01*
X445147Y52587D01*
X445141Y52595D01*
X445133Y52636D01*
X445113Y52633D01*
X445100Y52649D01*
X440325Y52649D01*
X439749Y53416D01*
X439749Y54088D01*
X440033Y54656D01*
X440608Y54751D01*
X441303Y54851D01*
X448096Y54851D01*
X448676Y54754D01*
X449053Y54377D01*
X449151Y53597D01*
X449151Y52923D01*
X448569Y52438D01*
X445270Y49939D01*
X443771Y48840D01*
X443766Y48824D01*
X443753Y48813D01*
X443760Y48803D01*
X443754Y48783D01*
X443782Y48774D01*
X443800Y48751D01*
X448586Y48751D01*
X449055Y48470D01*
X449151Y47797D01*
X449151Y47024D01*
X448679Y46646D01*
X448096Y46549D01*
X440608Y46549D01*
G37*
%LPD*%
%LPC*%
G36*
X288803Y62249D02*
X288803Y62249D01*
X288111Y62348D01*
X287539Y62539D01*
X287349Y63108D01*
X287349Y63786D01*
X287638Y64268D01*
X288331Y64862D01*
X291028Y66860D01*
X292728Y68060D01*
X292735Y68079D01*
X292747Y68088D01*
X292740Y68097D01*
X292746Y68116D01*
X292742Y68118D01*
X292744Y68122D01*
X292644Y68322D01*
X292607Y68341D01*
X292600Y68349D01*
X287820Y68349D01*
X287543Y68627D01*
X287349Y69208D01*
X287349Y69883D01*
X287729Y70358D01*
X288308Y70551D01*
X295800Y70551D01*
X295805Y70555D01*
X295811Y70552D01*
X295816Y70563D01*
X295847Y70587D01*
X295838Y70599D01*
X295840Y70600D01*
X295835Y70606D01*
X295837Y70609D01*
X295858Y70574D01*
X295880Y70566D01*
X295884Y70553D01*
X296470Y70358D01*
X296751Y69984D01*
X296751Y69104D01*
X296655Y68528D01*
X295971Y68040D01*
X295971Y68039D01*
X295970Y68039D01*
X291670Y64739D01*
X291669Y64734D01*
X291665Y64735D01*
X291465Y64535D01*
X291464Y64523D01*
X291459Y64520D01*
X291460Y64519D01*
X291453Y64513D01*
X291461Y64503D01*
X291457Y64476D01*
X291484Y64472D01*
X291500Y64451D01*
X296280Y64451D01*
X296654Y64077D01*
X296750Y63400D01*
X296654Y62630D01*
X296183Y62347D01*
X295596Y62249D01*
X288803Y62249D01*
G37*
%LPD*%
%LPC*%
G36*
X168727Y78442D02*
X168727Y78442D01*
X168710Y78436D01*
X168700Y78449D01*
X161204Y78449D01*
X160633Y78544D01*
X160349Y79112D01*
X160349Y79788D01*
X160641Y80371D01*
X161132Y80863D01*
X163829Y82860D01*
X165629Y84160D01*
X165634Y84176D01*
X165644Y84178D01*
X165744Y84378D01*
X165743Y84383D01*
X165747Y84387D01*
X165741Y84395D01*
X165733Y84436D01*
X165713Y84433D01*
X165700Y84449D01*
X160925Y84449D01*
X160349Y85216D01*
X160349Y85888D01*
X160635Y86460D01*
X161208Y86651D01*
X168696Y86651D01*
X169276Y86554D01*
X169653Y86177D01*
X169751Y85397D01*
X169751Y84820D01*
X169168Y84237D01*
X164370Y80639D01*
X164366Y80623D01*
X164353Y80613D01*
X164360Y80603D01*
X164354Y80582D01*
X164382Y80574D01*
X164400Y80551D01*
X169091Y80551D01*
X169559Y80363D01*
X169751Y79693D01*
X169751Y78820D01*
X169380Y78449D01*
X168800Y78449D01*
X168759Y78418D01*
X168753Y78416D01*
X168745Y78392D01*
X168727Y78442D01*
G37*
%LPD*%
%LPC*%
G36*
X161503Y45649D02*
X161503Y45649D01*
X160727Y45746D01*
X160447Y46120D01*
X160349Y46803D01*
X160349Y52192D01*
X160539Y52761D01*
X161108Y52951D01*
X161986Y52951D01*
X162455Y52670D01*
X162551Y52096D01*
X162551Y48000D01*
X162587Y47953D01*
X162590Y47955D01*
X162592Y47951D01*
X163192Y47851D01*
X163197Y47854D01*
X163200Y47851D01*
X163800Y47851D01*
X163847Y47887D01*
X163845Y47890D01*
X163849Y47892D01*
X163949Y48492D01*
X163946Y48497D01*
X163949Y48500D01*
X163949Y50496D01*
X164046Y51076D01*
X164423Y51453D01*
X165295Y51550D01*
X165867Y51359D01*
X166153Y50883D01*
X166251Y50197D01*
X166251Y48200D01*
X166267Y48179D01*
X166265Y48165D01*
X166565Y47865D01*
X166589Y47862D01*
X166591Y47860D01*
X166593Y47860D01*
X166600Y47851D01*
X167300Y47851D01*
X167338Y47880D01*
X167346Y47882D01*
X167546Y48382D01*
X167545Y48386D01*
X167547Y48388D01*
X167542Y48395D01*
X167549Y48400D01*
X167549Y51797D01*
X167647Y52481D01*
X167927Y52854D01*
X168700Y52950D01*
X169473Y52854D01*
X169751Y52484D01*
X169751Y46312D01*
X169467Y45744D01*
X168995Y45649D01*
X161503Y45649D01*
G37*
%LPD*%
%LPC*%
G36*
X110020Y77449D02*
X110020Y77449D01*
X109646Y77823D01*
X109549Y78503D01*
X109549Y83892D01*
X109741Y84467D01*
X110214Y84751D01*
X111086Y84751D01*
X111559Y84467D01*
X111751Y83892D01*
X111751Y79800D01*
X111787Y79753D01*
X111789Y79754D01*
X111790Y79752D01*
X112290Y79652D01*
X112297Y79655D01*
X112300Y79651D01*
X113000Y79651D01*
X113047Y79687D01*
X113046Y79689D01*
X113048Y79690D01*
X113148Y80190D01*
X113145Y80197D01*
X113149Y80200D01*
X113149Y82197D01*
X113246Y82877D01*
X113623Y83253D01*
X114396Y83350D01*
X115068Y83158D01*
X115353Y82683D01*
X115451Y81997D01*
X115451Y80000D01*
X115467Y79979D01*
X115465Y79965D01*
X115765Y79665D01*
X115792Y79662D01*
X115800Y79651D01*
X116500Y79651D01*
X116533Y79676D01*
X116544Y79678D01*
X116744Y80078D01*
X116741Y80094D01*
X116749Y80100D01*
X116749Y83497D01*
X116847Y84183D01*
X117130Y84655D01*
X117800Y84750D01*
X118577Y84653D01*
X118951Y84280D01*
X118951Y78108D01*
X118763Y77544D01*
X118196Y77449D01*
X110020Y77449D01*
G37*
%LPD*%
%LPC*%
G36*
X415303Y85949D02*
X415303Y85949D01*
X414630Y86045D01*
X414349Y86514D01*
X414349Y92686D01*
X414630Y93155D01*
X415300Y93250D01*
X416081Y93153D01*
X416454Y92873D01*
X416551Y92197D01*
X416551Y88200D01*
X416587Y88153D01*
X416594Y88158D01*
X416600Y88151D01*
X417900Y88151D01*
X417947Y88187D01*
X417942Y88194D01*
X417949Y88200D01*
X417949Y90992D01*
X418141Y91567D01*
X418614Y91851D01*
X419388Y91851D01*
X419961Y91564D01*
X420152Y91088D01*
X420251Y90297D01*
X420251Y88300D01*
X420287Y88253D01*
X420289Y88254D01*
X420290Y88252D01*
X420790Y88152D01*
X420797Y88155D01*
X420800Y88151D01*
X421500Y88151D01*
X421547Y88187D01*
X421542Y88194D01*
X421549Y88200D01*
X421549Y92296D01*
X421646Y92873D01*
X422117Y93251D01*
X422893Y93251D01*
X423566Y93059D01*
X423751Y92688D01*
X423751Y86420D01*
X423376Y86046D01*
X422796Y85949D01*
X415303Y85949D01*
G37*
%LPD*%
%LPC*%
G36*
X287916Y52849D02*
X287916Y52849D01*
X287542Y53130D01*
X287349Y53708D01*
X287349Y59196D01*
X287446Y59773D01*
X287917Y60151D01*
X288693Y60151D01*
X289363Y59959D01*
X289551Y59491D01*
X289551Y55400D01*
X289567Y55379D01*
X289565Y55365D01*
X289865Y55065D01*
X289892Y55062D01*
X289900Y55051D01*
X290600Y55051D01*
X290621Y55067D01*
X290635Y55065D01*
X290935Y55365D01*
X290936Y55377D01*
X290942Y55382D01*
X290938Y55388D01*
X290938Y55391D01*
X290949Y55398D01*
X291049Y58090D01*
X291237Y58559D01*
X291904Y58750D01*
X292677Y58653D01*
X293056Y58274D01*
X293251Y57593D01*
X293251Y55600D01*
X293255Y55594D01*
X293252Y55590D01*
X293352Y55090D01*
X293396Y55051D01*
X293398Y55053D01*
X293400Y55051D01*
X294100Y55051D01*
X294118Y55064D01*
X294130Y55061D01*
X294530Y55361D01*
X294534Y55377D01*
X294541Y55382D01*
X294537Y55387D01*
X294539Y55392D01*
X294549Y55400D01*
X294549Y58796D01*
X294648Y59388D01*
X294839Y59961D01*
X295408Y60151D01*
X296280Y60151D01*
X296654Y59776D01*
X296751Y59196D01*
X296751Y53707D01*
X296559Y53034D01*
X296188Y52849D01*
X287916Y52849D01*
G37*
%LPD*%
%LPC*%
G36*
X288303Y81649D02*
X288303Y81649D01*
X287627Y81746D01*
X287349Y82116D01*
X287349Y88286D01*
X287632Y88758D01*
X288304Y88950D01*
X289077Y88853D01*
X289454Y88476D01*
X289551Y87896D01*
X289551Y83900D01*
X289587Y83853D01*
X289594Y83858D01*
X289600Y83851D01*
X290900Y83851D01*
X290947Y83887D01*
X290942Y83894D01*
X290947Y83897D01*
X290947Y83898D01*
X290949Y83900D01*
X290949Y86592D01*
X291141Y87167D01*
X291616Y87452D01*
X292391Y87549D01*
X292961Y87264D01*
X293152Y86788D01*
X293251Y85997D01*
X293251Y84000D01*
X293287Y83953D01*
X293289Y83954D01*
X293290Y83952D01*
X293790Y83852D01*
X293797Y83855D01*
X293800Y83851D01*
X294500Y83851D01*
X294547Y83887D01*
X294542Y83894D01*
X294547Y83897D01*
X294547Y83898D01*
X294549Y83900D01*
X294549Y87897D01*
X294645Y88570D01*
X295116Y88852D01*
X295896Y88950D01*
X296563Y88759D01*
X296751Y88291D01*
X296751Y82117D01*
X296376Y81649D01*
X288303Y81649D01*
G37*
%LPD*%
%LPC*%
G36*
X317003Y35949D02*
X317003Y35949D01*
X316308Y36049D01*
X315715Y36147D01*
X314529Y36741D01*
X313537Y37733D01*
X313142Y38227D01*
X312846Y38818D01*
X312648Y39511D01*
X312549Y40108D01*
X312450Y40800D01*
X312549Y41492D01*
X312647Y42085D01*
X313243Y43275D01*
X313629Y43855D01*
X314191Y43949D01*
X314867Y43562D01*
X315254Y43079D01*
X315348Y42608D01*
X314957Y41924D01*
X314958Y41918D01*
X314957Y41917D01*
X314953Y41916D01*
X314753Y41316D01*
X314755Y41309D01*
X314751Y41307D01*
X314651Y40607D01*
X314656Y40598D01*
X314651Y40593D01*
X314751Y39893D01*
X314759Y39885D01*
X314756Y39878D01*
X315056Y39278D01*
X315063Y39275D01*
X315062Y39269D01*
X315462Y38769D01*
X315472Y38767D01*
X315473Y38759D01*
X316073Y38359D01*
X316082Y38360D01*
X316084Y38353D01*
X316684Y38153D01*
X316695Y38157D01*
X316700Y38151D01*
X317400Y38151D01*
X317404Y38154D01*
X317407Y38151D01*
X318107Y38251D01*
X318115Y38259D01*
X318122Y38256D01*
X318722Y38556D01*
X318727Y38566D01*
X318735Y38565D01*
X319735Y39565D01*
X319737Y39581D01*
X319747Y39584D01*
X319947Y40184D01*
X319943Y40195D01*
X319949Y40200D01*
X319949Y40900D01*
X319946Y40904D01*
X319949Y40907D01*
X319849Y41607D01*
X319836Y41619D01*
X319839Y41630D01*
X319539Y42030D01*
X319508Y42039D01*
X319501Y42048D01*
X319500Y42049D01*
X318800Y42049D01*
X318799Y42048D01*
X318794Y42048D01*
X318793Y42048D01*
X318792Y42049D01*
X318192Y41949D01*
X318168Y41923D01*
X318156Y41914D01*
X318157Y41912D01*
X318151Y41905D01*
X318154Y41903D01*
X318151Y41900D01*
X318151Y40528D01*
X317686Y40249D01*
X317012Y40249D01*
X316445Y40533D01*
X316349Y41203D01*
X316349Y43293D01*
X316542Y43968D01*
X317014Y44251D01*
X320400Y44251D01*
X320444Y44284D01*
X320447Y44285D01*
X320454Y44308D01*
X320475Y44258D01*
X320970Y43961D01*
X321461Y43470D01*
X321755Y42979D01*
X321953Y42385D01*
X322151Y41693D01*
X322151Y40204D01*
X322052Y39612D01*
X321854Y39019D01*
X321557Y38425D01*
X321162Y37831D01*
X320170Y36839D01*
X319677Y36543D01*
X319082Y36246D01*
X318390Y36048D01*
X317697Y35949D01*
X317003Y35949D01*
G37*
%LPD*%
%LPC*%
G36*
X444003Y35949D02*
X444003Y35949D01*
X443308Y36049D01*
X442715Y36147D01*
X441529Y36741D01*
X440537Y37733D01*
X440142Y38227D01*
X439846Y38818D01*
X439648Y39511D01*
X439549Y40108D01*
X439450Y40800D01*
X439549Y41492D01*
X439647Y42085D01*
X440243Y43275D01*
X440629Y43855D01*
X441191Y43949D01*
X441867Y43562D01*
X442254Y43079D01*
X442348Y42608D01*
X441957Y41924D01*
X441958Y41918D01*
X441957Y41917D01*
X441953Y41916D01*
X441753Y41316D01*
X441755Y41309D01*
X441751Y41307D01*
X441651Y40607D01*
X441656Y40598D01*
X441651Y40593D01*
X441751Y39893D01*
X441759Y39885D01*
X441756Y39878D01*
X442056Y39278D01*
X442063Y39275D01*
X442062Y39269D01*
X442462Y38769D01*
X442472Y38767D01*
X442473Y38759D01*
X443073Y38359D01*
X443082Y38360D01*
X443084Y38353D01*
X443684Y38153D01*
X443695Y38157D01*
X443700Y38151D01*
X444400Y38151D01*
X444404Y38154D01*
X444407Y38151D01*
X445107Y38251D01*
X445115Y38259D01*
X445122Y38256D01*
X445722Y38556D01*
X445727Y38566D01*
X445735Y38565D01*
X446735Y39565D01*
X446737Y39581D01*
X446747Y39584D01*
X446947Y40184D01*
X446943Y40195D01*
X446949Y40200D01*
X446949Y40900D01*
X446946Y40904D01*
X446949Y40907D01*
X446849Y41607D01*
X446836Y41619D01*
X446839Y41630D01*
X446539Y42030D01*
X446508Y42039D01*
X446501Y42048D01*
X446500Y42049D01*
X445800Y42049D01*
X445799Y42048D01*
X445794Y42048D01*
X445793Y42048D01*
X445792Y42049D01*
X445192Y41949D01*
X445168Y41923D01*
X445156Y41914D01*
X445157Y41912D01*
X445151Y41905D01*
X445154Y41903D01*
X445151Y41900D01*
X445151Y40528D01*
X444686Y40249D01*
X444012Y40249D01*
X443445Y40533D01*
X443349Y41203D01*
X443349Y43293D01*
X443542Y43968D01*
X444014Y44251D01*
X447400Y44251D01*
X447444Y44284D01*
X447447Y44285D01*
X447454Y44308D01*
X447475Y44258D01*
X447970Y43961D01*
X448461Y43470D01*
X448755Y42979D01*
X448953Y42385D01*
X449151Y41693D01*
X449151Y40204D01*
X449052Y39612D01*
X448854Y39019D01*
X448557Y38425D01*
X448162Y37831D01*
X447170Y36839D01*
X446677Y36543D01*
X446082Y36246D01*
X445390Y36048D01*
X444697Y35949D01*
X444003Y35949D01*
G37*
%LPD*%
%LPC*%
G36*
X164011Y67848D02*
X164011Y67848D01*
X163416Y68047D01*
X163359Y68028D01*
X163362Y68018D01*
X163353Y68015D01*
X163345Y67990D01*
X163327Y68041D01*
X163318Y68038D01*
X163316Y68047D01*
X162721Y68245D01*
X162229Y68540D01*
X161635Y69035D01*
X161238Y69531D01*
X160840Y70029D01*
X160445Y70622D01*
X160248Y71211D01*
X160149Y71907D01*
X160050Y72599D01*
X160149Y73192D01*
X160148Y73193D01*
X160149Y73193D01*
X160248Y73889D01*
X160446Y74481D01*
X160742Y75073D01*
X161226Y75654D01*
X161792Y75749D01*
X162371Y75459D01*
X162855Y74976D01*
X162948Y74508D01*
X162557Y73824D01*
X162558Y73817D01*
X162553Y73816D01*
X162353Y73216D01*
X162355Y73209D01*
X162351Y73207D01*
X162251Y72507D01*
X162256Y72499D01*
X162255Y72498D01*
X162255Y72497D01*
X162251Y72493D01*
X162351Y71793D01*
X162359Y71785D01*
X162356Y71778D01*
X162656Y71178D01*
X162663Y71175D01*
X162662Y71169D01*
X163062Y70669D01*
X163069Y70667D01*
X163069Y70662D01*
X163569Y70262D01*
X163582Y70261D01*
X163584Y70253D01*
X164184Y70053D01*
X164191Y70056D01*
X164194Y70051D01*
X164994Y69951D01*
X165003Y69956D01*
X165008Y69951D01*
X165608Y70051D01*
X165615Y70059D01*
X165622Y70056D01*
X166222Y70356D01*
X166224Y70360D01*
X166227Y70359D01*
X166827Y70759D01*
X166832Y70772D01*
X166841Y70773D01*
X167241Y71373D01*
X167241Y71377D01*
X167244Y71378D01*
X167544Y71978D01*
X167541Y71994D01*
X167549Y72000D01*
X167549Y72700D01*
X167546Y72705D01*
X167549Y72708D01*
X167449Y73308D01*
X167439Y73317D01*
X167442Y73325D01*
X167142Y73825D01*
X167108Y73839D01*
X167100Y73849D01*
X165800Y73849D01*
X165753Y73813D01*
X165758Y73806D01*
X165751Y73800D01*
X165751Y72420D01*
X165380Y72049D01*
X164614Y72049D01*
X164142Y72332D01*
X163949Y73007D01*
X163949Y75093D01*
X164142Y75768D01*
X164614Y76051D01*
X167992Y76051D01*
X168571Y75858D01*
X168962Y75369D01*
X169356Y74876D01*
X169553Y74285D01*
X169751Y73593D01*
X169751Y72104D01*
X169652Y71511D01*
X169454Y70818D01*
X169157Y70223D01*
X168861Y69731D01*
X167869Y68738D01*
X167278Y68345D01*
X166684Y68147D01*
X166089Y67948D01*
X165393Y67849D01*
X164700Y67750D01*
X164011Y67848D01*
G37*
%LPD*%
%LPC*%
G36*
X422507Y55749D02*
X422507Y55749D01*
X421818Y55946D01*
X415124Y59243D01*
X414635Y59537D01*
X414249Y60115D01*
X414249Y60783D01*
X414632Y61261D01*
X415222Y61556D01*
X421918Y64854D01*
X422602Y65049D01*
X423076Y64955D01*
X423556Y64474D01*
X423748Y63801D01*
X423558Y63229D01*
X423075Y62843D01*
X421782Y62346D01*
X421762Y62314D01*
X421751Y62308D01*
X421651Y61708D01*
X421654Y61703D01*
X421651Y61700D01*
X421651Y59000D01*
X421659Y58989D01*
X421654Y58982D01*
X421854Y58482D01*
X421877Y58468D01*
X421879Y58455D01*
X423174Y57858D01*
X423655Y57473D01*
X423749Y56906D01*
X423458Y56228D01*
X422980Y55749D01*
X422507Y55749D01*
G37*
%LPD*%
%LPC*%
G36*
X142719Y36046D02*
X142719Y36046D01*
X135429Y39541D01*
X134946Y40023D01*
X134850Y40695D01*
X135041Y41268D01*
X135624Y41657D01*
X142320Y44855D01*
X143015Y45153D01*
X143487Y45247D01*
X143962Y44867D01*
X144351Y44187D01*
X144351Y43620D01*
X143871Y43141D01*
X142678Y42544D01*
X142673Y42534D01*
X142665Y42535D01*
X142265Y42135D01*
X142263Y42119D01*
X142253Y42111D01*
X142257Y42105D01*
X142251Y42100D01*
X142251Y38700D01*
X142279Y38663D01*
X142281Y38655D01*
X143477Y38156D01*
X144063Y37765D01*
X144348Y37290D01*
X144253Y36719D01*
X143768Y36040D01*
X143298Y35852D01*
X142719Y36046D01*
G37*
%LPD*%
%LPC*%
G36*
X135414Y66549D02*
X135414Y66549D01*
X134945Y66830D01*
X134849Y67503D01*
X134849Y68183D01*
X135224Y68651D01*
X135900Y68651D01*
X135901Y68651D01*
X139901Y68751D01*
X139905Y68754D01*
X139907Y68751D01*
X140607Y68851D01*
X140612Y68856D01*
X140616Y68853D01*
X141216Y69053D01*
X141221Y69061D01*
X141227Y69059D01*
X141827Y69459D01*
X141833Y69476D01*
X141844Y69478D01*
X142144Y70078D01*
X142141Y70094D01*
X142149Y70100D01*
X142149Y70800D01*
X142146Y70805D01*
X142149Y70808D01*
X142049Y71408D01*
X142038Y71418D01*
X142041Y71427D01*
X141641Y72027D01*
X141624Y72033D01*
X141622Y72044D01*
X141022Y72344D01*
X141017Y72343D01*
X141016Y72347D01*
X140416Y72547D01*
X140405Y72543D01*
X140400Y72549D01*
X139701Y72549D01*
X135609Y72649D01*
X135016Y72847D01*
X135005Y72843D01*
X135000Y72849D01*
X134943Y72849D01*
X134849Y73503D01*
X134849Y74183D01*
X135227Y74655D01*
X135804Y74751D01*
X140596Y74751D01*
X141192Y74651D01*
X141194Y74652D01*
X141200Y74652D01*
X141218Y74665D01*
X141245Y74679D01*
X141244Y74681D01*
X141246Y74682D01*
X141423Y75126D01*
X141253Y74616D01*
X141272Y74559D01*
X141281Y74562D01*
X141284Y74553D01*
X141881Y74354D01*
X142473Y74058D01*
X142967Y73663D01*
X143463Y73167D01*
X143858Y72673D01*
X144154Y72082D01*
X144351Y71393D01*
X144351Y70103D01*
X144252Y69415D01*
X143956Y68822D01*
X143659Y68229D01*
X143167Y67737D01*
X142671Y67340D01*
X142078Y66945D01*
X141485Y66747D01*
X140793Y66549D01*
X135414Y66549D01*
G37*
%LPD*%
G36*
X211885Y325254D02*
X211885Y325254D01*
X211888Y325251D01*
X213188Y325451D01*
X213204Y325468D01*
X213217Y325467D01*
X214017Y326367D01*
X214019Y326389D01*
X214029Y326396D01*
X214129Y327496D01*
X214118Y327513D01*
X214123Y327524D01*
X213523Y328624D01*
X213495Y328636D01*
X213489Y328648D01*
X210809Y329145D01*
X210230Y330014D01*
X210328Y331677D01*
X211100Y332352D01*
X212583Y332451D01*
X212599Y332464D01*
X212610Y332461D01*
X213510Y333161D01*
X213518Y333192D01*
X213529Y333200D01*
X213529Y334600D01*
X213505Y334632D01*
X213504Y334643D01*
X212404Y335243D01*
X212387Y335241D01*
X212381Y335249D01*
X212380Y335249D01*
X208280Y335249D01*
X208233Y335213D01*
X208238Y335205D01*
X208231Y335200D01*
X208231Y325800D01*
X208254Y325769D01*
X208256Y325757D01*
X209156Y325257D01*
X209173Y325259D01*
X209180Y325251D01*
X211880Y325251D01*
X211885Y325254D01*
G37*
%LPC*%
G36*
X116631Y44339D02*
X116631Y44339D01*
X116146Y44922D01*
X116052Y45390D01*
X116441Y45973D01*
X116441Y45975D01*
X116442Y45975D01*
X116742Y46475D01*
X116740Y46493D01*
X116749Y46500D01*
X116749Y47300D01*
X116738Y47315D01*
X116742Y47325D01*
X116442Y47825D01*
X116418Y47835D01*
X116414Y47847D01*
X115714Y48047D01*
X115694Y48040D01*
X115684Y48047D01*
X115084Y47847D01*
X115066Y47820D01*
X115053Y47816D01*
X114853Y47216D01*
X114858Y47200D01*
X114851Y47193D01*
X114951Y46493D01*
X114959Y46485D01*
X114956Y46478D01*
X115251Y45888D01*
X115251Y45310D01*
X114958Y44628D01*
X114573Y44243D01*
X114284Y44147D01*
X114254Y44103D01*
X114251Y44100D01*
X114251Y44071D01*
X114249Y44102D01*
X114211Y44148D01*
X114208Y44146D01*
X114206Y44149D01*
X110415Y44648D01*
X110027Y44842D01*
X109545Y45227D01*
X109349Y46205D01*
X109349Y48897D01*
X109447Y49581D01*
X109727Y49954D01*
X110400Y50050D01*
X111170Y49954D01*
X111453Y49483D01*
X111551Y48896D01*
X111551Y46800D01*
X111587Y46753D01*
X111589Y46754D01*
X111590Y46752D01*
X112090Y46652D01*
X112116Y46664D01*
X112130Y46661D01*
X112530Y46961D01*
X112537Y46987D01*
X112549Y46993D01*
X112648Y47689D01*
X112846Y48281D01*
X113142Y48873D01*
X113635Y49465D01*
X114127Y49858D01*
X114715Y50153D01*
X115304Y50251D01*
X115997Y50251D01*
X116685Y50152D01*
X117278Y49856D01*
X117871Y49559D01*
X118359Y49071D01*
X118654Y48481D01*
X118852Y47889D01*
X118951Y47197D01*
X118951Y46503D01*
X118852Y45815D01*
X118557Y45225D01*
X118162Y44631D01*
X117676Y44145D01*
X117207Y44052D01*
X116631Y44339D01*
G37*
%LPD*%
%LPC*%
G36*
X294548Y43612D02*
X294548Y43612D01*
X294527Y43629D01*
X294525Y43642D01*
X294033Y43938D01*
X293549Y44518D01*
X293549Y45083D01*
X293938Y45569D01*
X293939Y45573D01*
X293941Y45573D01*
X294741Y46773D01*
X294740Y46797D01*
X294749Y46806D01*
X294649Y47606D01*
X294639Y47617D01*
X294642Y47625D01*
X294342Y48125D01*
X294314Y48137D01*
X294308Y48149D01*
X293708Y48249D01*
X293682Y48235D01*
X293669Y48238D01*
X293169Y47838D01*
X293166Y47824D01*
X293156Y47822D01*
X292856Y47222D01*
X292858Y47212D01*
X292851Y47208D01*
X292752Y46611D01*
X292554Y45917D01*
X292256Y45222D01*
X291961Y44731D01*
X291471Y44241D01*
X290885Y43948D01*
X290197Y43849D01*
X289504Y43849D01*
X288915Y43947D01*
X288329Y44241D01*
X287837Y44733D01*
X287444Y45224D01*
X287247Y45815D01*
X287049Y46507D01*
X287049Y47197D01*
X287148Y47890D01*
X287346Y48582D01*
X287642Y49173D01*
X288033Y49662D01*
X288502Y49944D01*
X289073Y49658D01*
X289659Y49170D01*
X289847Y48701D01*
X289557Y48026D01*
X289162Y47531D01*
X289161Y47512D01*
X289151Y47507D01*
X289051Y46807D01*
X289061Y46789D01*
X289056Y46778D01*
X289356Y46178D01*
X289387Y46163D01*
X289393Y46151D01*
X290093Y46051D01*
X290121Y46067D01*
X290135Y46065D01*
X290535Y46465D01*
X290537Y46478D01*
X290545Y46481D01*
X290845Y47181D01*
X290843Y47189D01*
X290849Y47192D01*
X290948Y47789D01*
X291147Y48485D01*
X291346Y49081D01*
X291638Y49666D01*
X292225Y50057D01*
X292815Y50353D01*
X293404Y50451D01*
X294196Y50451D01*
X294765Y50356D01*
X294753Y50313D01*
X294774Y50258D01*
X294782Y50261D01*
X294784Y50253D01*
X295373Y50057D01*
X295863Y49567D01*
X296258Y49073D01*
X296554Y48482D01*
X296751Y47793D01*
X296751Y46404D01*
X296653Y45815D01*
X296357Y45225D01*
X295962Y44631D01*
X295468Y44137D01*
X295076Y43843D01*
X294582Y43646D01*
X294552Y43596D01*
X294548Y43612D01*
G37*
%LPD*%
%LPC*%
G36*
X142018Y76749D02*
X142018Y76749D01*
X141439Y77231D01*
X141152Y77807D01*
X141246Y78278D01*
X141738Y78868D01*
X141738Y78873D01*
X141741Y78873D01*
X142141Y79473D01*
X142140Y79482D01*
X142147Y79484D01*
X142347Y80084D01*
X142340Y80103D01*
X142342Y80104D01*
X142343Y80105D01*
X142348Y80112D01*
X142148Y80912D01*
X142130Y80927D01*
X142130Y80939D01*
X141730Y81239D01*
X141708Y81239D01*
X141700Y81249D01*
X141000Y81249D01*
X140975Y81230D01*
X140962Y81231D01*
X140562Y80731D01*
X140561Y80724D01*
X140560Y80723D01*
X140561Y80721D01*
X140561Y80715D01*
X140552Y80710D01*
X140252Y79313D01*
X140054Y78719D01*
X139758Y78127D01*
X139363Y77633D01*
X138873Y77143D01*
X138289Y76948D01*
X137600Y76850D01*
X136911Y76948D01*
X136319Y77146D01*
X135729Y77441D01*
X135241Y77929D01*
X134946Y78519D01*
X134748Y79111D01*
X134649Y79803D01*
X134649Y80592D01*
X134847Y81184D01*
X134846Y81186D01*
X134847Y81186D01*
X135046Y81880D01*
X135339Y82370D01*
X135835Y82865D01*
X135839Y82892D01*
X135849Y82900D01*
X135849Y83036D01*
X135851Y82998D01*
X135889Y82952D01*
X135895Y82957D01*
X135900Y82951D01*
X136385Y82951D01*
X136965Y82565D01*
X137351Y81985D01*
X137351Y81515D01*
X136959Y80927D01*
X136959Y80923D01*
X136956Y80922D01*
X136656Y80322D01*
X136660Y80302D01*
X136651Y80293D01*
X136751Y79593D01*
X136767Y79578D01*
X136765Y79565D01*
X137265Y79065D01*
X137307Y79060D01*
X137316Y79053D01*
X137916Y79253D01*
X137929Y79273D01*
X137942Y79275D01*
X138242Y79775D01*
X138241Y79783D01*
X138247Y79786D01*
X138647Y81086D01*
X138846Y81782D01*
X139143Y82377D01*
X139437Y82865D01*
X140022Y83255D01*
X140611Y83452D01*
X141400Y83550D01*
X142089Y83452D01*
X142678Y83255D01*
X143269Y82862D01*
X143659Y82471D01*
X143955Y81879D01*
X144252Y81186D01*
X144351Y80596D01*
X144351Y79207D01*
X144155Y78523D01*
X143762Y78031D01*
X143761Y78027D01*
X143759Y78027D01*
X143364Y77434D01*
X142483Y76749D01*
X142018Y76749D01*
G37*
%LPD*%
%LPC*%
G36*
X294322Y72546D02*
X294322Y72546D01*
X293742Y73029D01*
X293551Y73603D01*
X293645Y74076D01*
X294235Y74665D01*
X294236Y74672D01*
X294241Y74673D01*
X294641Y75273D01*
X294641Y75278D01*
X294642Y75279D01*
X294640Y75281D01*
X294640Y75288D01*
X294649Y75293D01*
X294749Y75993D01*
X294742Y76006D01*
X294747Y76014D01*
X294547Y76714D01*
X294527Y76729D01*
X294525Y76742D01*
X294025Y77042D01*
X294002Y77040D01*
X293993Y77049D01*
X293293Y76949D01*
X293269Y76924D01*
X293256Y76922D01*
X292956Y76322D01*
X292958Y76311D01*
X292951Y76307D01*
X292852Y75611D01*
X292654Y75018D01*
X292355Y74319D01*
X292356Y74316D01*
X292353Y74316D01*
X292156Y73724D01*
X291766Y73237D01*
X291178Y72845D01*
X290589Y72648D01*
X289900Y72550D01*
X289215Y72648D01*
X288625Y72943D01*
X288031Y73338D01*
X287641Y73729D01*
X287346Y74319D01*
X287148Y74911D01*
X287050Y75700D01*
X287149Y76392D01*
X287248Y76990D01*
X287444Y77775D01*
X288320Y78651D01*
X288784Y78651D01*
X289466Y78164D01*
X289845Y77690D01*
X289655Y77122D01*
X289259Y76527D01*
X289260Y76518D01*
X289253Y76516D01*
X289053Y75916D01*
X289059Y75898D01*
X289057Y75896D01*
X289059Y75895D01*
X289053Y75886D01*
X289253Y75186D01*
X289273Y75171D01*
X289275Y75158D01*
X289775Y74858D01*
X289799Y74860D01*
X289808Y74851D01*
X290408Y74951D01*
X290431Y74976D01*
X290444Y74978D01*
X290744Y75578D01*
X290742Y75587D01*
X290748Y75590D01*
X291048Y76987D01*
X291246Y77581D01*
X291542Y78173D01*
X291934Y78663D01*
X292522Y79055D01*
X293108Y79251D01*
X293797Y79251D01*
X294489Y79152D01*
X295084Y78953D01*
X295141Y78972D01*
X295137Y78983D01*
X295148Y78987D01*
X295153Y79008D01*
X295170Y78972D01*
X295169Y78962D01*
X295665Y78565D01*
X296060Y78071D01*
X296455Y77478D01*
X296652Y76889D01*
X296751Y76197D01*
X296751Y75504D01*
X296652Y74911D01*
X296454Y74218D01*
X296159Y73629D01*
X295668Y73137D01*
X294788Y72453D01*
X294322Y72546D01*
G37*
%LPD*%
%LPC*%
G36*
X110507Y86849D02*
X110507Y86849D01*
X109830Y87043D01*
X109549Y87416D01*
X109549Y93097D01*
X109646Y93774D01*
X110120Y94153D01*
X110795Y94250D01*
X111371Y94058D01*
X111751Y93583D01*
X111751Y89500D01*
X111764Y89482D01*
X111761Y89470D01*
X112061Y89070D01*
X112092Y89062D01*
X112100Y89051D01*
X112700Y89051D01*
X112718Y89064D01*
X112730Y89061D01*
X113130Y89361D01*
X113139Y89392D01*
X113149Y89400D01*
X113149Y92086D01*
X113432Y92558D01*
X114104Y92750D01*
X114880Y92653D01*
X115355Y92273D01*
X115451Y91696D01*
X115451Y89700D01*
X115454Y89695D01*
X115451Y89692D01*
X115551Y89092D01*
X115595Y89051D01*
X115598Y89054D01*
X115600Y89051D01*
X118291Y89051D01*
X118759Y88863D01*
X118951Y88193D01*
X118951Y87320D01*
X118576Y86946D01*
X117996Y86849D01*
X110507Y86849D01*
G37*
%LPD*%
%LPC*%
G36*
X161208Y55149D02*
X161208Y55149D01*
X160630Y55342D01*
X160349Y55716D01*
X160349Y61397D01*
X160446Y62074D01*
X160917Y62451D01*
X161600Y62451D01*
X161645Y62485D01*
X161647Y62485D01*
X161655Y62510D01*
X161673Y62459D01*
X161682Y62462D01*
X161684Y62453D01*
X162267Y62259D01*
X162551Y61786D01*
X162551Y57700D01*
X162567Y57679D01*
X162565Y57665D01*
X162865Y57365D01*
X162892Y57362D01*
X162900Y57351D01*
X163600Y57351D01*
X163621Y57367D01*
X163635Y57365D01*
X163935Y57665D01*
X163938Y57689D01*
X163947Y57696D01*
X163946Y57698D01*
X163949Y57700D01*
X163949Y60383D01*
X164326Y60854D01*
X165000Y60950D01*
X165777Y60853D01*
X166154Y60476D01*
X166251Y59896D01*
X166251Y57800D01*
X166260Y57787D01*
X166256Y57778D01*
X166456Y57378D01*
X166493Y57360D01*
X166500Y57351D01*
X168497Y57351D01*
X169187Y57252D01*
X169655Y57065D01*
X169750Y56399D01*
X169653Y55519D01*
X169375Y55149D01*
X161208Y55149D01*
G37*
%LPD*%
%LPC*%
G36*
X110220Y52449D02*
X110220Y52449D01*
X109742Y52927D01*
X109453Y53699D01*
X109641Y54170D01*
X110128Y54560D01*
X110623Y54856D01*
X115220Y56855D01*
X115221Y56857D01*
X115222Y56856D01*
X115822Y57156D01*
X115827Y57165D01*
X115836Y57167D01*
X115834Y57180D01*
X115848Y57209D01*
X115827Y57220D01*
X115822Y57244D01*
X115422Y57444D01*
X115421Y57444D01*
X115421Y57445D01*
X110521Y59744D01*
X109929Y60041D01*
X109453Y60517D01*
X109548Y61087D01*
X109741Y61570D01*
X110221Y61954D01*
X110710Y62052D01*
X110749Y62096D01*
X110746Y62099D01*
X110749Y62102D01*
X110746Y62181D01*
X110751Y62097D01*
X110776Y62068D01*
X110778Y62056D01*
X111378Y61756D01*
X118075Y58457D01*
X118663Y58065D01*
X118951Y57586D01*
X118951Y56912D01*
X118663Y56337D01*
X118078Y56044D01*
X111380Y52745D01*
X110690Y52449D01*
X110220Y52449D01*
G37*
%LPD*%
%LPC*%
G36*
X530049Y184169D02*
X530049Y184169D01*
X531701Y184946D01*
X537980Y182155D01*
X537981Y182155D01*
X539080Y181697D01*
X532979Y178745D01*
X530049Y177475D01*
X530049Y184169D01*
G37*
%LPD*%
%LPC*%
G36*
X135137Y85644D02*
X135137Y85644D01*
X134949Y86208D01*
X134949Y93888D01*
X135233Y94456D01*
X135801Y94550D01*
X136467Y94455D01*
X136751Y93888D01*
X136751Y91200D01*
X136787Y91153D01*
X136794Y91158D01*
X136800Y91151D01*
X143588Y91151D01*
X144161Y90864D01*
X144351Y90391D01*
X144351Y89614D01*
X144067Y89141D01*
X143492Y88949D01*
X136800Y88949D01*
X136753Y88913D01*
X136758Y88906D01*
X136751Y88900D01*
X136751Y86114D01*
X136470Y85645D01*
X135800Y85550D01*
X135137Y85644D01*
G37*
%LPD*%
%LPC*%
G36*
X415108Y77149D02*
X415108Y77149D01*
X414537Y77340D01*
X414349Y77809D01*
X414349Y78686D01*
X414633Y79159D01*
X415208Y79351D01*
X421300Y79351D01*
X421321Y79367D01*
X421335Y79365D01*
X421935Y79965D01*
X421939Y79992D01*
X421949Y80000D01*
X421949Y82697D01*
X422046Y83377D01*
X422420Y83751D01*
X423092Y83751D01*
X423656Y83563D01*
X423751Y82897D01*
X423751Y78203D01*
X423654Y77427D01*
X423284Y77149D01*
X415108Y77149D01*
G37*
%LPD*%
%LPC*%
G36*
X142316Y57749D02*
X142316Y57749D01*
X141637Y58234D01*
X141352Y58710D01*
X141446Y59279D01*
X141938Y59868D01*
X141938Y59882D01*
X141947Y59884D01*
X142147Y60484D01*
X142141Y60500D01*
X142144Y60503D01*
X142145Y60504D01*
X142149Y60508D01*
X142049Y61108D01*
X142036Y61120D01*
X142038Y61131D01*
X141638Y61631D01*
X141618Y61636D01*
X141614Y61647D01*
X140914Y61847D01*
X140910Y61846D01*
X140909Y61847D01*
X140902Y61847D01*
X140900Y61849D01*
X135414Y61849D01*
X134945Y62130D01*
X134850Y62799D01*
X135044Y63767D01*
X135612Y64051D01*
X141096Y64051D01*
X141689Y63952D01*
X142382Y63754D01*
X142971Y63459D01*
X143463Y62967D01*
X143858Y62473D01*
X144154Y61882D01*
X144351Y61193D01*
X144351Y59808D01*
X144155Y59222D01*
X143760Y58629D01*
X143366Y58137D01*
X142785Y57749D01*
X142316Y57749D01*
G37*
%LPD*%
G36*
X211685Y481784D02*
X211685Y481784D01*
X211688Y481781D01*
X212988Y481981D01*
X212998Y481992D01*
X213006Y481988D01*
X214106Y482688D01*
X214115Y482711D01*
X214127Y482716D01*
X214527Y484016D01*
X214521Y484031D01*
X214524Y484033D01*
X214523Y484034D01*
X214528Y484040D01*
X214228Y485440D01*
X214210Y485456D01*
X214211Y485468D01*
X213211Y486268D01*
X213193Y486269D01*
X213188Y486279D01*
X211888Y486479D01*
X211882Y486476D01*
X211880Y486479D01*
X209180Y486479D01*
X209133Y486443D01*
X208833Y485343D01*
X208833Y485341D01*
X208833Y485340D01*
X208835Y485337D01*
X208836Y485334D01*
X208831Y485330D01*
X208831Y482630D01*
X208834Y482626D01*
X208831Y482624D01*
X208931Y481824D01*
X208973Y481781D01*
X208977Y481785D01*
X208980Y481781D01*
X211680Y481781D01*
X211685Y481784D01*
G37*
G36*
X973410Y13058D02*
X973410Y13058D01*
X973416Y13054D01*
X975416Y13754D01*
X975432Y13778D01*
X975445Y13781D01*
X975945Y14981D01*
X975941Y14999D01*
X975949Y15007D01*
X975749Y16407D01*
X975734Y16421D01*
X975737Y16433D01*
X974837Y17433D01*
X974816Y17437D01*
X974811Y17448D01*
X973511Y17748D01*
X973504Y17745D01*
X973500Y17749D01*
X970800Y17749D01*
X970769Y17726D01*
X970757Y17724D01*
X970257Y16824D01*
X970259Y16812D01*
X970253Y16807D01*
X970255Y16803D01*
X970251Y16800D01*
X970251Y14100D01*
X970259Y14089D01*
X970254Y14082D01*
X970654Y13082D01*
X970695Y13057D01*
X970700Y13051D01*
X973400Y13051D01*
X973410Y13058D01*
G37*
G36*
X147882Y430983D02*
X147882Y430983D01*
X147884Y430981D01*
X149184Y431081D01*
X149196Y431091D01*
X149205Y431087D01*
X150405Y431787D01*
X150413Y431808D01*
X150425Y431811D01*
X150925Y433011D01*
X150921Y433029D01*
X150929Y433037D01*
X150729Y434437D01*
X150713Y434452D01*
X150715Y434465D01*
X149815Y435365D01*
X149796Y435367D01*
X149792Y435378D01*
X148592Y435678D01*
X148584Y435674D01*
X148580Y435679D01*
X145880Y435679D01*
X145849Y435656D01*
X145837Y435654D01*
X145337Y434754D01*
X145339Y434742D01*
X145333Y434737D01*
X145335Y434733D01*
X145331Y434730D01*
X145331Y432030D01*
X145349Y432006D01*
X145348Y431992D01*
X146548Y430992D01*
X146572Y430991D01*
X146580Y430981D01*
X147880Y430981D01*
X147882Y430983D01*
G37*
%LPC*%
G36*
X288009Y36149D02*
X288009Y36149D01*
X287541Y36337D01*
X287350Y37004D01*
X287448Y37784D01*
X287731Y38255D01*
X288304Y38351D01*
X295796Y38351D01*
X296376Y38254D01*
X296751Y37880D01*
X296751Y37007D01*
X296559Y36334D01*
X296188Y36149D01*
X288009Y36149D01*
G37*
%LPD*%
%LPC*%
G36*
X113817Y35949D02*
X113817Y35949D01*
X113346Y36326D01*
X113249Y37003D01*
X113249Y37600D01*
X113236Y37618D01*
X113239Y37630D01*
X112939Y38030D01*
X112908Y38039D01*
X112900Y38049D01*
X112203Y38049D01*
X111530Y38145D01*
X111249Y38614D01*
X111249Y39288D01*
X111533Y39856D01*
X112104Y39951D01*
X112800Y39951D01*
X112807Y39956D01*
X112812Y39952D01*
X113212Y40052D01*
X113249Y40099D01*
X113248Y40099D01*
X113249Y40100D01*
X113249Y40797D01*
X113347Y41483D01*
X113630Y41955D01*
X114299Y42050D01*
X114873Y41955D01*
X115251Y41483D01*
X115251Y40100D01*
X115287Y40053D01*
X115290Y40055D01*
X115292Y40051D01*
X115892Y39951D01*
X115897Y39954D01*
X115900Y39951D01*
X116691Y39951D01*
X117155Y39765D01*
X117251Y39097D01*
X117251Y38424D01*
X116783Y38049D01*
X115400Y38049D01*
X115353Y38013D01*
X115355Y38010D01*
X115351Y38008D01*
X115251Y37408D01*
X115254Y37403D01*
X115251Y37400D01*
X115251Y36708D01*
X115061Y36139D01*
X114492Y35949D01*
X113817Y35949D01*
G37*
%LPD*%
G36*
X167006Y90955D02*
X167006Y90955D01*
X167010Y90952D01*
X167510Y91052D01*
X167538Y91084D01*
X167540Y91085D01*
X167540Y91086D01*
X167549Y91096D01*
X167547Y91098D01*
X167549Y91100D01*
X167549Y93200D01*
X167540Y93213D01*
X167544Y93222D01*
X167444Y93422D01*
X167434Y93427D01*
X167435Y93435D01*
X166935Y93935D01*
X166931Y93935D01*
X166931Y93938D01*
X166431Y94338D01*
X166423Y94339D01*
X166422Y94344D01*
X165822Y94644D01*
X165811Y94642D01*
X165810Y94645D01*
X165809Y94645D01*
X165807Y94649D01*
X165107Y94749D01*
X165098Y94744D01*
X165093Y94749D01*
X164393Y94649D01*
X164389Y94645D01*
X164388Y94645D01*
X164384Y94647D01*
X163784Y94447D01*
X163775Y94433D01*
X163765Y94435D01*
X163265Y93935D01*
X163265Y93931D01*
X163262Y93931D01*
X162862Y93431D01*
X162861Y93423D01*
X162856Y93422D01*
X162556Y92822D01*
X162559Y92806D01*
X162551Y92800D01*
X162551Y91400D01*
X162564Y91382D01*
X162561Y91370D01*
X162861Y90970D01*
X162892Y90962D01*
X162900Y90951D01*
X167000Y90951D01*
X167006Y90955D01*
G37*
G36*
X319406Y59155D02*
X319406Y59155D01*
X319410Y59152D01*
X319910Y59252D01*
X319938Y59284D01*
X319940Y59285D01*
X319940Y59286D01*
X319949Y59296D01*
X319947Y59298D01*
X319949Y59300D01*
X319949Y61400D01*
X319933Y61421D01*
X319935Y61435D01*
X319737Y61633D01*
X319338Y62131D01*
X319331Y62133D01*
X319331Y62138D01*
X318831Y62538D01*
X318823Y62539D01*
X318822Y62544D01*
X318222Y62844D01*
X318211Y62842D01*
X318210Y62845D01*
X318209Y62845D01*
X318207Y62849D01*
X317507Y62949D01*
X317498Y62944D01*
X317493Y62949D01*
X316793Y62849D01*
X316785Y62841D01*
X316778Y62844D01*
X316178Y62544D01*
X316176Y62540D01*
X316173Y62541D01*
X315573Y62141D01*
X315567Y62124D01*
X315556Y62122D01*
X314956Y60922D01*
X314959Y60906D01*
X314951Y60900D01*
X314951Y59600D01*
X314964Y59582D01*
X314961Y59570D01*
X315261Y59170D01*
X315292Y59162D01*
X315300Y59151D01*
X319400Y59151D01*
X319406Y59155D01*
G37*
G36*
X446406Y59155D02*
X446406Y59155D01*
X446410Y59152D01*
X446910Y59252D01*
X446938Y59284D01*
X446940Y59285D01*
X446940Y59286D01*
X446949Y59296D01*
X446947Y59298D01*
X446949Y59300D01*
X446949Y61400D01*
X446933Y61421D01*
X446935Y61435D01*
X446737Y61633D01*
X446338Y62131D01*
X446331Y62133D01*
X446331Y62138D01*
X445831Y62538D01*
X445823Y62539D01*
X445822Y62544D01*
X445222Y62844D01*
X445211Y62842D01*
X445210Y62845D01*
X445209Y62845D01*
X445207Y62849D01*
X444507Y62949D01*
X444498Y62944D01*
X444493Y62949D01*
X443793Y62849D01*
X443785Y62841D01*
X443778Y62844D01*
X443178Y62544D01*
X443176Y62540D01*
X443173Y62541D01*
X442573Y62141D01*
X442567Y62124D01*
X442556Y62122D01*
X441956Y60922D01*
X441959Y60906D01*
X441951Y60900D01*
X441951Y59600D01*
X441964Y59582D01*
X441961Y59570D01*
X442261Y59170D01*
X442292Y59162D01*
X442300Y59151D01*
X446400Y59151D01*
X446406Y59155D01*
G37*
G36*
X141821Y49967D02*
X141821Y49967D01*
X141835Y49965D01*
X142135Y50265D01*
X142137Y50277D01*
X142143Y50282D01*
X142138Y50289D01*
X142139Y50292D01*
X142149Y50300D01*
X142149Y51600D01*
X142142Y51609D01*
X142147Y51616D01*
X141847Y52516D01*
X141836Y52523D01*
X141838Y52531D01*
X141438Y53031D01*
X141428Y53033D01*
X141427Y53041D01*
X140827Y53441D01*
X140818Y53440D01*
X140816Y53447D01*
X140216Y53647D01*
X140209Y53645D01*
X140204Y53645D01*
X140200Y53649D01*
X139500Y53649D01*
X139496Y53646D01*
X139493Y53649D01*
X138793Y53549D01*
X138785Y53541D01*
X138778Y53544D01*
X138178Y53244D01*
X138173Y53234D01*
X138165Y53235D01*
X137665Y52735D01*
X137664Y52726D01*
X137658Y52725D01*
X137358Y52225D01*
X137359Y52216D01*
X137353Y52214D01*
X137153Y51514D01*
X137156Y51504D01*
X137151Y51500D01*
X137151Y50200D01*
X137180Y50162D01*
X137182Y50154D01*
X137682Y49954D01*
X137695Y49958D01*
X137700Y49951D01*
X141800Y49951D01*
X141821Y49967D01*
G37*
G36*
X421447Y69787D02*
X421447Y69787D01*
X421445Y69790D01*
X421449Y69792D01*
X421549Y70392D01*
X421546Y70397D01*
X421549Y70400D01*
X421549Y71700D01*
X421546Y71704D01*
X421549Y71707D01*
X421449Y72407D01*
X421427Y72429D01*
X421425Y72442D01*
X420925Y72742D01*
X420907Y72740D01*
X420900Y72749D01*
X420400Y72749D01*
X420385Y72738D01*
X420375Y72742D01*
X419875Y72442D01*
X419863Y72414D01*
X419851Y72407D01*
X419752Y71710D01*
X419559Y71037D01*
X419094Y70850D01*
X418327Y70946D01*
X418047Y71319D01*
X417949Y72106D01*
X417933Y72122D01*
X417935Y72135D01*
X417535Y72535D01*
X417502Y72539D01*
X417492Y72549D01*
X416892Y72449D01*
X416869Y72425D01*
X416856Y72422D01*
X416556Y71822D01*
X416559Y71806D01*
X416551Y71800D01*
X416551Y70500D01*
X416554Y70496D01*
X416551Y70493D01*
X416651Y69793D01*
X416694Y69751D01*
X416697Y69755D01*
X416700Y69751D01*
X421400Y69751D01*
X421447Y69787D01*
G37*
G36*
X219484Y379554D02*
X219484Y379554D01*
X219489Y379552D01*
X219494Y379562D01*
X219527Y379587D01*
X219515Y379603D01*
X219524Y379622D01*
X218925Y380821D01*
X217825Y383320D01*
X217817Y383324D01*
X217816Y383334D01*
X217803Y383332D01*
X217773Y383349D01*
X217765Y383335D01*
X217756Y383327D01*
X217738Y383325D01*
X217438Y382825D01*
X217438Y382821D01*
X217435Y382820D01*
X216335Y380320D01*
X216339Y380303D01*
X216339Y380302D01*
X216343Y380288D01*
X216337Y380276D01*
X216737Y379576D01*
X216773Y379560D01*
X216780Y379551D01*
X219480Y379551D01*
X219484Y379554D01*
G37*
G36*
X284482Y429082D02*
X284482Y429082D01*
X284484Y429081D01*
X284487Y429086D01*
X284527Y429117D01*
X284516Y429131D01*
X284526Y429147D01*
X284126Y430247D01*
X284124Y430248D01*
X284125Y430250D01*
X283025Y432750D01*
X283023Y432751D01*
X283023Y432754D01*
X283016Y432755D01*
X282983Y432773D01*
X282982Y432774D01*
X282981Y432774D01*
X282973Y432779D01*
X282967Y432769D01*
X282960Y432763D01*
X282945Y432765D01*
X282645Y432465D01*
X282643Y432452D01*
X282635Y432450D01*
X281535Y429950D01*
X281539Y429934D01*
X281536Y429931D01*
X281539Y429927D01*
X281532Y429918D01*
X281732Y429118D01*
X281779Y429081D01*
X281779Y429082D01*
X281780Y429081D01*
X284480Y429081D01*
X284482Y429082D01*
G37*
G36*
X189783Y328753D02*
X189783Y328753D01*
X189784Y328751D01*
X190984Y328851D01*
X190986Y328852D01*
X190988Y328851D01*
X190991Y328857D01*
X191028Y328891D01*
X191016Y328904D01*
X191025Y328921D01*
X189925Y331321D01*
X189908Y331330D01*
X189907Y331341D01*
X189007Y331941D01*
X188948Y331937D01*
X188949Y331923D01*
X188935Y331920D01*
X187835Y329420D01*
X187845Y329379D01*
X187842Y329368D01*
X188342Y328768D01*
X188372Y328762D01*
X188380Y328751D01*
X189780Y328751D01*
X189783Y328753D01*
G37*
G36*
X164428Y38372D02*
X164428Y38372D01*
X164441Y38373D01*
X164841Y38973D01*
X164841Y38977D01*
X164841Y38978D01*
X164841Y38979D01*
X164840Y38993D01*
X164849Y39000D01*
X164849Y40400D01*
X164837Y40416D01*
X164841Y40427D01*
X164441Y41027D01*
X164420Y41035D01*
X164416Y41047D01*
X163816Y41247D01*
X163796Y41240D01*
X163786Y41247D01*
X163086Y41047D01*
X163076Y41033D01*
X163065Y41035D01*
X162665Y40635D01*
X162663Y40617D01*
X162653Y40614D01*
X162453Y39914D01*
X162456Y39904D01*
X162451Y39900D01*
X162451Y38600D01*
X162480Y38562D01*
X162482Y38554D01*
X162982Y38354D01*
X162995Y38358D01*
X163000Y38351D01*
X164400Y38351D01*
X164428Y38372D01*
G37*
G36*
X113521Y70167D02*
X113521Y70167D01*
X113535Y70165D01*
X114035Y70665D01*
X114036Y70677D01*
X114040Y70679D01*
X114037Y70683D01*
X114039Y70692D01*
X114049Y70700D01*
X114049Y72100D01*
X114040Y72113D01*
X114044Y72122D01*
X113744Y72722D01*
X113720Y72734D01*
X113716Y72747D01*
X113116Y72947D01*
X113100Y72942D01*
X113093Y72949D01*
X112393Y72849D01*
X112380Y72836D01*
X112369Y72838D01*
X111869Y72438D01*
X111864Y72419D01*
X111853Y72416D01*
X111653Y71816D01*
X111657Y71805D01*
X111651Y71800D01*
X111651Y70400D01*
X111680Y70362D01*
X111682Y70354D01*
X112182Y70154D01*
X112195Y70158D01*
X112200Y70151D01*
X113500Y70151D01*
X113521Y70167D01*
G37*
G36*
X140447Y39887D02*
X140447Y39887D01*
X140442Y39894D01*
X140449Y39900D01*
X140449Y41300D01*
X140447Y41303D01*
X140449Y41305D01*
X140442Y41309D01*
X140413Y41347D01*
X140398Y41336D01*
X140382Y41346D01*
X139882Y41146D01*
X139881Y41145D01*
X138681Y40645D01*
X138659Y40608D01*
X138653Y40603D01*
X138653Y40602D01*
X138651Y40600D01*
X138651Y40400D01*
X138680Y40361D01*
X138682Y40354D01*
X139982Y39854D01*
X139995Y39858D01*
X140000Y39851D01*
X140400Y39851D01*
X140447Y39887D01*
G37*
G36*
X419637Y59568D02*
X419637Y59568D01*
X419636Y59576D01*
X419644Y59578D01*
X419844Y59978D01*
X419844Y59980D01*
X419844Y59981D01*
X419843Y59982D01*
X419841Y59994D01*
X419849Y60000D01*
X419849Y60700D01*
X419845Y60706D01*
X419848Y60710D01*
X419748Y61210D01*
X419704Y61249D01*
X419693Y61237D01*
X419679Y61245D01*
X418379Y60645D01*
X418365Y60617D01*
X418352Y60612D01*
X418252Y60212D01*
X418276Y60157D01*
X418279Y60159D01*
X418279Y60155D01*
X419579Y59555D01*
X419637Y59568D01*
G37*
%LPC*%
G36*
X294552Y43594D02*
X294552Y43594D01*
X294555Y43592D01*
X294553Y43590D01*
X294552Y43594D01*
G37*
%LPD*%
D10*
X1051500Y530200D02*
X91500Y530200D01*
X91500Y130200D01*
X1051500Y130200D01*
X1051500Y530200D01*
D11*
X115700Y574200D02*
X94700Y574200D01*
X94700Y628200D02*
X94700Y681200D01*
X94700Y581200D02*
X94700Y574200D01*
X184700Y574200D02*
X184700Y681200D01*
X184700Y574200D02*
X163700Y574200D01*
X184700Y681200D02*
X94700Y681200D01*
M02*
