G04 EAGLE Gerber RS-274X export*
G75*
%MOMM*%
%FSLAX34Y34*%
%LPD*%
%IN*%
%IPPOS*%
%AMOC8*
5,1,8,0,0,1.08239X$1,22.5*%
G01*
%ADD10C,0.254000*%
%ADD11C,0.000000*%
%ADD12C,0.254000*%


D10*
X0Y0D02*
X0Y685800D01*
X1143000Y685800D01*
X1143000Y0D01*
X0Y0D01*
X889000Y38100D02*
X889000Y304800D01*
X914400Y330200D01*
X939800Y330200D01*
X965200Y355600D02*
X965200Y381000D01*
X939800Y406400D02*
X914400Y406400D01*
X863600Y355600D01*
X863600Y38100D01*
X863604Y37793D01*
X863615Y37486D01*
X863633Y37180D01*
X863659Y36874D01*
X863693Y36569D01*
X863733Y36265D01*
X863781Y35962D01*
X863837Y35660D01*
X863899Y35360D01*
X863969Y35061D01*
X864046Y34764D01*
X864130Y34468D01*
X864222Y34175D01*
X864320Y33885D01*
X864425Y33597D01*
X864538Y33311D01*
X864657Y33028D01*
X864783Y32748D01*
X864915Y32471D01*
X865055Y32198D01*
X865201Y31928D01*
X865353Y31662D01*
X865512Y31399D01*
X865677Y31140D01*
X865848Y30886D01*
X866025Y30635D01*
X866209Y30389D01*
X866398Y30147D01*
X866593Y29911D01*
X866794Y29678D01*
X867000Y29451D01*
X867212Y29229D01*
X867429Y29012D01*
X867651Y28800D01*
X867878Y28594D01*
X868111Y28393D01*
X868347Y28198D01*
X868589Y28009D01*
X868835Y27825D01*
X869086Y27648D01*
X869340Y27477D01*
X869599Y27312D01*
X869862Y27153D01*
X870128Y27001D01*
X870398Y26855D01*
X870671Y26715D01*
X870948Y26583D01*
X871228Y26457D01*
X871511Y26338D01*
X871797Y26225D01*
X872085Y26120D01*
X872375Y26022D01*
X872668Y25930D01*
X872964Y25846D01*
X873261Y25769D01*
X873560Y25699D01*
X873860Y25637D01*
X874162Y25581D01*
X874465Y25533D01*
X874769Y25493D01*
X875074Y25459D01*
X875380Y25433D01*
X875686Y25415D01*
X875993Y25404D01*
X876300Y25400D01*
X876607Y25404D01*
X876914Y25415D01*
X877220Y25433D01*
X877526Y25459D01*
X877831Y25493D01*
X878135Y25533D01*
X878438Y25581D01*
X878740Y25637D01*
X879040Y25699D01*
X879339Y25769D01*
X879636Y25846D01*
X879932Y25930D01*
X880225Y26022D01*
X880515Y26120D01*
X880803Y26225D01*
X881089Y26338D01*
X881372Y26457D01*
X881652Y26583D01*
X881929Y26715D01*
X882202Y26855D01*
X882472Y27001D01*
X882738Y27153D01*
X883001Y27312D01*
X883260Y27477D01*
X883514Y27648D01*
X883765Y27825D01*
X884011Y28009D01*
X884253Y28198D01*
X884489Y28393D01*
X884722Y28594D01*
X884949Y28800D01*
X885171Y29012D01*
X885388Y29229D01*
X885600Y29451D01*
X885806Y29678D01*
X886007Y29911D01*
X886202Y30147D01*
X886391Y30389D01*
X886575Y30635D01*
X886752Y30886D01*
X886923Y31140D01*
X887088Y31399D01*
X887247Y31662D01*
X887399Y31928D01*
X887545Y32198D01*
X887685Y32471D01*
X887817Y32748D01*
X887943Y33028D01*
X888062Y33311D01*
X888175Y33597D01*
X888280Y33885D01*
X888378Y34175D01*
X888470Y34468D01*
X888554Y34764D01*
X888631Y35061D01*
X888701Y35360D01*
X888763Y35660D01*
X888819Y35962D01*
X888867Y36265D01*
X888907Y36569D01*
X888941Y36874D01*
X888967Y37180D01*
X888985Y37486D01*
X888996Y37793D01*
X889000Y38100D01*
X965200Y381000D02*
X965193Y381614D01*
X965170Y382227D01*
X965133Y382840D01*
X965081Y383451D01*
X965015Y384062D01*
X964933Y384670D01*
X964837Y385276D01*
X964727Y385880D01*
X964602Y386481D01*
X964462Y387079D01*
X964308Y387673D01*
X964139Y388263D01*
X963957Y388849D01*
X963760Y389430D01*
X963549Y390007D01*
X963325Y390578D01*
X963087Y391144D01*
X962835Y391704D01*
X962569Y392257D01*
X962291Y392804D01*
X961999Y393344D01*
X961694Y393877D01*
X961376Y394402D01*
X961046Y394920D01*
X960704Y395429D01*
X960349Y395930D01*
X959982Y396422D01*
X959604Y396905D01*
X959214Y397379D01*
X958812Y397843D01*
X958400Y398298D01*
X957976Y398742D01*
X957542Y399176D01*
X957098Y399600D01*
X956643Y400012D01*
X956179Y400414D01*
X955705Y400804D01*
X955222Y401182D01*
X954730Y401549D01*
X954229Y401904D01*
X953720Y402246D01*
X953202Y402576D01*
X952677Y402894D01*
X952144Y403199D01*
X951604Y403491D01*
X951057Y403769D01*
X950504Y404035D01*
X949944Y404287D01*
X949378Y404525D01*
X948807Y404749D01*
X948230Y404960D01*
X947649Y405157D01*
X947063Y405339D01*
X946473Y405508D01*
X945879Y405662D01*
X945281Y405802D01*
X944680Y405927D01*
X944076Y406037D01*
X943470Y406133D01*
X942862Y406215D01*
X942251Y406281D01*
X941640Y406333D01*
X941027Y406370D01*
X940414Y406393D01*
X939800Y406400D01*
X965200Y355600D02*
X965193Y354986D01*
X965170Y354373D01*
X965133Y353760D01*
X965081Y353149D01*
X965015Y352538D01*
X964933Y351930D01*
X964837Y351324D01*
X964727Y350720D01*
X964602Y350119D01*
X964462Y349521D01*
X964308Y348927D01*
X964139Y348337D01*
X963957Y347751D01*
X963760Y347170D01*
X963549Y346593D01*
X963325Y346022D01*
X963087Y345456D01*
X962835Y344896D01*
X962569Y344343D01*
X962291Y343796D01*
X961999Y343256D01*
X961694Y342723D01*
X961376Y342198D01*
X961046Y341680D01*
X960704Y341171D01*
X960349Y340670D01*
X959982Y340178D01*
X959604Y339695D01*
X959214Y339221D01*
X958812Y338757D01*
X958400Y338302D01*
X957976Y337858D01*
X957542Y337424D01*
X957098Y337000D01*
X956643Y336588D01*
X956179Y336186D01*
X955705Y335796D01*
X955222Y335418D01*
X954730Y335051D01*
X954229Y334696D01*
X953720Y334354D01*
X953202Y334024D01*
X952677Y333706D01*
X952144Y333401D01*
X951604Y333109D01*
X951057Y332831D01*
X950504Y332565D01*
X949944Y332313D01*
X949378Y332075D01*
X948807Y331851D01*
X948230Y331640D01*
X947649Y331443D01*
X947063Y331261D01*
X946473Y331092D01*
X945879Y330938D01*
X945281Y330798D01*
X944680Y330673D01*
X944076Y330563D01*
X943470Y330467D01*
X942862Y330385D01*
X942251Y330319D01*
X941640Y330267D01*
X941027Y330230D01*
X940414Y330207D01*
X939800Y330200D01*
D11*
X8890Y660400D02*
X8895Y660805D01*
X8910Y661210D01*
X8935Y661615D01*
X8970Y662018D01*
X9014Y662421D01*
X9069Y662823D01*
X9133Y663223D01*
X9207Y663621D01*
X9291Y664017D01*
X9385Y664412D01*
X9488Y664803D01*
X9601Y665193D01*
X9723Y665579D01*
X9855Y665962D01*
X9996Y666342D01*
X10147Y666718D01*
X10306Y667091D01*
X10475Y667459D01*
X10653Y667823D01*
X10839Y668183D01*
X11035Y668538D01*
X11239Y668888D01*
X11451Y669233D01*
X11672Y669572D01*
X11902Y669907D01*
X12139Y670235D01*
X12384Y670557D01*
X12638Y670874D01*
X12898Y671184D01*
X13167Y671487D01*
X13443Y671784D01*
X13726Y672074D01*
X14016Y672357D01*
X14313Y672633D01*
X14616Y672902D01*
X14926Y673162D01*
X15243Y673416D01*
X15565Y673661D01*
X15893Y673898D01*
X16228Y674128D01*
X16567Y674349D01*
X16912Y674561D01*
X17262Y674765D01*
X17617Y674961D01*
X17977Y675147D01*
X18341Y675325D01*
X18709Y675494D01*
X19082Y675653D01*
X19458Y675804D01*
X19838Y675945D01*
X20221Y676077D01*
X20607Y676199D01*
X20997Y676312D01*
X21388Y676415D01*
X21783Y676509D01*
X22179Y676593D01*
X22577Y676667D01*
X22977Y676731D01*
X23379Y676786D01*
X23782Y676830D01*
X24185Y676865D01*
X24590Y676890D01*
X24995Y676905D01*
X25400Y676910D01*
X25805Y676905D01*
X26210Y676890D01*
X26615Y676865D01*
X27018Y676830D01*
X27421Y676786D01*
X27823Y676731D01*
X28223Y676667D01*
X28621Y676593D01*
X29017Y676509D01*
X29412Y676415D01*
X29803Y676312D01*
X30193Y676199D01*
X30579Y676077D01*
X30962Y675945D01*
X31342Y675804D01*
X31718Y675653D01*
X32091Y675494D01*
X32459Y675325D01*
X32823Y675147D01*
X33183Y674961D01*
X33538Y674765D01*
X33888Y674561D01*
X34233Y674349D01*
X34572Y674128D01*
X34907Y673898D01*
X35235Y673661D01*
X35557Y673416D01*
X35874Y673162D01*
X36184Y672902D01*
X36487Y672633D01*
X36784Y672357D01*
X37074Y672074D01*
X37357Y671784D01*
X37633Y671487D01*
X37902Y671184D01*
X38162Y670874D01*
X38416Y670557D01*
X38661Y670235D01*
X38898Y669907D01*
X39128Y669572D01*
X39349Y669233D01*
X39561Y668888D01*
X39765Y668538D01*
X39961Y668183D01*
X40147Y667823D01*
X40325Y667459D01*
X40494Y667091D01*
X40653Y666718D01*
X40804Y666342D01*
X40945Y665962D01*
X41077Y665579D01*
X41199Y665193D01*
X41312Y664803D01*
X41415Y664412D01*
X41509Y664017D01*
X41593Y663621D01*
X41667Y663223D01*
X41731Y662823D01*
X41786Y662421D01*
X41830Y662018D01*
X41865Y661615D01*
X41890Y661210D01*
X41905Y660805D01*
X41910Y660400D01*
X41905Y659995D01*
X41890Y659590D01*
X41865Y659185D01*
X41830Y658782D01*
X41786Y658379D01*
X41731Y657977D01*
X41667Y657577D01*
X41593Y657179D01*
X41509Y656783D01*
X41415Y656388D01*
X41312Y655997D01*
X41199Y655607D01*
X41077Y655221D01*
X40945Y654838D01*
X40804Y654458D01*
X40653Y654082D01*
X40494Y653709D01*
X40325Y653341D01*
X40147Y652977D01*
X39961Y652617D01*
X39765Y652262D01*
X39561Y651912D01*
X39349Y651567D01*
X39128Y651228D01*
X38898Y650893D01*
X38661Y650565D01*
X38416Y650243D01*
X38162Y649926D01*
X37902Y649616D01*
X37633Y649313D01*
X37357Y649016D01*
X37074Y648726D01*
X36784Y648443D01*
X36487Y648167D01*
X36184Y647898D01*
X35874Y647638D01*
X35557Y647384D01*
X35235Y647139D01*
X34907Y646902D01*
X34572Y646672D01*
X34233Y646451D01*
X33888Y646239D01*
X33538Y646035D01*
X33183Y645839D01*
X32823Y645653D01*
X32459Y645475D01*
X32091Y645306D01*
X31718Y645147D01*
X31342Y644996D01*
X30962Y644855D01*
X30579Y644723D01*
X30193Y644601D01*
X29803Y644488D01*
X29412Y644385D01*
X29017Y644291D01*
X28621Y644207D01*
X28223Y644133D01*
X27823Y644069D01*
X27421Y644014D01*
X27018Y643970D01*
X26615Y643935D01*
X26210Y643910D01*
X25805Y643895D01*
X25400Y643890D01*
X24995Y643895D01*
X24590Y643910D01*
X24185Y643935D01*
X23782Y643970D01*
X23379Y644014D01*
X22977Y644069D01*
X22577Y644133D01*
X22179Y644207D01*
X21783Y644291D01*
X21388Y644385D01*
X20997Y644488D01*
X20607Y644601D01*
X20221Y644723D01*
X19838Y644855D01*
X19458Y644996D01*
X19082Y645147D01*
X18709Y645306D01*
X18341Y645475D01*
X17977Y645653D01*
X17617Y645839D01*
X17262Y646035D01*
X16912Y646239D01*
X16567Y646451D01*
X16228Y646672D01*
X15893Y646902D01*
X15565Y647139D01*
X15243Y647384D01*
X14926Y647638D01*
X14616Y647898D01*
X14313Y648167D01*
X14016Y648443D01*
X13726Y648726D01*
X13443Y649016D01*
X13167Y649313D01*
X12898Y649616D01*
X12638Y649926D01*
X12384Y650243D01*
X12139Y650565D01*
X11902Y650893D01*
X11672Y651228D01*
X11451Y651567D01*
X11239Y651912D01*
X11035Y652262D01*
X10839Y652617D01*
X10653Y652977D01*
X10475Y653341D01*
X10306Y653709D01*
X10147Y654082D01*
X9996Y654458D01*
X9855Y654838D01*
X9723Y655221D01*
X9601Y655607D01*
X9488Y655997D01*
X9385Y656388D01*
X9291Y656783D01*
X9207Y657179D01*
X9133Y657577D01*
X9069Y657977D01*
X9014Y658379D01*
X8970Y658782D01*
X8935Y659185D01*
X8910Y659590D01*
X8895Y659995D01*
X8890Y660400D01*
X8890Y25400D02*
X8895Y25805D01*
X8910Y26210D01*
X8935Y26615D01*
X8970Y27018D01*
X9014Y27421D01*
X9069Y27823D01*
X9133Y28223D01*
X9207Y28621D01*
X9291Y29017D01*
X9385Y29412D01*
X9488Y29803D01*
X9601Y30193D01*
X9723Y30579D01*
X9855Y30962D01*
X9996Y31342D01*
X10147Y31718D01*
X10306Y32091D01*
X10475Y32459D01*
X10653Y32823D01*
X10839Y33183D01*
X11035Y33538D01*
X11239Y33888D01*
X11451Y34233D01*
X11672Y34572D01*
X11902Y34907D01*
X12139Y35235D01*
X12384Y35557D01*
X12638Y35874D01*
X12898Y36184D01*
X13167Y36487D01*
X13443Y36784D01*
X13726Y37074D01*
X14016Y37357D01*
X14313Y37633D01*
X14616Y37902D01*
X14926Y38162D01*
X15243Y38416D01*
X15565Y38661D01*
X15893Y38898D01*
X16228Y39128D01*
X16567Y39349D01*
X16912Y39561D01*
X17262Y39765D01*
X17617Y39961D01*
X17977Y40147D01*
X18341Y40325D01*
X18709Y40494D01*
X19082Y40653D01*
X19458Y40804D01*
X19838Y40945D01*
X20221Y41077D01*
X20607Y41199D01*
X20997Y41312D01*
X21388Y41415D01*
X21783Y41509D01*
X22179Y41593D01*
X22577Y41667D01*
X22977Y41731D01*
X23379Y41786D01*
X23782Y41830D01*
X24185Y41865D01*
X24590Y41890D01*
X24995Y41905D01*
X25400Y41910D01*
X25805Y41905D01*
X26210Y41890D01*
X26615Y41865D01*
X27018Y41830D01*
X27421Y41786D01*
X27823Y41731D01*
X28223Y41667D01*
X28621Y41593D01*
X29017Y41509D01*
X29412Y41415D01*
X29803Y41312D01*
X30193Y41199D01*
X30579Y41077D01*
X30962Y40945D01*
X31342Y40804D01*
X31718Y40653D01*
X32091Y40494D01*
X32459Y40325D01*
X32823Y40147D01*
X33183Y39961D01*
X33538Y39765D01*
X33888Y39561D01*
X34233Y39349D01*
X34572Y39128D01*
X34907Y38898D01*
X35235Y38661D01*
X35557Y38416D01*
X35874Y38162D01*
X36184Y37902D01*
X36487Y37633D01*
X36784Y37357D01*
X37074Y37074D01*
X37357Y36784D01*
X37633Y36487D01*
X37902Y36184D01*
X38162Y35874D01*
X38416Y35557D01*
X38661Y35235D01*
X38898Y34907D01*
X39128Y34572D01*
X39349Y34233D01*
X39561Y33888D01*
X39765Y33538D01*
X39961Y33183D01*
X40147Y32823D01*
X40325Y32459D01*
X40494Y32091D01*
X40653Y31718D01*
X40804Y31342D01*
X40945Y30962D01*
X41077Y30579D01*
X41199Y30193D01*
X41312Y29803D01*
X41415Y29412D01*
X41509Y29017D01*
X41593Y28621D01*
X41667Y28223D01*
X41731Y27823D01*
X41786Y27421D01*
X41830Y27018D01*
X41865Y26615D01*
X41890Y26210D01*
X41905Y25805D01*
X41910Y25400D01*
X41905Y24995D01*
X41890Y24590D01*
X41865Y24185D01*
X41830Y23782D01*
X41786Y23379D01*
X41731Y22977D01*
X41667Y22577D01*
X41593Y22179D01*
X41509Y21783D01*
X41415Y21388D01*
X41312Y20997D01*
X41199Y20607D01*
X41077Y20221D01*
X40945Y19838D01*
X40804Y19458D01*
X40653Y19082D01*
X40494Y18709D01*
X40325Y18341D01*
X40147Y17977D01*
X39961Y17617D01*
X39765Y17262D01*
X39561Y16912D01*
X39349Y16567D01*
X39128Y16228D01*
X38898Y15893D01*
X38661Y15565D01*
X38416Y15243D01*
X38162Y14926D01*
X37902Y14616D01*
X37633Y14313D01*
X37357Y14016D01*
X37074Y13726D01*
X36784Y13443D01*
X36487Y13167D01*
X36184Y12898D01*
X35874Y12638D01*
X35557Y12384D01*
X35235Y12139D01*
X34907Y11902D01*
X34572Y11672D01*
X34233Y11451D01*
X33888Y11239D01*
X33538Y11035D01*
X33183Y10839D01*
X32823Y10653D01*
X32459Y10475D01*
X32091Y10306D01*
X31718Y10147D01*
X31342Y9996D01*
X30962Y9855D01*
X30579Y9723D01*
X30193Y9601D01*
X29803Y9488D01*
X29412Y9385D01*
X29017Y9291D01*
X28621Y9207D01*
X28223Y9133D01*
X27823Y9069D01*
X27421Y9014D01*
X27018Y8970D01*
X26615Y8935D01*
X26210Y8910D01*
X25805Y8895D01*
X25400Y8890D01*
X24995Y8895D01*
X24590Y8910D01*
X24185Y8935D01*
X23782Y8970D01*
X23379Y9014D01*
X22977Y9069D01*
X22577Y9133D01*
X22179Y9207D01*
X21783Y9291D01*
X21388Y9385D01*
X20997Y9488D01*
X20607Y9601D01*
X20221Y9723D01*
X19838Y9855D01*
X19458Y9996D01*
X19082Y10147D01*
X18709Y10306D01*
X18341Y10475D01*
X17977Y10653D01*
X17617Y10839D01*
X17262Y11035D01*
X16912Y11239D01*
X16567Y11451D01*
X16228Y11672D01*
X15893Y11902D01*
X15565Y12139D01*
X15243Y12384D01*
X14926Y12638D01*
X14616Y12898D01*
X14313Y13167D01*
X14016Y13443D01*
X13726Y13726D01*
X13443Y14016D01*
X13167Y14313D01*
X12898Y14616D01*
X12638Y14926D01*
X12384Y15243D01*
X12139Y15565D01*
X11902Y15893D01*
X11672Y16228D01*
X11451Y16567D01*
X11239Y16912D01*
X11035Y17262D01*
X10839Y17617D01*
X10653Y17977D01*
X10475Y18341D01*
X10306Y18709D01*
X10147Y19082D01*
X9996Y19458D01*
X9855Y19838D01*
X9723Y20221D01*
X9601Y20607D01*
X9488Y20997D01*
X9385Y21388D01*
X9291Y21783D01*
X9207Y22179D01*
X9133Y22577D01*
X9069Y22977D01*
X9014Y23379D01*
X8970Y23782D01*
X8935Y24185D01*
X8910Y24590D01*
X8895Y24995D01*
X8890Y25400D01*
X1101090Y25400D02*
X1101095Y25805D01*
X1101110Y26210D01*
X1101135Y26615D01*
X1101170Y27018D01*
X1101214Y27421D01*
X1101269Y27823D01*
X1101333Y28223D01*
X1101407Y28621D01*
X1101491Y29017D01*
X1101585Y29412D01*
X1101688Y29803D01*
X1101801Y30193D01*
X1101923Y30579D01*
X1102055Y30962D01*
X1102196Y31342D01*
X1102347Y31718D01*
X1102506Y32091D01*
X1102675Y32459D01*
X1102853Y32823D01*
X1103039Y33183D01*
X1103235Y33538D01*
X1103439Y33888D01*
X1103651Y34233D01*
X1103872Y34572D01*
X1104102Y34907D01*
X1104339Y35235D01*
X1104584Y35557D01*
X1104838Y35874D01*
X1105098Y36184D01*
X1105367Y36487D01*
X1105643Y36784D01*
X1105926Y37074D01*
X1106216Y37357D01*
X1106513Y37633D01*
X1106816Y37902D01*
X1107126Y38162D01*
X1107443Y38416D01*
X1107765Y38661D01*
X1108093Y38898D01*
X1108428Y39128D01*
X1108767Y39349D01*
X1109112Y39561D01*
X1109462Y39765D01*
X1109817Y39961D01*
X1110177Y40147D01*
X1110541Y40325D01*
X1110909Y40494D01*
X1111282Y40653D01*
X1111658Y40804D01*
X1112038Y40945D01*
X1112421Y41077D01*
X1112807Y41199D01*
X1113197Y41312D01*
X1113588Y41415D01*
X1113983Y41509D01*
X1114379Y41593D01*
X1114777Y41667D01*
X1115177Y41731D01*
X1115579Y41786D01*
X1115982Y41830D01*
X1116385Y41865D01*
X1116790Y41890D01*
X1117195Y41905D01*
X1117600Y41910D01*
X1118005Y41905D01*
X1118410Y41890D01*
X1118815Y41865D01*
X1119218Y41830D01*
X1119621Y41786D01*
X1120023Y41731D01*
X1120423Y41667D01*
X1120821Y41593D01*
X1121217Y41509D01*
X1121612Y41415D01*
X1122003Y41312D01*
X1122393Y41199D01*
X1122779Y41077D01*
X1123162Y40945D01*
X1123542Y40804D01*
X1123918Y40653D01*
X1124291Y40494D01*
X1124659Y40325D01*
X1125023Y40147D01*
X1125383Y39961D01*
X1125738Y39765D01*
X1126088Y39561D01*
X1126433Y39349D01*
X1126772Y39128D01*
X1127107Y38898D01*
X1127435Y38661D01*
X1127757Y38416D01*
X1128074Y38162D01*
X1128384Y37902D01*
X1128687Y37633D01*
X1128984Y37357D01*
X1129274Y37074D01*
X1129557Y36784D01*
X1129833Y36487D01*
X1130102Y36184D01*
X1130362Y35874D01*
X1130616Y35557D01*
X1130861Y35235D01*
X1131098Y34907D01*
X1131328Y34572D01*
X1131549Y34233D01*
X1131761Y33888D01*
X1131965Y33538D01*
X1132161Y33183D01*
X1132347Y32823D01*
X1132525Y32459D01*
X1132694Y32091D01*
X1132853Y31718D01*
X1133004Y31342D01*
X1133145Y30962D01*
X1133277Y30579D01*
X1133399Y30193D01*
X1133512Y29803D01*
X1133615Y29412D01*
X1133709Y29017D01*
X1133793Y28621D01*
X1133867Y28223D01*
X1133931Y27823D01*
X1133986Y27421D01*
X1134030Y27018D01*
X1134065Y26615D01*
X1134090Y26210D01*
X1134105Y25805D01*
X1134110Y25400D01*
X1134105Y24995D01*
X1134090Y24590D01*
X1134065Y24185D01*
X1134030Y23782D01*
X1133986Y23379D01*
X1133931Y22977D01*
X1133867Y22577D01*
X1133793Y22179D01*
X1133709Y21783D01*
X1133615Y21388D01*
X1133512Y20997D01*
X1133399Y20607D01*
X1133277Y20221D01*
X1133145Y19838D01*
X1133004Y19458D01*
X1132853Y19082D01*
X1132694Y18709D01*
X1132525Y18341D01*
X1132347Y17977D01*
X1132161Y17617D01*
X1131965Y17262D01*
X1131761Y16912D01*
X1131549Y16567D01*
X1131328Y16228D01*
X1131098Y15893D01*
X1130861Y15565D01*
X1130616Y15243D01*
X1130362Y14926D01*
X1130102Y14616D01*
X1129833Y14313D01*
X1129557Y14016D01*
X1129274Y13726D01*
X1128984Y13443D01*
X1128687Y13167D01*
X1128384Y12898D01*
X1128074Y12638D01*
X1127757Y12384D01*
X1127435Y12139D01*
X1127107Y11902D01*
X1126772Y11672D01*
X1126433Y11451D01*
X1126088Y11239D01*
X1125738Y11035D01*
X1125383Y10839D01*
X1125023Y10653D01*
X1124659Y10475D01*
X1124291Y10306D01*
X1123918Y10147D01*
X1123542Y9996D01*
X1123162Y9855D01*
X1122779Y9723D01*
X1122393Y9601D01*
X1122003Y9488D01*
X1121612Y9385D01*
X1121217Y9291D01*
X1120821Y9207D01*
X1120423Y9133D01*
X1120023Y9069D01*
X1119621Y9014D01*
X1119218Y8970D01*
X1118815Y8935D01*
X1118410Y8910D01*
X1118005Y8895D01*
X1117600Y8890D01*
X1117195Y8895D01*
X1116790Y8910D01*
X1116385Y8935D01*
X1115982Y8970D01*
X1115579Y9014D01*
X1115177Y9069D01*
X1114777Y9133D01*
X1114379Y9207D01*
X1113983Y9291D01*
X1113588Y9385D01*
X1113197Y9488D01*
X1112807Y9601D01*
X1112421Y9723D01*
X1112038Y9855D01*
X1111658Y9996D01*
X1111282Y10147D01*
X1110909Y10306D01*
X1110541Y10475D01*
X1110177Y10653D01*
X1109817Y10839D01*
X1109462Y11035D01*
X1109112Y11239D01*
X1108767Y11451D01*
X1108428Y11672D01*
X1108093Y11902D01*
X1107765Y12139D01*
X1107443Y12384D01*
X1107126Y12638D01*
X1106816Y12898D01*
X1106513Y13167D01*
X1106216Y13443D01*
X1105926Y13726D01*
X1105643Y14016D01*
X1105367Y14313D01*
X1105098Y14616D01*
X1104838Y14926D01*
X1104584Y15243D01*
X1104339Y15565D01*
X1104102Y15893D01*
X1103872Y16228D01*
X1103651Y16567D01*
X1103439Y16912D01*
X1103235Y17262D01*
X1103039Y17617D01*
X1102853Y17977D01*
X1102675Y18341D01*
X1102506Y18709D01*
X1102347Y19082D01*
X1102196Y19458D01*
X1102055Y19838D01*
X1101923Y20221D01*
X1101801Y20607D01*
X1101688Y20997D01*
X1101585Y21388D01*
X1101491Y21783D01*
X1101407Y22179D01*
X1101333Y22577D01*
X1101269Y22977D01*
X1101214Y23379D01*
X1101170Y23782D01*
X1101135Y24185D01*
X1101110Y24590D01*
X1101095Y24995D01*
X1101090Y25400D01*
X1101090Y660400D02*
X1101095Y660805D01*
X1101110Y661210D01*
X1101135Y661615D01*
X1101170Y662018D01*
X1101214Y662421D01*
X1101269Y662823D01*
X1101333Y663223D01*
X1101407Y663621D01*
X1101491Y664017D01*
X1101585Y664412D01*
X1101688Y664803D01*
X1101801Y665193D01*
X1101923Y665579D01*
X1102055Y665962D01*
X1102196Y666342D01*
X1102347Y666718D01*
X1102506Y667091D01*
X1102675Y667459D01*
X1102853Y667823D01*
X1103039Y668183D01*
X1103235Y668538D01*
X1103439Y668888D01*
X1103651Y669233D01*
X1103872Y669572D01*
X1104102Y669907D01*
X1104339Y670235D01*
X1104584Y670557D01*
X1104838Y670874D01*
X1105098Y671184D01*
X1105367Y671487D01*
X1105643Y671784D01*
X1105926Y672074D01*
X1106216Y672357D01*
X1106513Y672633D01*
X1106816Y672902D01*
X1107126Y673162D01*
X1107443Y673416D01*
X1107765Y673661D01*
X1108093Y673898D01*
X1108428Y674128D01*
X1108767Y674349D01*
X1109112Y674561D01*
X1109462Y674765D01*
X1109817Y674961D01*
X1110177Y675147D01*
X1110541Y675325D01*
X1110909Y675494D01*
X1111282Y675653D01*
X1111658Y675804D01*
X1112038Y675945D01*
X1112421Y676077D01*
X1112807Y676199D01*
X1113197Y676312D01*
X1113588Y676415D01*
X1113983Y676509D01*
X1114379Y676593D01*
X1114777Y676667D01*
X1115177Y676731D01*
X1115579Y676786D01*
X1115982Y676830D01*
X1116385Y676865D01*
X1116790Y676890D01*
X1117195Y676905D01*
X1117600Y676910D01*
X1118005Y676905D01*
X1118410Y676890D01*
X1118815Y676865D01*
X1119218Y676830D01*
X1119621Y676786D01*
X1120023Y676731D01*
X1120423Y676667D01*
X1120821Y676593D01*
X1121217Y676509D01*
X1121612Y676415D01*
X1122003Y676312D01*
X1122393Y676199D01*
X1122779Y676077D01*
X1123162Y675945D01*
X1123542Y675804D01*
X1123918Y675653D01*
X1124291Y675494D01*
X1124659Y675325D01*
X1125023Y675147D01*
X1125383Y674961D01*
X1125738Y674765D01*
X1126088Y674561D01*
X1126433Y674349D01*
X1126772Y674128D01*
X1127107Y673898D01*
X1127435Y673661D01*
X1127757Y673416D01*
X1128074Y673162D01*
X1128384Y672902D01*
X1128687Y672633D01*
X1128984Y672357D01*
X1129274Y672074D01*
X1129557Y671784D01*
X1129833Y671487D01*
X1130102Y671184D01*
X1130362Y670874D01*
X1130616Y670557D01*
X1130861Y670235D01*
X1131098Y669907D01*
X1131328Y669572D01*
X1131549Y669233D01*
X1131761Y668888D01*
X1131965Y668538D01*
X1132161Y668183D01*
X1132347Y667823D01*
X1132525Y667459D01*
X1132694Y667091D01*
X1132853Y666718D01*
X1133004Y666342D01*
X1133145Y665962D01*
X1133277Y665579D01*
X1133399Y665193D01*
X1133512Y664803D01*
X1133615Y664412D01*
X1133709Y664017D01*
X1133793Y663621D01*
X1133867Y663223D01*
X1133931Y662823D01*
X1133986Y662421D01*
X1134030Y662018D01*
X1134065Y661615D01*
X1134090Y661210D01*
X1134105Y660805D01*
X1134110Y660400D01*
X1134105Y659995D01*
X1134090Y659590D01*
X1134065Y659185D01*
X1134030Y658782D01*
X1133986Y658379D01*
X1133931Y657977D01*
X1133867Y657577D01*
X1133793Y657179D01*
X1133709Y656783D01*
X1133615Y656388D01*
X1133512Y655997D01*
X1133399Y655607D01*
X1133277Y655221D01*
X1133145Y654838D01*
X1133004Y654458D01*
X1132853Y654082D01*
X1132694Y653709D01*
X1132525Y653341D01*
X1132347Y652977D01*
X1132161Y652617D01*
X1131965Y652262D01*
X1131761Y651912D01*
X1131549Y651567D01*
X1131328Y651228D01*
X1131098Y650893D01*
X1130861Y650565D01*
X1130616Y650243D01*
X1130362Y649926D01*
X1130102Y649616D01*
X1129833Y649313D01*
X1129557Y649016D01*
X1129274Y648726D01*
X1128984Y648443D01*
X1128687Y648167D01*
X1128384Y647898D01*
X1128074Y647638D01*
X1127757Y647384D01*
X1127435Y647139D01*
X1127107Y646902D01*
X1126772Y646672D01*
X1126433Y646451D01*
X1126088Y646239D01*
X1125738Y646035D01*
X1125383Y645839D01*
X1125023Y645653D01*
X1124659Y645475D01*
X1124291Y645306D01*
X1123918Y645147D01*
X1123542Y644996D01*
X1123162Y644855D01*
X1122779Y644723D01*
X1122393Y644601D01*
X1122003Y644488D01*
X1121612Y644385D01*
X1121217Y644291D01*
X1120821Y644207D01*
X1120423Y644133D01*
X1120023Y644069D01*
X1119621Y644014D01*
X1119218Y643970D01*
X1118815Y643935D01*
X1118410Y643910D01*
X1118005Y643895D01*
X1117600Y643890D01*
X1117195Y643895D01*
X1116790Y643910D01*
X1116385Y643935D01*
X1115982Y643970D01*
X1115579Y644014D01*
X1115177Y644069D01*
X1114777Y644133D01*
X1114379Y644207D01*
X1113983Y644291D01*
X1113588Y644385D01*
X1113197Y644488D01*
X1112807Y644601D01*
X1112421Y644723D01*
X1112038Y644855D01*
X1111658Y644996D01*
X1111282Y645147D01*
X1110909Y645306D01*
X1110541Y645475D01*
X1110177Y645653D01*
X1109817Y645839D01*
X1109462Y646035D01*
X1109112Y646239D01*
X1108767Y646451D01*
X1108428Y646672D01*
X1108093Y646902D01*
X1107765Y647139D01*
X1107443Y647384D01*
X1107126Y647638D01*
X1106816Y647898D01*
X1106513Y648167D01*
X1106216Y648443D01*
X1105926Y648726D01*
X1105643Y649016D01*
X1105367Y649313D01*
X1105098Y649616D01*
X1104838Y649926D01*
X1104584Y650243D01*
X1104339Y650565D01*
X1104102Y650893D01*
X1103872Y651228D01*
X1103651Y651567D01*
X1103439Y651912D01*
X1103235Y652262D01*
X1103039Y652617D01*
X1102853Y652977D01*
X1102675Y653341D01*
X1102506Y653709D01*
X1102347Y654082D01*
X1102196Y654458D01*
X1102055Y654838D01*
X1101923Y655221D01*
X1101801Y655607D01*
X1101688Y655997D01*
X1101585Y656388D01*
X1101491Y656783D01*
X1101407Y657179D01*
X1101333Y657577D01*
X1101269Y657977D01*
X1101214Y658379D01*
X1101170Y658782D01*
X1101135Y659185D01*
X1101110Y659590D01*
X1101095Y659995D01*
X1101090Y660400D01*
D12*
X0Y0D02*
X1143000Y0D01*
X1143000Y685800D01*
X0Y685800D01*
X0Y0D01*
X863600Y38100D02*
X863648Y36993D01*
X863793Y35895D01*
X864033Y34813D01*
X864366Y33756D01*
X864790Y32733D01*
X865301Y31750D01*
X865897Y30816D01*
X866571Y29937D01*
X867320Y29120D01*
X868137Y28371D01*
X869016Y27697D01*
X869950Y27101D01*
X870933Y26590D01*
X871956Y26166D01*
X873013Y25833D01*
X874095Y25593D01*
X875193Y25448D01*
X876300Y25400D01*
X877407Y25448D01*
X878505Y25593D01*
X879587Y25833D01*
X880644Y26166D01*
X881667Y26590D01*
X882650Y27101D01*
X883584Y27697D01*
X884463Y28371D01*
X885280Y29120D01*
X886029Y29937D01*
X886703Y30816D01*
X887299Y31750D01*
X887810Y32733D01*
X888234Y33756D01*
X888567Y34813D01*
X888807Y35895D01*
X888952Y36993D01*
X889000Y38100D01*
X889000Y304800D01*
X914400Y330200D01*
X939800Y330200D01*
X942014Y330297D01*
X944211Y330586D01*
X946374Y331065D01*
X948487Y331732D01*
X950535Y332580D01*
X952500Y333603D01*
X954369Y334794D01*
X956127Y336142D01*
X957761Y337640D01*
X959258Y339273D01*
X960606Y341031D01*
X961797Y342900D01*
X962820Y344866D01*
X963668Y346913D01*
X964335Y349026D01*
X964814Y351189D01*
X965103Y353386D01*
X965200Y355600D01*
X965200Y381000D01*
X965103Y383214D01*
X964814Y385411D01*
X964335Y387574D01*
X963668Y389687D01*
X962820Y391735D01*
X961797Y393700D01*
X960606Y395569D01*
X959258Y397327D01*
X957761Y398961D01*
X956127Y400458D01*
X954369Y401806D01*
X952500Y402997D01*
X950535Y404020D01*
X948487Y404868D01*
X946374Y405535D01*
X944211Y406014D01*
X942014Y406303D01*
X939800Y406400D01*
X914400Y406400D01*
X863600Y355600D01*
X863600Y38100D01*
X41910Y659860D02*
X41839Y658781D01*
X41698Y657709D01*
X41487Y656649D01*
X41208Y655605D01*
X40860Y654581D01*
X40446Y653583D01*
X39968Y652613D01*
X39428Y651677D01*
X38827Y650778D01*
X38169Y649921D01*
X37457Y649108D01*
X36692Y648344D01*
X35879Y647631D01*
X35022Y646973D01*
X34123Y646372D01*
X33187Y645832D01*
X32217Y645354D01*
X31219Y644940D01*
X30195Y644592D01*
X29151Y644313D01*
X28091Y644102D01*
X27019Y643961D01*
X25940Y643890D01*
X24860Y643890D01*
X23781Y643961D01*
X22709Y644102D01*
X21649Y644313D01*
X20605Y644592D01*
X19581Y644940D01*
X18583Y645354D01*
X17613Y645832D01*
X16677Y646372D01*
X15778Y646973D01*
X14921Y647631D01*
X14108Y648344D01*
X13344Y649108D01*
X12631Y649921D01*
X11973Y650778D01*
X11372Y651677D01*
X10832Y652613D01*
X10354Y653583D01*
X9940Y654581D01*
X9592Y655605D01*
X9313Y656649D01*
X9102Y657709D01*
X8961Y658781D01*
X8890Y659860D01*
X8890Y660940D01*
X8961Y662019D01*
X9102Y663091D01*
X9313Y664151D01*
X9592Y665195D01*
X9940Y666219D01*
X10354Y667217D01*
X10832Y668187D01*
X11372Y669123D01*
X11973Y670022D01*
X12631Y670879D01*
X13344Y671692D01*
X14108Y672457D01*
X14921Y673169D01*
X15778Y673827D01*
X16677Y674428D01*
X17613Y674968D01*
X18583Y675446D01*
X19581Y675860D01*
X20605Y676208D01*
X21649Y676487D01*
X22709Y676698D01*
X23781Y676839D01*
X24860Y676910D01*
X25940Y676910D01*
X27019Y676839D01*
X28091Y676698D01*
X29151Y676487D01*
X30195Y676208D01*
X31219Y675860D01*
X32217Y675446D01*
X33187Y674968D01*
X34123Y674428D01*
X35022Y673827D01*
X35879Y673169D01*
X36692Y672457D01*
X37457Y671692D01*
X38169Y670879D01*
X38827Y670022D01*
X39428Y669123D01*
X39968Y668187D01*
X40446Y667217D01*
X40860Y666219D01*
X41208Y665195D01*
X41487Y664151D01*
X41698Y663091D01*
X41839Y662019D01*
X41910Y660940D01*
X41910Y659860D01*
X41910Y24860D02*
X41839Y23781D01*
X41698Y22709D01*
X41487Y21649D01*
X41208Y20605D01*
X40860Y19581D01*
X40446Y18583D01*
X39968Y17613D01*
X39428Y16677D01*
X38827Y15778D01*
X38169Y14921D01*
X37457Y14108D01*
X36692Y13344D01*
X35879Y12631D01*
X35022Y11973D01*
X34123Y11372D01*
X33187Y10832D01*
X32217Y10354D01*
X31219Y9940D01*
X30195Y9592D01*
X29151Y9313D01*
X28091Y9102D01*
X27019Y8961D01*
X25940Y8890D01*
X24860Y8890D01*
X23781Y8961D01*
X22709Y9102D01*
X21649Y9313D01*
X20605Y9592D01*
X19581Y9940D01*
X18583Y10354D01*
X17613Y10832D01*
X16677Y11372D01*
X15778Y11973D01*
X14921Y12631D01*
X14108Y13344D01*
X13344Y14108D01*
X12631Y14921D01*
X11973Y15778D01*
X11372Y16677D01*
X10832Y17613D01*
X10354Y18583D01*
X9940Y19581D01*
X9592Y20605D01*
X9313Y21649D01*
X9102Y22709D01*
X8961Y23781D01*
X8890Y24860D01*
X8890Y25940D01*
X8961Y27019D01*
X9102Y28091D01*
X9313Y29151D01*
X9592Y30195D01*
X9940Y31219D01*
X10354Y32217D01*
X10832Y33187D01*
X11372Y34123D01*
X11973Y35022D01*
X12631Y35879D01*
X13344Y36692D01*
X14108Y37457D01*
X14921Y38169D01*
X15778Y38827D01*
X16677Y39428D01*
X17613Y39968D01*
X18583Y40446D01*
X19581Y40860D01*
X20605Y41208D01*
X21649Y41487D01*
X22709Y41698D01*
X23781Y41839D01*
X24860Y41910D01*
X25940Y41910D01*
X27019Y41839D01*
X28091Y41698D01*
X29151Y41487D01*
X30195Y41208D01*
X31219Y40860D01*
X32217Y40446D01*
X33187Y39968D01*
X34123Y39428D01*
X35022Y38827D01*
X35879Y38169D01*
X36692Y37457D01*
X37457Y36692D01*
X38169Y35879D01*
X38827Y35022D01*
X39428Y34123D01*
X39968Y33187D01*
X40446Y32217D01*
X40860Y31219D01*
X41208Y30195D01*
X41487Y29151D01*
X41698Y28091D01*
X41839Y27019D01*
X41910Y25940D01*
X41910Y24860D01*
X1134110Y24860D02*
X1134039Y23781D01*
X1133898Y22709D01*
X1133687Y21649D01*
X1133408Y20605D01*
X1133060Y19581D01*
X1132646Y18583D01*
X1132168Y17613D01*
X1131628Y16677D01*
X1131027Y15778D01*
X1130369Y14921D01*
X1129657Y14108D01*
X1128892Y13344D01*
X1128079Y12631D01*
X1127222Y11973D01*
X1126323Y11372D01*
X1125387Y10832D01*
X1124417Y10354D01*
X1123419Y9940D01*
X1122395Y9592D01*
X1121351Y9313D01*
X1120291Y9102D01*
X1119219Y8961D01*
X1118140Y8890D01*
X1117060Y8890D01*
X1115981Y8961D01*
X1114909Y9102D01*
X1113849Y9313D01*
X1112805Y9592D01*
X1111781Y9940D01*
X1110783Y10354D01*
X1109813Y10832D01*
X1108877Y11372D01*
X1107978Y11973D01*
X1107121Y12631D01*
X1106308Y13344D01*
X1105544Y14108D01*
X1104831Y14921D01*
X1104173Y15778D01*
X1103572Y16677D01*
X1103032Y17613D01*
X1102554Y18583D01*
X1102140Y19581D01*
X1101792Y20605D01*
X1101513Y21649D01*
X1101302Y22709D01*
X1101161Y23781D01*
X1101090Y24860D01*
X1101090Y25940D01*
X1101161Y27019D01*
X1101302Y28091D01*
X1101513Y29151D01*
X1101792Y30195D01*
X1102140Y31219D01*
X1102554Y32217D01*
X1103032Y33187D01*
X1103572Y34123D01*
X1104173Y35022D01*
X1104831Y35879D01*
X1105544Y36692D01*
X1106308Y37457D01*
X1107121Y38169D01*
X1107978Y38827D01*
X1108877Y39428D01*
X1109813Y39968D01*
X1110783Y40446D01*
X1111781Y40860D01*
X1112805Y41208D01*
X1113849Y41487D01*
X1114909Y41698D01*
X1115981Y41839D01*
X1117060Y41910D01*
X1118140Y41910D01*
X1119219Y41839D01*
X1120291Y41698D01*
X1121351Y41487D01*
X1122395Y41208D01*
X1123419Y40860D01*
X1124417Y40446D01*
X1125387Y39968D01*
X1126323Y39428D01*
X1127222Y38827D01*
X1128079Y38169D01*
X1128892Y37457D01*
X1129657Y36692D01*
X1130369Y35879D01*
X1131027Y35022D01*
X1131628Y34123D01*
X1132168Y33187D01*
X1132646Y32217D01*
X1133060Y31219D01*
X1133408Y30195D01*
X1133687Y29151D01*
X1133898Y28091D01*
X1134039Y27019D01*
X1134110Y25940D01*
X1134110Y24860D01*
X1134110Y659860D02*
X1134039Y658781D01*
X1133898Y657709D01*
X1133687Y656649D01*
X1133408Y655605D01*
X1133060Y654581D01*
X1132646Y653583D01*
X1132168Y652613D01*
X1131628Y651677D01*
X1131027Y650778D01*
X1130369Y649921D01*
X1129657Y649108D01*
X1128892Y648344D01*
X1128079Y647631D01*
X1127222Y646973D01*
X1126323Y646372D01*
X1125387Y645832D01*
X1124417Y645354D01*
X1123419Y644940D01*
X1122395Y644592D01*
X1121351Y644313D01*
X1120291Y644102D01*
X1119219Y643961D01*
X1118140Y643890D01*
X1117060Y643890D01*
X1115981Y643961D01*
X1114909Y644102D01*
X1113849Y644313D01*
X1112805Y644592D01*
X1111781Y644940D01*
X1110783Y645354D01*
X1109813Y645832D01*
X1108877Y646372D01*
X1107978Y646973D01*
X1107121Y647631D01*
X1106308Y648344D01*
X1105544Y649108D01*
X1104831Y649921D01*
X1104173Y650778D01*
X1103572Y651677D01*
X1103032Y652613D01*
X1102554Y653583D01*
X1102140Y654581D01*
X1101792Y655605D01*
X1101513Y656649D01*
X1101302Y657709D01*
X1101161Y658781D01*
X1101090Y659860D01*
X1101090Y660940D01*
X1101161Y662019D01*
X1101302Y663091D01*
X1101513Y664151D01*
X1101792Y665195D01*
X1102140Y666219D01*
X1102554Y667217D01*
X1103032Y668187D01*
X1103572Y669123D01*
X1104173Y670022D01*
X1104831Y670879D01*
X1105544Y671692D01*
X1106308Y672457D01*
X1107121Y673169D01*
X1107978Y673827D01*
X1108877Y674428D01*
X1109813Y674968D01*
X1110783Y675446D01*
X1111781Y675860D01*
X1112805Y676208D01*
X1113849Y676487D01*
X1114909Y676698D01*
X1115981Y676839D01*
X1117060Y676910D01*
X1118140Y676910D01*
X1119219Y676839D01*
X1120291Y676698D01*
X1121351Y676487D01*
X1122395Y676208D01*
X1123419Y675860D01*
X1124417Y675446D01*
X1125387Y674968D01*
X1126323Y674428D01*
X1127222Y673827D01*
X1128079Y673169D01*
X1128892Y672457D01*
X1129657Y671692D01*
X1130369Y670879D01*
X1131027Y670022D01*
X1131628Y669123D01*
X1132168Y668187D01*
X1132646Y667217D01*
X1133060Y666219D01*
X1133408Y665195D01*
X1133687Y664151D01*
X1133898Y663091D01*
X1134039Y662019D01*
X1134110Y660940D01*
X1134110Y659860D01*
M02*
